<?xml version="1.0" encoding="UTF-8"?>
<svg version="1.1" xmlns="http://www.w3.org/2000/svg" width="800" height="800">
<path d="M0 0 C2.43318974 -0.00417841 4.86637753 -0.0096587 7.29956174 -0.01631981 C12.56688124 -0.0277273 17.83411948 -0.02992682 23.10144424 -0.02376938 C30.9346625 -0.01463715 38.76779904 -0.02274324 46.60101106 -0.03406062 C60.59642008 -0.0536838 74.59179197 -0.05608326 88.58721146 -0.05086542 C100.83763871 -0.04630067 113.0880513 -0.04691685 125.33847809 -0.05270576 C126.98445873 -0.05346265 128.63043937 -0.05421863 130.27642001 -0.05497371 C132.75705636 -0.05611896 135.2376927 -0.05726884 137.71832904 -0.05843295 C160.76856382 -0.06913146 183.81879373 -0.07386994 206.86903 -0.06596279 C208.17122039 -0.06551703 208.17122039 -0.06551703 209.49971766 -0.06506227 C216.54860495 -0.06261356 223.59749219 -0.06000186 230.64637941 -0.05737813 C258.13319298 -0.04727836 285.61994544 -0.05562863 313.10675049 -0.07887268 C344.02162229 -0.10497364 374.93645731 -0.11778557 405.85134053 -0.11068493 C409.15086571 -0.10996892 412.45039089 -0.10929453 415.74991608 -0.10864449 C416.96846555 -0.10838977 416.96846555 -0.10838977 418.21163219 -0.10812991 C430.44799451 -0.10583172 442.68432255 -0.113781 454.92067719 -0.12693596 C468.84520837 -0.14187957 482.76965952 -0.14264721 496.69418904 -0.12486505 C504.47526665 -0.11533601 512.2561573 -0.11666693 520.03722223 -0.13409974 C525.86436364 -0.14589895 531.6913244 -0.13653221 537.51844516 -0.11927737 C539.86285555 -0.1155287 542.2072888 -0.11840625 544.55167875 -0.12888902 C564.36857451 -0.21114044 582.74325814 1.75363332 600.81182861 10.38768005 C601.50937256 10.71929138 602.2069165 11.05090271 602.92559814 11.39256287 C612.53656813 16.04145147 620.85142648 21.19318412 628.81182861 28.38768005 C630.06866455 29.44922302 630.06866455 29.44922302 631.35089111 30.5322113 C652.91249143 49.05649641 668.171326 76.87965958 670.81182861 105.38768005 C671.19942257 113.29194041 671.08643059 121.21722706 671.07252502 129.128479 C671.07554751 131.56177868 671.07943748 133.99507741 671.08411759 136.42837447 C671.09225084 141.70818835 671.09420172 146.98795006 671.09061432 152.26776505 C671.08529366 160.11935568 671.0914163 167.97090893 671.09969725 175.8224955 C671.11491974 190.66310519 671.11664413 205.50369779 671.11417422 220.34431366 C671.11234 231.80604892 671.11410389 243.2677786 671.11839867 254.72951317 C671.11900107 256.37749944 671.11960227 258.02548571 671.12020227 259.67347198 C671.12110954 262.15697485 671.12201821 264.64047771 671.12293462 267.12398057 C671.13136154 290.20779289 671.13570165 313.29160311 671.1315279 336.37541676 C671.13137152 337.24523384 671.13121515 338.11505093 671.13105403 339.0112261 C671.13024828 343.41958083 671.12940251 347.82793554 671.12854073 352.23629025 C671.12836964 353.11176862 671.12819856 353.98724698 671.12802228 354.889255 C671.12767563 356.65968379 671.1273271 358.43011258 671.1269767 360.20054137 C671.12161976 387.74706445 671.1295502 415.29355552 671.14801025 442.84007263 C671.16873696 473.80503696 671.17945171 504.76998145 671.17543477 535.73495311 C671.17503944 539.03810195 671.17467789 542.34125079 671.17433739 545.64439964 C671.17424666 546.45768908 671.17415592 547.27097851 671.17406244 548.10891308 C671.17289763 560.3735897 671.17953592 572.63824626 671.19014931 584.90291786 C671.20221088 598.85512458 671.20374922 612.80728719 671.19135914 626.75949458 C671.18474024 634.56157059 671.18633918 642.36354104 671.19994765 650.16560856 C671.20918824 655.99964948 671.20265131 661.83360497 671.19009986 667.66764196 C671.18745087 670.02150489 671.18982578 672.37538019 671.19783572 674.72923098 C671.23668942 687.00242852 670.93833276 698.46888565 667.81182861 710.38768005 C667.61986304 711.17042213 667.42789747 711.9531642 667.23011476 712.75962573 C659.33793932 743.3545814 638.35481481 768.98368576 611.58135986 785.28611755 C594.80372132 794.97355002 574.61985773 800.73523371 555.28874683 800.64215565 C554.28470762 800.64536213 553.2806684 800.6485686 552.24620375 800.65187225 C548.89674782 800.66014419 545.54747202 800.65425773 542.19801331 800.64837646 C539.76628937 800.65139843 537.33456639 800.65528814 534.90284508 800.65996903 C529.62334881 800.66810688 524.34390473 800.67005121 519.06440735 800.66646576 C511.21321947 800.66114794 503.36206901 800.66726494 495.5108852 800.67554869 C480.67074882 800.69077641 465.83062952 800.69249498 450.99048696 800.69002566 C439.52825963 800.68819173 428.06603789 800.68995473 416.60381126 800.69425011 C414.95597977 800.69485251 413.30814828 800.69545371 411.66031679 800.69605371 C409.17705623 800.69696098 406.69379566 800.69786965 404.2105351 800.69878606 C381.12636829 800.70721394 358.04220359 800.71155248 334.95803547 800.70737934 C334.08807759 800.70722297 333.2181197 800.70706659 332.32179946 800.70690547 C327.91270187 800.70609971 323.5036043 800.70525394 319.09450672 800.70439217 C317.78106246 800.70413554 317.78106246 800.70413554 316.44108397 800.70387372 C314.67034845 800.70352707 312.89961292 800.70317854 311.1288774 800.70282814 C283.58250798 800.69747216 256.03617058 800.70539853 228.48980713 800.72386169 C197.52630538 800.74459101 166.56282347 800.75530256 135.59931439 800.75128621 C132.29585119 800.75089088 128.99238799 800.75052933 125.68892479 800.75018883 C124.46887202 800.75005273 124.46887202 800.75005273 123.22417172 800.74991388 C110.9604015 800.74874926 98.69665134 800.75538596 86.43288612 800.76600075 C72.47958582 800.77806574 58.52632964 800.77959682 44.57302866 800.76721058 C36.77116803 800.76059435 28.96941298 800.76218439 21.16756085 800.77579909 C15.33186179 800.78504629 9.49624803 800.7784961 3.66055288 800.7659513 C1.30731521 800.76330426 -1.04593485 800.76567106 -3.39916035 800.77368716 C-19.05342453 800.82329173 -33.98066776 800.22122964 -48.81317139 794.63768005 C-49.51353516 794.38018982 -50.21389893 794.12269958 -50.93548584 793.85740662 C-79.93376329 782.91118927 -105.14050596 761.22400559 -118.32098389 732.90330505 C-125.17325384 717.56757077 -129.35194853 702.24445156 -129.31959915 685.35399628 C-129.3226781 683.85441112 -129.3226781 683.85441112 -129.32581925 682.32453132 C-129.33148559 678.9657264 -129.33003245 675.60696254 -129.32861328 672.24815369 C-129.33119713 669.81917 -129.33421034 667.39018673 -129.33761668 664.96120405 C-129.34484114 658.97991257 -129.3473892 652.99863488 -129.34794574 647.01734039 C-129.34886043 639.85209031 -129.35553113 632.68684846 -129.36229256 625.52160192 C-129.37834432 608.20398445 -129.38425497 590.88636786 -129.38904131 573.56874428 C-129.39137815 565.37417886 -129.3949809 557.17961414 -129.39873669 548.98504927 C-129.41157165 520.92690043 -129.42229074 492.86875199 -129.42573929 464.81060028 C-129.42596092 463.04961911 -129.4261827 461.28863794 -129.42640464 459.52765676 C-129.42662528 457.76245401 -129.42684576 455.99725126 -129.42706609 454.23204851 C-129.42750864 450.69082673 -129.42795575 447.14960496 -129.42840576 443.60838318 C-129.42851515 442.73036758 -129.42862454 441.85235198 -129.42873725 440.94772985 C-129.43236722 412.48327858 -129.44828529 384.01885278 -129.47159613 355.55441127 C-129.49620417 325.450859 -129.50991259 295.3473213 -129.51110721 265.24375868 C-129.51127866 261.93772347 -129.51149408 258.63168828 -129.51174164 255.32565308 C-129.51179741 254.51163114 -129.51185318 253.6976092 -129.51191063 252.85891994 C-129.51306025 239.77113473 -129.52407464 226.68337572 -129.53862869 213.59559935 C-129.55301055 200.43486747 -129.55622115 187.27416909 -129.54818872 174.11343151 C-129.54374038 166.30026934 -129.54756111 158.48721547 -129.56342722 150.67406757 C-129.57435948 144.83157044 -129.56951122 138.98915408 -129.55865535 133.14665455 C-129.55669852 130.7892759 -129.55977611 128.43188635 -129.56849971 126.07452303 C-129.62280869 110.40190419 -128.59304644 96.25091868 -123.43817139 81.32518005 C-123.05193604 80.1974115 -123.05193604 80.1974115 -122.65789795 79.04685974 C-112.11709969 49.19602771 -89.89964341 25.37511032 -61.54290771 11.54344177 C-41.20099784 1.93329462 -22.17763249 -0.06225074 0 0 Z " fill="#050504" transform="translate(129.18817138671875,-0.3876800537109375)"/>
<path d="M0 0 C113.52 0 227.04 0 344 0 C348.95 8.91 353.9 17.82 359 27 C363.8724687 35.6314424 363.8724687 35.6314424 368.75390625 44.2578125 C372.18970521 50.32713203 375.59616765 56.41271069 379 62.5 C384.10155876 71.62311194 389.23366615 80.72837397 394.38452148 89.82373047 C397.63873099 95.57547235 400.86396339 101.34213853 404.0625 107.125 C408.05985312 114.34961842 412.14449636 121.52158815 416.25366211 128.68310547 C420.26074729 135.67782341 424.19910506 142.70945536 428.125 149.75 C432.52961579 157.645918 436.98366906 165.5038067 441.62939453 173.26074219 C444.90936151 178.75626731 447.95779885 184.3700788 451 190 C457.42698845 201.86743639 463.91668145 213.68680456 470.64135742 225.38867188 C473.78413262 230.86043592 476.88399672 236.3529439 479.9375 241.875 C485.32166606 251.60820801 490.80111246 261.28675315 496.28271484 270.96533203 C498.06203185 274.1096184 499.83808435 277.25572959 501.61328125 280.40234375 C502.49536255 281.96529175 502.49536255 281.96529175 503.39526367 283.55981445 C504.5221895 285.55678746 505.64867638 287.55400825 506.7746582 289.55151367 C507.53975708 290.90660034 507.53975708 290.90660034 508.3203125 292.2890625 C508.76648926 293.08006348 509.21266602 293.87106445 509.67236328 294.68603516 C510.9936075 297.0821283 510.9936075 297.0821283 512.79248047 299.48193359 C514 302 514 302 513.39477539 304.44921875 C511.85733118 307.26091437 510.31442247 310.05335121 508.68359375 312.8125 C508.35552734 313.36990875 508.02746094 313.9273175 507.68945312 314.50161743 C506.60867918 316.33632651 505.52308269 318.16813285 504.4375 320 C503.6722453 321.29714972 502.90735906 322.59451687 502.14282227 323.89208984 C500.55362638 326.58870799 498.96284567 329.28438211 497.37109375 331.97949219 C495.12435585 335.78608327 492.88814644 339.59875439 490.65625 343.4140625 C490.30641556 344.01204147 489.95658112 344.61002045 489.59614563 345.22612 C488.89380893 346.42669078 488.19148242 347.62726754 487.48916626 348.82785034 C479.66507376 362.19812349 471.77414294 375.52810122 463.86816406 388.85009766 C455.54658675 402.88106871 447.26482176 416.9355416 439 431 C430.09952626 446.1461636 421.17662889 461.27905017 412.2109375 476.38671875 C404.84993691 488.7917578 397.51851566 501.21306485 390.23022461 513.66094971 C384.03368135 524.24407473 377.80724175 534.80918709 371.56054688 545.36279297 C369.48445265 548.8712363 367.41059127 552.38099683 365.33691406 555.89086914 C364.26472254 557.70564307 363.18091429 559.51382113 362.06890839 561.30447519 C359.17882831 566.03353716 356.66429586 570.61623992 354.68353748 575.79891396 C352.08966507 582.0480015 349.29481568 587.62849477 344 592 C334.48217621 595.78299035 323.47886969 594.84032516 313.40835845 594.55344367 C309.19658527 594.45785257 304.98548769 594.49062607 300.77293396 594.5072937 C293.48617652 594.5187954 286.20377345 594.45016602 278.9181118 594.32606125 C268.38524919 594.14676072 257.85447812 594.08992219 247.32025496 594.06232543 C230.2278549 594.01425089 213.13777309 593.86805794 196.04663086 593.65966797 C179.4507197 593.45752752 162.85543963 593.30190496 146.25854492 593.20849609 C144.72237831 593.19982622 144.72237831 593.19982622 143.15517803 593.19098119 C138.01717973 593.16226902 132.87917697 593.13446777 127.74117124 593.10711932 C85.15917558 592.87928771 42.57970778 592.49201305 0 592 C-2.05196088 588.44501745 -4.10371059 584.88991311 -6.1552763 581.33470249 C-6.85122317 580.12874386 -7.54722477 578.92281682 -8.24328518 577.71692371 C-13.29137197 568.97122667 -18.31672729 560.21320352 -23.3125 551.4375 C-28.64451581 542.08744506 -34.03359269 532.77487434 -39.51513672 523.51171875 C-42.85210032 517.86708187 -46.17862968 512.21632297 -49.5 506.5625 C-49.87289154 505.92779785 -50.24578308 505.2930957 -50.62997437 504.63916016 C-55.32845301 496.63505421 -59.94268715 488.59364667 -64.40551758 480.45532227 C-68.06981852 473.80255464 -71.94143678 467.27855266 -75.82202148 460.75024414 C-84.05659407 446.8823139 -92.08267668 432.89084352 -100.0625 418.875 C-105.35379738 409.59523008 -110.76402608 400.38419424 -116.15332031 391.16113281 C-119.68773064 385.110955 -123.21720386 379.0578954 -126.74633789 373.00463867 C-129.67123693 367.98860209 -132.59960114 362.97465254 -135.53515625 357.96484375 C-141.95406978 347.00089958 -148.3030349 336.00468407 -154.49462891 324.91040039 C-156.78758403 320.82095108 -159.09599328 316.77406117 -161.66015625 312.84765625 C-162.05025879 312.24783936 -162.44036133 311.64802246 -162.84228516 311.0300293 C-163.84433492 309.51578601 -164.87209113 308.01863515 -165.90234375 306.5234375 C-167 304 -167 304 -166.45703125 301.640625 C-165.97621094 300.76921875 -165.49539062 299.8978125 -165 299 C-164.69505615 298.4342627 -164.3901123 297.86852539 -164.07592773 297.28564453 C-162.99311299 295.29984192 -161.87582088 293.33671464 -160.75 291.375 C-155.26196727 281.75660117 -150.00310394 272.02239264 -144.80029297 262.24707031 C-138.9340276 251.23417579 -132.96586686 240.2963278 -126.78173828 229.45751953 C-122.85824475 222.56580738 -119.06504005 215.6110825 -115.3125 208.625 C-111.14505582 200.86686449 -106.83744495 193.22644286 -102.31787109 185.66870117 C-99.4815982 180.89892457 -96.95691325 176.03579227 -94.53125 171.04296875 C-92.7731658 167.54922489 -90.87121956 164.1482309 -88.9375 160.75 C-85.03064283 153.88322337 -81.24981469 146.95370845 -77.5 140 C-72.77845996 131.25202419 -67.97483308 122.55888648 -63.07714844 113.90869141 C-61.18254594 110.55148326 -59.30934619 107.18243523 -57.4375 103.8125 C-56.8336145 102.72569946 -56.8336145 102.72569946 -56.2175293 101.61694336 C-53.54455706 96.79993517 -50.88484095 91.97571466 -48.23046875 87.1484375 C-46.86234924 84.66125455 -45.49385397 82.1742788 -44.125 79.6875 C-43.78187775 79.06414764 -43.43875549 78.44079529 -43.0852356 77.79855347 C-38.09739549 68.74296311 -33.03064275 59.73715553 -27.87988281 50.77294922 C-25.04323936 45.83483392 -22.25716082 40.87644921 -19.5546875 35.86328125 C-17.39876025 31.89269162 -15.19778119 27.94753763 -13 24 C-6.32322364 12.09408876 -6.32322364 12.09408876 0 0 Z " fill="#F06920" transform="translate(227,104)"/>
<path d="M0 0 C1.09269196 -0.00637985 2.18538391 -0.0127597 3.31118774 -0.01933289 C5.10307022 -0.02100212 5.10307022 -0.02100212 6.93115234 -0.02270508 C8.77342911 -0.02769768 8.77342911 -0.02769768 10.65292358 -0.03279114 C13.26747258 -0.03787064 15.8820281 -0.04019915 18.49658203 -0.04003906 C22.45141382 -0.03991914 26.40605398 -0.06027516 30.36083984 -0.0793457 C67.14120303 -0.16541952 67.14120303 -0.16541952 78.50537109 9.52026367 C89.29526286 20.7239271 86.08547847 42.9493657 86.20849609 57.22338867 C86.22910582 59.24648423 86.25010323 61.26957586 86.27146912 63.29266357 C86.32627526 68.57953694 86.37586477 73.86644644 86.42431641 79.15338135 C86.47483703 84.56346802 86.53036245 89.97350316 86.58544922 95.38354492 C86.69252254 105.97074033 86.79407718 116.55798077 86.89208984 127.14526367 C87.35711411 126.67253525 87.82213837 126.19980682 88.30125427 125.7127533 C88.91960648 125.08840897 89.53795868 124.46406464 90.17504883 123.82080078 C90.78444809 123.20369736 91.39384735 122.58659393 92.02171326 121.95079041 C94.80760214 119.26149409 97.81838232 116.9699599 100.95458984 114.70776367 C101.92404541 114.00562744 101.92404541 114.00562744 102.91308594 113.28930664 C117.12756981 103.1637787 132.03802669 95.0051289 149.86083984 94.97729492 C150.61820435 94.97396652 151.37556885 94.97063812 152.15588379 94.96720886 C153.75609739 94.96216479 155.35632143 94.95979975 156.95654297 94.95996094 C159.35711973 94.95779522 161.75722046 94.93967056 164.15771484 94.9206543 C193.64521142 94.81008071 218.49385127 103.37220761 240.07958984 123.89526367 C257.75315544 142.24641006 268.96759708 167.37460907 273.89208984 192.14526367 C274.11638672 193.26143066 274.11638672 193.26143066 274.34521484 194.40014648 C281.77681727 232.88751853 276.17742358 276.31670888 254.24609375 309.37255859 C238.82966167 331.88266399 216.78375624 350.30788198 189.89208984 357.14526367 C180.97109535 358.70002054 171.73086105 358.3313905 162.70703125 358.33056641 C160.03027433 358.3327529 157.35393046 358.35096089 154.67724609 358.36987305 C142.16872891 358.41361065 130.54916041 357.99580621 119.01708984 352.64526367 C118.25388428 352.29705566 117.49067871 351.94884766 116.7043457 351.59008789 C105.39726608 346.23093568 96.03199655 338.64183202 87.00146484 330.07885742 C85.04393765 328.10672044 85.04393765 328.10672044 82.89208984 327.14526367 C82.89208984 336.05526367 82.89208984 344.96526367 82.89208984 354.14526367 C62.76208984 354.14526367 42.63208984 354.14526367 21.89208984 354.14526367 C21.56208984 256.13526367 21.23208984 158.12526367 20.89208984 57.14526367 C13.60992238 55.93156909 6.46256043 54.77970025 -0.85791016 54.02026367 C-1.66228516 53.93389648 -2.46666016 53.8475293 -3.29541016 53.75854492 C-5.23257772 53.55099125 -7.17019563 53.34764719 -9.10791016 53.14526367 C-9.18422861 46.86482564 -9.23662237 40.58450805 -9.27270508 34.30371094 C-9.28775377 32.16889985 -9.30819752 30.03411948 -9.33422852 27.89941406 C-9.37078402 24.82373453 -9.38767605 21.74846523 -9.40087891 18.67260742 C-9.41636276 17.72441635 -9.43184662 16.77622528 -9.44779968 15.79930115 C-9.44922774 10.12468063 -8.78277421 6.17654551 -6.10791016 1.14526367 C-4.42077222 -0.54187426 -2.3121651 0.00913189 0 0 Z " fill="#060504" transform="translate(266.10791015625,219.854736328125)"/>
<path d="M0 0 C16.24218332 10.90262764 25.77866727 27.45581271 29.71337891 46.50488281 C34.31071912 71.6651752 31.95728686 99.00009707 18.03125 120.99609375 C7.94979697 135.04626358 -3.75247552 144.61643319 -20.91015625 147.90234375 C-36.59715963 149.97451757 -52.97289416 148.55572856 -66.4296875 139.578125 C-83.18174723 126.65873348 -92.04655706 108.38223894 -95.30273438 87.77050781 C-96.0277536 81.55013139 -96.0231976 75.34542607 -96.0078125 69.08984375 C-96.02392578 67.79111328 -96.04003906 66.49238281 -96.05664062 65.15429688 C-96.0658496 46.63505442 -91.64561645 29.56613421 -80.6953125 14.40234375 C-80.18484375 13.69464844 -79.674375 12.98695313 -79.1484375 12.2578125 C-59.91952438 -11.87352154 -25.61459296 -15.18314278 0 0 Z " fill="#F06920" transform="translate(446.6953125,377.59765625)"/>
<path d="M0 0 C7.625 0.875 7.625 0.875 11 2 C12.05003253 17.56402979 12.13623079 33.08179062 12.11352539 48.67651367 C12.11268256 51.41819791 12.1133589 54.1598813 12.1139679 56.90156555 C12.11448811 62.76549428 12.11139438 68.62941174 12.10573006 74.49333763 C12.09754616 82.97122128 12.09499284 91.44909956 12.09374207 99.92698673 C12.09156228 113.68724879 12.08493152 127.44750486 12.07543945 141.20776367 C12.06623742 154.56160452 12.05917029 167.91544373 12.05493164 181.26928711 C12.05466892 182.09468013 12.05440619 182.92007316 12.05413551 183.77047809 C12.05283032 187.91190784 12.05156665 192.05333759 12.05032361 196.19476736 C12.03998446 230.46318254 12.02239562 264.73159062 12 299 C11.67 299 11.34 299 11 299 C10.99668985 297.82809144 10.99337971 296.65618288 10.98996925 295.44876194 C10.91090351 267.61241724 10.82166538 239.77611949 10.71994839 211.93984807 C10.70742994 208.51157541 10.6949971 205.08330245 10.68261719 201.6550293 C10.68015119 200.97253931 10.6776852 200.29004932 10.67514448 199.58687782 C10.63545132 188.54491072 10.60268877 177.50293344 10.57250018 166.46093673 C10.54135516 155.12570739 10.50258608 143.79052619 10.45720994 132.45534319 C10.43197221 126.09070978 10.41018278 119.72610681 10.39665604 113.36143684 C10.3838111 107.36887042 10.3617302 101.37640848 10.33261681 95.38389969 C10.3235601 93.18655083 10.31785525 90.98918516 10.31578636 88.79181862 C10.31245039 85.78643313 10.29693665 82.7813415 10.2784729 79.77601624 C10.28040763 78.91120465 10.28234237 78.04639306 10.28433573 77.15537506 C10.23908411 72.21156309 9.66850268 67.73345233 8.44748974 62.93836927 C7.81800363 60.21165529 7.80119045 57.62773912 7.86474609 54.83764648 C7.88491791 53.71716415 7.90508972 52.59668182 7.9258728 51.44224548 C7.95806915 50.26376541 7.9902655 49.08528534 8.0234375 47.87109375 C8.04846344 46.64084976 8.07348938 45.41060577 8.09927368 44.14308167 C8.18098184 40.24092009 8.27776182 36.33930237 8.375 32.4375 C8.43451633 29.78064261 8.49059175 27.12372635 8.546875 24.46679688 C8.68648723 17.97756787 8.83845197 11.488718 9 5 C8.34 5 7.68 5 7 5 C7 4.01 7 3.02 7 2 C4.69 2 2.38 2 0 2 C0 1.34 0 0.68 0 0 Z " fill="#D16731" transform="translate(276,275)"/>
<path d="M0 0 C113.52 0 227.04 0 344 0 C343.67 0.66 343.34 1.32 343 2 C230.14 1.67 117.28 1.34 1 1 C0.67 2.65 0.34 4.3 0 6 C-0.66 6 -1.32 6 -2 6 C-2.13664063 6.57621094 -2.27328125 7.15242188 -2.4140625 7.74609375 C-2.97404932 9.90017638 -3.62431135 11.96783651 -4.375 14.0625 C-4.72691406 15.06990234 -4.72691406 15.06990234 -5.0859375 16.09765625 C-6.09785983 18.20366554 -7.3491732 19.37124307 -9 21 C-9.33 21.99 -9.66 22.98 -10 24 C-10.66 24 -11.32 24 -12 24 C-9.17157288 15.51471863 -4.34372243 7.81870037 0 0 Z " fill="#D7703A" transform="translate(227,104)"/>
<path d="M0 0 C8.31000792 -0.04628625 16.61996221 -0.0818502 24.93006706 -0.10362434 C28.78854797 -0.11407343 32.64694085 -0.128253 36.50537109 -0.15087891 C40.22712192 -0.1725674 43.94878794 -0.18456014 47.67059708 -0.18975449 C49.09241191 -0.19345745 50.51422197 -0.20068819 51.93600082 -0.21146011 C53.92327114 -0.22592119 55.91062631 -0.22681646 57.89794922 -0.22705078 C59.03046112 -0.231492 60.16297302 -0.23593323 61.32980347 -0.24050903 C64 0 64 0 66 2 C44.88 2 23.76 2 2 2 C-0.78308167 8.05478073 -0.78308167 8.05478073 -1.43237305 13.92553711 C-1.46206429 15.27614479 -1.46206429 15.27614479 -1.49235535 16.65403748 C-1.49874527 17.60222855 -1.50513519 18.55041962 -1.51171875 19.52734375 C-1.52966995 20.51626114 -1.54762115 21.50517853 -1.56611633 22.52406311 C-1.62000805 25.66183291 -1.65404739 28.79945242 -1.6875 31.9375 C-1.7206917 34.07358852 -1.75518307 36.20965727 -1.79101562 38.34570312 C-1.8757225 43.5636933 -1.94263449 48.78164052 -2 54 C3.94 54.33 9.88 54.66 16 55 C16 55.33 16 55.66 16 56 C13.60385874 56.05425226 11.20896147 56.09379027 8.8125 56.125 C8.13896484 56.14175781 7.46542969 56.15851563 6.77148438 56.17578125 C2.65398174 56.21595201 -0.25643953 55.63303996 -4 54 C-4.09938176 47.75614996 -4.17171075 41.51276728 -4.21972656 35.26831055 C-4.23975746 33.14713513 -4.26699025 31.02601435 -4.30175781 28.9050293 C-4.35065214 25.84410059 -4.37305452 22.78390624 -4.390625 19.72265625 C-4.41127014 18.78478775 -4.43191528 17.84691925 -4.45318604 16.88063049 C-4.45535681 10.41227609 -3.0761876 5.68536628 0 0 Z " fill="#CD6A36" transform="translate(259,219)"/>
<path d="M0 0 C0.33 0 0.66 0 1 0 C2.94287477 14.07399527 2.18798637 27.46963999 0.125 41.5 C-0.04862061 42.68762939 -0.22224121 43.87525879 -0.40112305 45.09887695 C-1.73489013 53.6023352 -1.73489013 53.6023352 -4 57 C-4.37071275 58.57072364 -4.67779702 60.15715504 -4.9375 61.75 C-5.76119716 66.23457341 -7.10024815 69.87010467 -9 74 C-9.37308631 75.32276056 -9.73046415 76.65232077 -10 78 C-10.66 78 -11.32 78 -12 78 C-12.144375 78.928125 -12.28875 79.85625 -12.4375 80.8125 C-13 84 -13 84 -14 87 C-14.66 87 -15.32 87 -16 87 C-16 87.99 -16 88.98 -16 90 C-16.66 90 -17.32 90 -18 90 C-16.6172316 85.60222627 -14.94774037 81.37901568 -13.18237305 77.1262207 C-2.84083885 52.05199983 -0.65901798 26.93963563 0 0 Z " fill="#C76532" transform="translate(543,432)"/>
<path d="M0 0 C2.34751999 0.02357729 4.69389526 0.02053936 7.04150391 0.01391602 C16.36805036 0.03266173 25.277874 0.71737772 34.48291016 2.33618164 C34.48291016 2.66618164 34.48291016 2.99618164 34.48291016 3.33618164 C17.32291016 3.00618164 0.16291016 2.67618164 -17.51708984 2.33618164 C-17.51708984 2.99618164 -17.51708984 3.65618164 -17.51708984 4.33618164 C-23.95208984 4.83118164 -23.95208984 4.83118164 -30.51708984 5.33618164 C-21.60037101 -0.60829758 -10.31749694 -0.11044504 0 0 Z " fill="#3E1304" transform="translate(423.51708984375,314.663818359375)"/>
<path d="M0 0 C1.83984375 1.65625 1.83984375 1.65625 3 3 C-0.6358148 2.05468815 -3.5923881 1.23038934 -6.875 -0.625 C-11.00664028 -2.44292172 -14.55606398 -2.26663616 -19 -2 C-19.33 -2.66 -19.66 -3.32 -20 -4 C-22.94131891 -4.98043964 -24.82501665 -5.11621202 -27.88671875 -5.09765625 C-28.82451172 -5.09443359 -29.76230469 -5.09121094 -30.72851562 -5.08789062 C-32.19321289 -5.07532227 -32.19321289 -5.07532227 -33.6875 -5.0625 C-34.67556641 -5.05798828 -35.66363281 -5.05347656 -36.68164062 -5.04882812 C-39.12115474 -5.03704303 -41.56054689 -5.02059011 -44 -5 C-31.5592257 -13.29384953 -12.01244124 -6.16601052 0 0 Z " fill="#C9632E" transform="translate(444,376)"/>
<path d="M0 0 C6.94164248 6.94164248 5.08430429 22.79388225 5.09765625 31.921875 C5.09477659 35.53131055 5.07945301 39.14060732 5.0625 42.75 C5.05747365 44.62239463 5.05291276 46.49479058 5.04882812 48.3671875 C5.03791543 52.91149123 5.02071371 57.45573081 5 62 C4.67 62 4.34 62 4 62 C3.97494385 60.88963379 3.9498877 59.77926758 3.92407227 58.63525391 C3.83005085 54.52396681 3.72981743 50.41285077 3.62768555 46.30175781 C3.5843167 44.52087397 3.54264306 42.73994802 3.50268555 40.95898438 C3.4450301 38.40221452 3.3813223 35.84565702 3.31640625 33.2890625 C3.29969376 32.49005524 3.28298126 31.69104797 3.26576233 30.86782837 C3.24607009 26.80193632 3.24607009 26.80193632 2 23 C1.73492604 19.34418829 1.55514201 15.69453367 1.39453125 12.03320312 C1.56827928 8.20232099 1.56827928 8.20232099 0 5 C-0.04063832 3.33382885 -0.042721 1.66611905 0 0 Z " fill="#421606" transform="translate(347,234)"/>
<path d="M0 0 C0.825 0.144375 1.65 0.28875 2.5 0.4375 C16.28720343 2.65330055 29.21957865 2.64282053 43 0 C43 0.99 43 1.98 43 3 C40.92446352 3.5534764 39.15634036 4 37 4 C34.67437386 4.06947683 32.34887187 4.14312612 30.0234375 4.21875 C29.33819 4.24094604 28.6529425 4.26314209 27.94692993 4.28601074 C25.75627669 4.35703838 23.56563833 4.42851399 21.375 4.5 C19.89062596 4.54820657 18.40625097 4.59638402 16.921875 4.64453125 C13.28123896 4.76268282 9.64061613 4.88123619 6 5 C5.67 4.01 5.34 3.02 5 2 C3.35 2 1.7 2 0 2 C0 1.34 0 0.68 0 0 Z " fill="#210601" transform="translate(392,523)"/>
<path d="M0 0 C7.625 0.875 7.625 0.875 11 2 C11 12.23 11 22.46 11 33 C10.67 33 10.34 33 10 33 C9.00736571 23.64087671 8.89268462 14.39605802 9 5 C8.34 5 7.68 5 7 5 C7 4.01 7 3.02 7 2 C4.69 2 2.38 2 0 2 C0 1.34 0 0.68 0 0 Z " fill="#CD6B38" transform="translate(276,275)"/>
<path d="M0 0 C0.33 0 0.66 0 1 0 C1.82148551 5.76354231 2.19226391 11.36779261 2.1875 17.1875 C2.1884668 18.42173706 2.1884668 18.42173706 2.18945312 19.6809082 C2.13010068 26.60558492 1.36695089 33.20186031 0 40 C-0.33 40 -0.66 40 -1 40 C-1.17678395 26.64299051 -0.62825257 13.34034171 0 0 Z " fill="#DA6A33" transform="translate(543,432)"/>
<path d="M0 0 C1 2 1 2 0.44140625 3.9453125 C0.15136719 4.66460937 -0.13867188 5.38390625 -0.4375 6.125 C-0.72496094 6.84945312 -1.01242188 7.57390625 -1.30859375 8.3203125 C-1.53675781 8.87460938 -1.76492187 9.42890625 -2 10 C-2.66 10 -3.32 10 -4 10 C-4 10.99 -4 11.98 -4 13 C-4.66 13 -5.32 13 -6 13 C-6.0825 14.11375 -6.165 15.2275 -6.25 16.375 C-7 20 -7 20 -9.0625 21.4375 C-9.701875 21.623125 -10.34125 21.80875 -11 22 C-11 23.32 -11 24.64 -11 26 C-11.66 26 -12.32 26 -13 26 C-13.33 27.65 -13.66 29.3 -14 31 C-14.66 31 -15.32 31 -16 31 C-14.70408362 26.79206954 -13.10304965 23.06223925 -10.99609375 19.19921875 C-10.42052734 18.14025391 -9.84496094 17.08128906 -9.25195312 15.99023438 C-8.35379883 14.35538086 -8.35379883 14.35538086 -7.4375 12.6875 C-6.83486328 11.57826172 -6.23222656 10.46902344 -5.61132812 9.32617188 C-1.15051171 1.15051171 -1.15051171 1.15051171 0 0 Z " fill="#D0662D" transform="translate(188,175)"/>
<path d="M0 0 C0.66 0 1.32 0 2 0 C10 14.22924901 10 14.22924901 10 17 C10.66 17 11.32 17 12 17 C12.67154933 18.28913487 13.33708859 19.58140204 14 20.875 C14.37125 21.59429688 14.7425 22.31359375 15.125 23.0546875 C16 25 16 25 16 27 C16.66 27 17.32 27 18 27 C20.125 31.625 20.125 31.625 19 35 C16.9368208 31.42548451 14.87384036 27.85085438 12.81103516 24.27612305 C12.11089299 23.06287623 11.41069878 21.84965944 10.71044922 20.63647461 C10.37158691 20.04938721 10.03272461 19.4622998 9.68359375 18.85742188 C9.34896118 18.27771637 9.01432861 17.69801086 8.66955566 17.10073853 C7.69063304 15.40361391 6.71346327 13.70547862 5.73632812 12.00732422 C4.70625761 10.22323978 3.67064088 8.44230859 2.62304688 6.66845703 C0 2.20765818 0 2.20765818 0 0 Z " fill="#D06A32" transform="translate(189,628)"/>
<path d="M0 0 C0.33 1.32 0.66 2.64 1 4 C0.34 4 -0.32 4 -1 4 C-1 5.32 -1 6.64 -1 8 C-1.66 8 -2.32 8 -3 8 C-3 8.99 -3 9.98 -3 11 C-3.66 11 -4.32 11 -5 11 C-5.16788373 12.62487471 -5.33426787 14.24990442 -5.5 15.875 C-5.5928125 16.77992188 -5.685625 17.68484375 -5.78125 18.6171875 C-6.03047295 20.93313211 -6.03047295 20.93313211 -6 23 C-4.68 23 -3.36 23 -2 23 C-2 25.64 -2 28.28 -2 31 C-3.03450491 29.69325696 -4.02172071 28.34935074 -5 27 C-5.45632812 26.38253906 -5.91265625 25.76507813 -6.3828125 25.12890625 C-6.85460938 24.44699219 -7.32640625 23.76507813 -7.8125 23.0625 C-8.27269531 22.41410156 -8.73289063 21.76570313 -9.20703125 21.09765625 C-10 19 -10 19 -9.39453125 16.703125 C-7.64343187 13.30883712 -5.79823975 9.98690953 -3.875 6.6875 C-3.50246094 6.04232422 -3.12992187 5.39714844 -2.74609375 4.73242188 C-1.83367787 3.15324055 -0.91724491 1.57638136 0 0 Z " fill="#C96732" transform="translate(70,389)"/>
<path d="M0 0 C0.33 0.99 0.66 1.98 1 3 C0.2884375 4.0828125 0.2884375 4.0828125 -0.4375 5.1875 C-2.57289715 9.03121488 -2.22142889 11.64523192 -2 16 C-2.99 16.33 -3.98 16.66 -5 17 C-5.66 16.67 -6.32 16.34 -7 16 C-7.4021875 17.0209375 -7.4021875 17.0209375 -7.8125 18.0625 C-9.16053306 21.39710809 -10.57536298 24.69743237 -12 28 C-12.66 27.67 -13.32 27.34 -14 27 C-12.63358421 23.40252773 -11.0328614 20.07041808 -9.1796875 16.69921875 C-8.64472656 15.72275391 -8.10976562 14.74628906 -7.55859375 13.74023438 C-7.00300781 12.73283203 -6.44742188 11.72542969 -5.875 10.6875 C-5.31167969 9.66076172 -4.74835938 8.63402344 -4.16796875 7.57617188 C-2.78117107 5.04937949 -1.39177165 2.52405506 0 0 Z " fill="#D26730" transform="translate(137,267)"/>
<path d="M0 0 C0.66796875 1.6953125 0.66796875 1.6953125 1 4 C-0.07421875 6.3671875 -0.07421875 6.3671875 -1.6875 8.875 C-2.24695313 9.75671875 -2.80640625 10.6384375 -3.3828125 11.546875 C-5.2450551 14.3717261 -7.1091292 17.19419172 -9 20 C-10.6824059 22.65694073 -12.34425454 25.32637824 -14 28 C-14.66 27.67 -15.32 27.34 -16 27 C-13.70985599 23.0616125 -11.41762482 19.1244438 -9.125 15.1875 C-8.14853516 13.50817383 -8.14853516 13.50817383 -7.15234375 11.79492188 C-6.52714844 10.72177734 -5.90195312 9.64863281 -5.2578125 8.54296875 C-4.6817627 7.55321045 -4.10571289 6.56345215 -3.51220703 5.54370117 C-2.3943502 3.6633411 -1.21343224 1.82014836 0 0 Z " fill="#280901" transform="translate(724,435)"/>
<path d="M0 0 C4.18619212 4.77694429 7.17537866 10.198468 10.3125 15.6875 C10.87517578 16.64978516 11.43785156 17.61207031 12.01757812 18.60351562 C12.54416016 19.52197266 13.07074219 20.44042969 13.61328125 21.38671875 C14.09579346 22.22420654 14.57830566 23.06169434 15.07543945 23.92456055 C15.53309692 24.95190308 15.53309692 24.95190308 16 26 C15.67 26.66 15.34 27.32 15 28 C14.34 27.01 13.68 26.02 13 25 C12.01 24.34 11.02 23.68 10 23 C9.01484622 20.37643538 8.57761071 17.75475877 8 15 C7.34 15 6.68 15 6 15 C6 14.01 6 13.02 6 12 C5.34 12 4.68 12 4 12 C4 10.68 4 9.36 4 8 C3.34 8 2.68 8 2 8 C2 6.68 2 5.36 2 4 C1.34 4 0.68 4 0 4 C0 2.68 0 1.36 0 0 Z " fill="#CE6834" transform="translate(599,156)"/>
<path d="M0 0 C4.0084034 2.0042017 5.41409657 3.49055963 8 7 C6.68 6.67 5.36 6.34 4 6 C4 5.34 4 4.68 4 4 C3.34 4 2.68 4 2 4 C1.67 11.59 1.34 19.18 1 27 C0.67 27 0.34 27 0 27 C0 18.09 0 9.18 0 0 Z " fill="#D56B35" transform="translate(349,547)"/>
<path d="M0 0 C1.08784335 3.31395986 1.07262544 3.83580335 -0.4375 7.25 C-0.953125 8.1575 -1.46875 9.065 -2 10 C-2.66 10 -3.32 10 -4 10 C-4.66 12.31 -5.32 14.62 -6 17 C-6.66 17 -7.32 17 -8 17 C-8 18.32 -8 19.64 -8 21 C-8.66 21 -9.32 21 -10 21 C-10 21.99 -10 22.98 -10 24 C-10.66 24 -11.32 24 -12 24 C-10.42195846 18.39523177 -7.73583615 13.64949374 -4.875 8.625 C-4.17310547 7.37783203 -4.17310547 7.37783203 -3.45703125 6.10546875 C-2.30929451 4.06765046 -1.15686718 2.03264431 0 0 Z " fill="#D06731" transform="translate(95,343)"/>
<path d="M0 0 C0.33 0 0.66 0 1 0 C3.49057093 12.63075258 3.20534438 25.18335144 3 38 C2.67 38 2.34 38 2 38 C2 31.4 2 24.8 2 18 C1.34 18 0.68 18 0 18 C0 12.06 0 6.12 0 0 Z " fill="#BF602F" transform="translate(475,422)"/>
<path d="M0 0 C1.6343469 4.06491409 0.33515736 7.70820908 -0.75 11.75 C-0.9346582 12.46285156 -1.11931641 13.17570312 -1.30957031 13.91015625 C-2.5869728 18.7373698 -4.07764059 23.3863374 -6 28 C-7.05703507 24.82184788 -6.97696236 23.23251613 -5.625 20.1875 C-4.09638117 16.45546665 -3.56186146 13.00326294 -3 9 C-2.099682 5.96325173 -1.07415899 2.97927116 0 0 Z " fill="#D16C35" transform="translate(476,460)"/>
<path d="M0 0 C0.5859375 1.83984375 0.5859375 1.83984375 1 4 C-0.375 6.5625 -0.375 6.5625 -2 9 C-2.33 9.99 -2.66 10.98 -3 12 C-3.474375 12.45375 -3.94875 12.9075 -4.4375 13.375 C-6.37092514 15.38576214 -7.0831564 17.39052205 -8 20 C-8.66 20 -9.32 20 -10 20 C-10.33 20.99 -10.66 21.98 -11 23 C-11.33 22.34 -11.66 21.68 -12 21 C-11.01196289 18.84521484 -11.01196289 18.84521484 -9.47265625 16.2109375 C-8.92802734 15.26992188 -8.38339844 14.32890625 -7.82226562 13.359375 C-7.24154297 12.37453125 -6.66082031 11.3896875 -6.0625 10.375 C-5.48564453 9.38242187 -4.90878906 8.38984375 -4.31445312 7.3671875 C-2.88340126 4.90719752 -1.44500804 2.45180958 0 0 Z " fill="#D16730" transform="translate(108,320)"/>
<path d="M0 0 C0.66 0 1.32 0 2 0 C2 0.66 2 1.32 2 2 C1.34 2 0.68 2 0 2 C-0.13664063 2.57621094 -0.27328125 3.15242188 -0.4140625 3.74609375 C-0.97404932 5.90017638 -1.62431135 7.96783651 -2.375 10.0625 C-2.72691406 11.06990234 -2.72691406 11.06990234 -3.0859375 12.09765625 C-4.09785983 14.20366554 -5.3491732 15.37124307 -7 17 C-7.33 17.99 -7.66 18.98 -8 20 C-8.66 20 -9.32 20 -10 20 C-8.56347895 15.08558588 -6.45840385 10.99761642 -3.875 6.625 C-3.50246094 5.98433594 -3.12992188 5.34367187 -2.74609375 4.68359375 C-1.83565998 3.11951523 -0.91851809 1.55934466 0 0 Z " fill="#D26532" transform="translate(225,108)"/>
<path d="M0 0 C0 0.66 0 1.32 0 2 C-0.99 2 -1.98 2 -3 2 C-3 2.66 -3 3.32 -3 4 C-3.7425 4.103125 -4.485 4.20625 -5.25 4.3125 C-8.1863157 5.04657893 -9.66108288 6.14499677 -12 8 C-12.66 8 -13.32 8 -14 8 C-14.66 9.65 -15.32 11.3 -16 13 C-17.65 13 -19.3 13 -21 13 C-15.96897214 7.48209848 -7.90093175 0 0 0 Z " fill="#CD6530" transform="translate(393,373)"/>
<path d="M0 0 C4.46643922 0.65362525 8.66666062 1.74999826 13 3 C13.66 3 14.32 3 15 3 C16.33333333 4.33333333 17.66666667 5.66666667 19 7 C19.99 7.33 20.98 7.66 22 8 C22 8.66 22 9.32 22 10 C17.04242102 8.45173401 12.36189599 6.48219062 7.625 4.375 C6.88894531 4.05015625 6.15289062 3.7253125 5.39453125 3.390625 C3.59529031 2.59615497 1.79749504 1.79841229 0 1 C0 0.67 0 0.34 0 0 Z " fill="#CF6931" transform="translate(466,319)"/>
<path d="M0 0 C0.66 0.33 1.32 0.66 2 1 C-1.3 6.61 -4.6 12.22 -8 18 C-8.92538169 14.29847322 -9.08174162 13.36541838 -8 10 C-7.01 10 -6.02 10 -5 10 C-4.5978125 8.3603125 -4.5978125 8.3603125 -4.1875 6.6875 C-3.12336261 3.38307337 -2.65345336 2.05039578 0 0 Z " fill="#CF6B31" transform="translate(612,622)"/>
<path d="M0 0 C1 3 1 3 -0.4375 6.1875 C-1.2109375 7.5796875 -1.2109375 7.5796875 -2 9 C-2.66 9 -3.32 9 -4 9 C-4.103125 9.721875 -4.20625 10.44375 -4.3125 11.1875 C-5.06793947 14.27793421 -6.15531315 16.41743841 -8 19 C-8.66 19 -9.32 19 -10 19 C-8.40376856 14.60616294 -6.21975667 10.71004193 -3.875 6.6875 C-3.50246094 6.04232422 -3.12992188 5.39714844 -2.74609375 4.73242188 C-1.83367787 3.15324055 -0.91724491 1.57638136 0 0 Z " fill="#250801" transform="translate(659,545)"/>
<path d="M0 0 C1.32 0 2.64 0 4 0 C4.50615298 1.26839526 5.00469099 2.53983102 5.5 3.8125 C5.91765625 4.87404297 5.91765625 4.87404297 6.34375 5.95703125 C7 8 7 8 7 11 C7.66 11 8.32 11 9 11 C8.67 12.32 8.34 13.64 8 15 C6.66407203 12.6889639 5.33115569 10.37628245 4 8.0625 C3.6184375 7.40314453 3.236875 6.74378906 2.84375 6.06445312 C0 1.11328125 0 1.11328125 0 0 Z " fill="#D46A31" transform="translate(152,565)"/>
<path d="M0 0 C0.66 0.33 1.32 0.66 2 1 C-0.64 5.29 -3.28 9.58 -6 14 C-6.66 12.68 -7.32 11.36 -8 10 C-7.34 10 -6.68 10 -6 10 C-5.67 8.35 -5.34 6.7 -5 5 C-4.01 5 -3.02 5 -2 5 C-1.34 3.35 -0.68 1.7 0 0 Z " fill="#D66A33" transform="translate(697,478)"/>
<path d="M0 0 C6.18853251 -0.80719989 9.51166079 1.13043711 14.66796875 4.4921875 C16.7317808 5.82657854 18.78174612 6.94951655 21 8 C20.67 8.99 20.34 9.98 20 11 C19.40832031 10.60167969 18.81664062 10.20335937 18.20703125 9.79296875 C15.81061455 8.18623586 13.40561886 6.59290979 11 5 C10.113125 4.401875 9.22625 3.80375 8.3125 3.1875 C5.55918977 1.77363799 3.0589941 1.35569699 0 1 C0 0.67 0 0.34 0 0 Z " fill="#CB6731" transform="translate(327,221)"/>
<path d="M0 0 C1.3580566 4.0741698 0.61653773 6.06408206 -1 10 C-4.125 11.9375 -4.125 11.9375 -7 13 C-5.35821735 8.22390502 -2.73453298 4.20617096 0 0 Z " fill="#200901" transform="translate(615,620)"/>
<path d="M0 0 C1 3 1 3 -0.1875 5.8125 C-1.9985637 8.99747409 -3.82336842 12.05101528 -6 15 C-6.66 15 -7.32 15 -8 15 C-6.62712658 11.30123909 -4.93644547 8.0485524 -2.875 4.6875 C-2.33617187 3.80449219 -1.79734375 2.92148437 -1.2421875 2.01171875 C-0.83226562 1.34785156 -0.42234375 0.68398438 0 0 Z " fill="#290B02" transform="translate(586,669)"/>
<path d="M0 0 C0.33 0.66 0.66 1.32 1 2 C-0.99165738 4.98748606 -1.81244309 5.70138632 -4.875 7.25 C-5.55304688 7.60578125 -6.23109375 7.9615625 -6.9296875 8.328125 C-9.36680914 9.11903995 -10.61519919 8.83414558 -13 8 C-12.14535156 7.50628906 -11.29070312 7.01257813 -10.41015625 6.50390625 C-9.30542969 5.86324219 -8.20070313 5.22257813 -7.0625 4.5625 C-5.96035156 3.92441406 -4.85820312 3.28632812 -3.72265625 2.62890625 C-1.1716429 1.25289773 -1.1716429 1.25289773 0 0 Z " fill="#D36533" transform="translate(491,559)"/>
<path d="M0 0 C0 3.55955169 -0.89341295 4.27899173 -3 7 C-3 7.66 -3 8.32 -3 9 C-3.804375 9.12375 -4.60875 9.2475 -5.4375 9.375 C-6.283125 9.58125 -7.12875 9.7875 -8 10 C-8.33 10.66 -8.66 11.32 -9 12 C-9.99 11.67 -10.98 11.34 -12 11 C-8.04 7.37 -4.08 3.74 0 0 Z " fill="#CD6734" transform="translate(505,547)"/>
<path d="M0 0 C0.33 1.32 0.66 2.64 1 4 C0.34 4 -0.32 4 -1 4 C-1.144375 4.78375 -1.28875 5.5675 -1.4375 6.375 C-2 9 -2 9 -3 11 C-3.66 11 -4.32 11 -5 11 C-5.2165625 11.928125 -5.2165625 11.928125 -5.4375 12.875 C-6 15 -6 15 -7 17 C-7.66 16.67 -8.32 16.34 -9 16 C-6.03 10.72 -3.06 5.44 0 0 Z " fill="#C9632F" transform="translate(210,135)"/>
<path d="M0 0 C0.99 0.33 1.98 0.66 3 1 C0.36 5.62 -2.28 10.24 -5 15 C-6.39195915 10.82412255 -4.82323219 8.86525224 -3 5 C-2.34 5 -1.68 5 -1 5 C-0.67 3.35 -0.34 1.7 0 0 Z " fill="#260901" transform="translate(156,228)"/>
<path d="M0 0 C7.10054603 0.25680094 12.09755529 0.93387143 18 5 C18 5.33 18 5.66 18 6 C16.35 6 14.7 6 13 6 C13 5.34 13 4.68 13 4 C12.34 3.87625 11.68 3.7525 11 3.625 C7.30301417 2.85479462 3.65994058 1.93049337 0 1 C0 0.67 0 0.34 0 0 Z " fill="#2B0901" transform="translate(322,221)"/>
<path d="M0 0 C3.25809569 3.25809569 4.86594915 5.95266218 7 10 C7 10.66 7 11.32 7 12 C6.34 12 5.68 12 5 12 C4.67 11.01 4.34 10.02 4 9 C2.68 9 1.36 9 0 9 C0 6.03 0 3.06 0 0 Z " fill="#1F0501" transform="translate(210,667)"/>
<path d="M0 0 C0.8971875 0.309375 0.8971875 0.309375 1.8125 0.625 C0.42591021 1.78200194 -0.97222441 2.92517623 -2.375 4.0625 C-3.15230469 4.70058594 -3.92960937 5.33867188 -4.73046875 5.99609375 C-7.29575071 7.69676557 -9.16078271 8.24330031 -12.1875 8.625 C-12.1875 7.965 -12.1875 7.305 -12.1875 6.625 C-9.8775 5.965 -7.5675 5.305 -5.1875 4.625 C-5.1875 3.635 -5.1875 2.645 -5.1875 1.625 C-2.1875 -0.375 -2.1875 -0.375 0 0 Z " fill="#D16735" transform="translate(450.1875,512.375)"/>
<path d="M0 0 C3.67286149 4.54735232 6.14422708 9.18074417 7 15 C3.773655 11.19752197 1.22464781 7.44929561 -1 3 C-0.67 2.01 -0.34 1.02 0 0 Z " fill="#C6642D" transform="translate(82,441)"/>
<path d="M0 0 C2.94995547 3.45856848 5.22675738 6.80021485 7 11 C6.67 11.66 6.34 12.32 6 13 C3.12785459 11.27671275 2.08251692 10.19391477 0.75 7.0625 C0 4 0 4 0 0 Z " fill="#D2672D" transform="translate(678,296)"/>
<path d="M0 0 C0.66 0 1.32 0 2 0 C0.35821735 4.77609498 -2.26546702 8.79382904 -5 13 C-5.33 11.68 -5.66 10.36 -6 9 C-5.34 9 -4.68 9 -4 9 C-4 8.01 -4 7.02 -4 6 C-3.34 6 -2.68 6 -2 6 C-2 5.01 -2 4.02 -2 3 C-1.34 3 -0.68 3 0 3 C0 2.01 0 1.02 0 0 Z " fill="#CC682E" transform="translate(661,538)"/>
<path d="M0 0 C1.65 0 3.3 0 5 0 C3.6302836 3.99500618 1.74277578 6.80009492 -1 10 C-1 8.68 -1 7.36 -1 6 C-0.34 6 0.32 6 1 6 C0.67 4.02 0.34 2.04 0 0 Z " fill="#D5652C" transform="translate(664,528)"/>
<path d="M0 0 C1.26065117 3.78195352 0.5633162 4.40437273 -1 8 C-2.03470504 10.98858979 -3.01759823 13.99385058 -4 17 C-4.66 17 -5.32 17 -6 17 C-4.89061647 10.69403048 -3.06802099 5.62470514 0 0 Z " fill="#C86530" transform="translate(361,399)"/>
<path d="M0 0 C0.99 0.33 1.98 0.66 3 1 C1.85821872 2.66944521 0.71147095 4.3354948 -0.4375 6 C-1.07558594 6.928125 -1.71367187 7.85625 -2.37109375 8.8125 C-2.90863281 9.534375 -3.44617188 10.25625 -4 11 C-4.33 11 -4.66 11 -5 11 C-5 9.35 -5 7.7 -5 6 C-4.360625 5.7525 -3.72125 5.505 -3.0625 5.25 C-0.81258459 4.18437567 -0.81258459 4.18437567 -0.25 1.875 C-0.1675 1.25625 -0.085 0.6375 0 0 Z " fill="#260904" transform="translate(366,388)"/>
<path d="M0 0 C0 0.99 0 1.98 0 3 C-4.64989846 4.23997292 -8.22200653 3.70785088 -13 3 C-13 2.67 -13 2.34 -13 2 C-11.39658445 1.66307215 -9.79223445 1.33058907 -8.1875 1 C-7.29417969 0.814375 -6.40085937 0.62875 -5.48046875 0.4375 C-3 0 -3 0 0 0 Z " fill="#320F06" transform="translate(435,523)"/>
<path d="M0 0 C0 0.99 0 1.98 0 3 C-6.435 3.495 -6.435 3.495 -13 4 C-8.68630028 1.12420019 -5.19265239 0 0 0 Z " fill="#2F0E02" transform="translate(406,316)"/>
<path d="M0 0 C0.66 0.33 1.32 0.66 2 1 C-0.31 4.96 -2.62 8.92 -5 13 C-5.33 12.01 -5.66 11.02 -6 10 C-5.01439389 8.65599167 -4.01241685 7.32392972 -3 6 C-2.65179959 4.33637583 -2.31595508 2.67004829 -2 1 C-1.34 0.67 -0.68 0.34 0 0 Z " fill="#D56A38" transform="translate(597,647)"/>
<path d="M0 0 C1.9375 1.3125 1.9375 1.3125 4 4 C4.6575225 7.65582511 4.87210648 11.29108788 5 15 C3.39282229 12.58923344 2.38457485 10.71900755 1.375 8.0625 C0.98441406 7.05896484 0.98441406 7.05896484 0.5859375 6.03515625 C0 4 0 4 0 0 Z " fill="#C8652C" transform="translate(531,381)"/>
<path d="M0 0 C0.66 0.33 1.32 0.66 2 1 C0.35 4.3 -1.3 7.6 -3 11 C-5 7 -5 7 -5 5 C-4.01 5 -3.02 5 -2 5 C-1.34 3.35 -0.68 1.7 0 0 Z " fill="#220601" transform="translate(219,115)"/>
<path d="M0 0 C0.75 1.625 0.75 1.625 1 4 C-0.8125 7.25 -0.8125 7.25 -3 10 C-3.66 10 -4.32 10 -5 10 C-3.66511872 6.40608886 -2.03977277 3.24509304 0 0 Z " fill="#250A00" transform="translate(694,486)"/>
<path d="M0 0 C7.66742597 5.96583144 7.66742597 5.96583144 9 11 C7.68 11 6.36 11 5 11 C4.9175 10.2575 4.835 9.515 4.75 8.75 C3.85719701 5.47638903 2.43761211 4.28034682 0 2 C0 1.34 0 0.68 0 0 Z " fill="#D76C37" transform="translate(455,385)"/>
<path d="M0 0 C2.0625 2.3125 2.0625 2.3125 4 5 C3.67 5.99 3.34 6.98 3 8 C1.68 7.67 0.36 7.34 -1 7 C-0.67 4.69 -0.34 2.38 0 0 Z " fill="#E26B2D" transform="translate(707,348)"/>
<path d="M0 0 C0.99 0.33 1.98 0.66 3 1 C0.36 3.64 -2.28 6.28 -5 9 C-5.33 7.68 -5.66 6.36 -6 5 C-5.38125 4.731875 -4.7625 4.46375 -4.125 4.1875 C-1.7004767 3.04443152 -1.7004767 3.04443152 0 0 Z " fill="#230503" transform="translate(509,540)"/>
<path d="M0 0 C0.99 0 1.98 0 3 0 C1.66511872 3.59391114 0.03977277 6.75490696 -2 10 C-3.33332095 7.3333581 -2.67102033 5.83319697 -2 3 C-1.34 3 -0.68 3 0 3 C0 2.01 0 1.02 0 0 Z " fill="#D5692D" transform="translate(676,511)"/>
<path d="M0 0 C0.99 0.33 1.98 0.66 3 1 C0.03 5.95 0.03 5.95 -3 11 C-3.66 10.34 -4.32 9.68 -5 9 C-4.360625 8.071875 -3.72125 7.14375 -3.0625 6.1875 C-0.91377907 3.15780057 -0.91377907 3.15780057 0 0 Z " fill="#CF6834" transform="translate(713,449)"/>
<path d="M0 0 C1.2077558 3.62326739 0.54311128 4.64146369 -1 8 C-1.66 8 -2.32 8 -3 8 C-3.66 9.65 -4.32 11.3 -5 13 C-5.33 12.34 -5.66 11.68 -6 11 C-4.78515625 8.3984375 -4.78515625 8.3984375 -3.0625 5.375 C-2.21365234 3.87066406 -2.21365234 3.87066406 -1.34765625 2.3359375 C-0.90292969 1.56507813 -0.45820313 0.79421875 0 0 Z " fill="#D26B34" transform="translate(195,162)"/>
<path d="M0 0 C0.99 0 1.98 0 3 0 C1.6302836 3.99500618 -0.25722422 6.80009492 -3 10 C-2.21302675 6.58978257 -1.12880057 3.31114834 0 0 Z " fill="#D56832" transform="translate(620,606)"/>
<path d="M0 0 C0.33 0.66 0.66 1.32 1 2 C0.328125 3.875 0.328125 3.875 -0.75 6 C-1.26820313 7.051875 -1.26820313 7.051875 -1.796875 8.125 C-3 10 -3 10 -6 12 C-4.43358249 7.69235185 -2.31663844 3.93828536 0 0 Z " fill="#2C0B01" transform="translate(629,596)"/>
<path d="M0 0 C0.66 0 1.32 0 2 0 C0.66511872 3.59391114 -0.96022723 6.75490696 -3 10 C-3.33 8.68 -3.66 7.36 -4 6 C-3.34 6 -2.68 6 -2 6 C-2 4.68 -2 3.36 -2 2 C-1.34 2 -0.68 2 0 2 C0 1.34 0 0.68 0 0 Z " fill="#CD6830" transform="translate(687,494)"/>
<path d="M0 0 C1.98 0.495 1.98 0.495 4 1 C2.68 3.31 1.36 5.62 0 8 C-0.33 8 -0.66 8 -1 8 C-0.67 5.36 -0.34 2.72 0 0 Z " fill="#D2692F" transform="translate(700,469)"/>
<path d="M0 0 C0.33 0 0.66 0 1 0 C1 1.65 1 3.3 1 5 C0.34 5 -0.32 5 -1 5 C-1.66 7.31 -2.32 9.62 -3 12 C-3.66 11.67 -4.32 11.34 -5 11 C-3.55049545 7.2089881 -1.84827434 3.6125362 0 0 Z " fill="#C86434" transform="translate(122,294)"/>
<path d="M0 0 C1.32 0 2.64 0 4 0 C4 1.98 4 3.96 4 6 C4.66 6 5.32 6 6 6 C5.67 7.32 5.34 8.64 5 10 C3.35 6.7 1.7 3.4 0 0 Z " fill="#D36833" transform="translate(163,584)"/>
<path d="M0 0 C0.66 0.66 1.32 1.32 2 2 C0.35 4.97 -1.3 7.94 -3 11 C-3.33 9.68 -3.66 8.36 -4 7 C-3.34 7 -2.68 7 -2 7 C-1.855625 6.21625 -1.71125 5.4325 -1.5625 4.625 C-1 2 -1 2 0 0 Z " fill="#CE6B32" transform="translate(653,551)"/>
<path d="M0 0 C0.66 0 1.32 0 2 0 C2 0.66 2 1.32 2 2 C2.66 2 3.32 2 4 2 C4.66 4.31 5.32 6.62 6 9 C5.34 9 4.68 9 4 9 C0 2.25 0 2.25 0 0 Z " fill="#C86130" transform="translate(169,594)"/>
<path d="M0 0 C0.66 0 1.32 0 2 0 C0.66511872 3.59391114 -0.96022723 6.75490696 -3 10 C-3.6875 8.1875 -3.6875 8.1875 -4 6 C-2.625 4.4375 -2.625 4.4375 -1 3 C-0.67 2.01 -0.34 1.02 0 0 Z " fill="#D56A36" transform="translate(727,426)"/>
<path d="M0 0 C1.98 0.99 1.98 0.99 4 2 C4 2.99 4 3.98 4 5 C4.66 5 5.32 5 6 5 C6 6.65 6 8.3 6 10 C3.47650757 6.87567603 1.72743854 3.61939504 0 0 Z " fill="#290802" transform="translate(665,272)"/>
<path d="M0 0 C2.35171131 0.59861742 4.6859378 1.26924352 7 2 C7.33 2.66 7.66 3.32 8 4 C1.25 3.25 1.25 3.25 -1 1 C-0.67 0.67 -0.34 0.34 0 0 Z " fill="#2A0902" transform="translate(390,572)"/>
<path d="M0 0 C0.66 0.33 1.32 0.66 2 1 C0.9375 2.9375 0.9375 2.9375 -1 5 C-4.6875 5.75 -4.6875 5.75 -8 6 C-5.33333333 4 -2.66666667 2 0 0 Z " fill="#2C0D03" transform="translate(448,515)"/>
<path d="M0 0 C0.66 0 1.32 0 2 0 C0.515 6.435 0.515 6.435 -1 13 C-1.33 13 -1.66 13 -2 13 C-1.85966889 11.02043559 -1.7125877 9.04134859 -1.5625 7.0625 C-1.48128906 5.96035156 -1.40007812 4.85820312 -1.31640625 3.72265625 C-1 1 -1 1 0 0 Z " fill="#350E04" transform="translate(354,412)"/>
<path d="M0 0 C4.42857143 5.14285714 4.42857143 5.14285714 5 9 C4.01 9.495 4.01 9.495 3 10 C3 8.68 3 7.36 3 6 C2.01 5.67 1.02 5.34 0 5 C0 3.35 0 1.7 0 0 Z " fill="#C76339" transform="translate(736,399)"/>
<path d="M0 0 C0.66 0 1.32 0 2 0 C2.33 1.32 2.66 2.64 3 4 C3.66 4 4.32 4 5 4 C5 5.32 5 6.64 5 8 C4.34 8 3.68 8 3 8 C0 2.25 0 2.25 0 0 Z " fill="#2C0B01" transform="translate(466,397)"/>
<path d="M0 0 C2.40072955 2.88087546 4.47291037 5.56404834 6 9 C4.68 8.67 3.36 8.34 2 8 C2 6.68 2 5.36 2 4 C1.34 4 0.68 4 0 4 C0 2.68 0 1.36 0 0 Z " fill="#CC6633" transform="translate(693,323)"/>
<path d="M0 0 C2.64 0 5.28 0 8 0 C7.67 0.66 7.34 1.32 7 2 C4.35139573 2.59355614 1.70802678 2.74209269 -1 3 C-0.67 2.01 -0.34 1.02 0 0 Z " fill="#130200" transform="translate(260,221)"/>
<path d="M0 0 C0.66 0 1.32 0 2 0 C4.26396123 2.53563658 5.40312566 4.65750371 6 8 C5.01 8.495 5.01 8.495 4 9 C2.68 6.03 1.36 3.06 0 0 Z " fill="#220801" transform="translate(631,211)"/>
<path d="M0 0 C0.99 0 1.98 0 3 0 C2.40072174 3.35595828 1.15377564 5.37801226 -1 8 C-0.67 5.36 -0.34 2.72 0 0 Z " fill="#DE6A32" transform="translate(604,632)"/>
<path d="M0 0 C1 3 1 3 -0.25 5.5625 C-2 8 -2 8 -5 10 C-3.66511872 6.40608886 -2.03977277 3.24509304 0 0 Z " fill="#290A03" transform="translate(669,528)"/>
<path d="M0 0 C2.97 0.495 2.97 0.495 6 1 C6 2.65 6 4.3 6 6 C3.97945196 4.35830472 1.97956942 2.69088222 0 1 C0 0.67 0 0.34 0 0 Z " fill="#CF672E" transform="translate(368,505)"/>
<path d="M0 0 C1.32 0 2.64 0 4 0 C4 2.64 4 5.28 4 8 C1.84622436 5.37801226 0.59927826 3.35595828 0 0 Z " fill="#D46C35" transform="translate(64,412)"/>
<path d="M0 0 C1.98 0.495 1.98 0.495 4 1 C3.01 2.98 2.02 4.96 1 7 C-0.0625 5.1875 -0.0625 5.1875 -1 3 C-0.67 2.01 -0.34 1.02 0 0 Z " fill="#280C03" transform="translate(113,304)"/>
</svg>
