<?xml version="1.0" encoding="UTF-8"?>
<svg version="1.1" xmlns="http://www.w3.org/2000/svg" width="800" height="800">
<path d="M0 0 C0.82290527 0.42249023 1.64581055 0.84498047 2.49365234 1.28027344 C20.06437503 10.41719648 36.58838319 21.58154844 52 34 C52.91523437 34.72316406 53.83046875 35.44632812 54.7734375 36.19140625 C72.27518751 50.20785074 89.3227878 66.20914352 103 84 C104.19496094 85.45212891 104.19496094 85.45212891 105.4140625 86.93359375 C118.29399634 102.65238001 129.61781705 119.97633276 139 138 C139.49306641 138.94069336 139.49306641 138.94069336 139.99609375 139.90039062 C142.42149784 144.55773272 144.72595417 149.26729145 147 154 C147.35030273 154.71510742 147.70060547 155.43021484 148.06152344 156.16699219 C162.80497751 186.43544911 171.71422199 219.68932318 176 253 C176.08687073 253.6643103 176.17374146 254.32862061 176.26324463 255.01306152 C177.97140319 268.38929768 178.40038062 281.64883286 178.375 295.125 C178.37478851 296.16881836 178.37457703 297.21263672 178.37435913 298.28808594 C178.33715399 316.80108131 177.1135517 334.74849811 174 353 C173.81808105 354.07991211 173.63616211 355.15982422 173.44873047 356.27246094 C163.27093189 414.5014748 136.39516333 467.41963046 98.91015625 512.66015625 C97.67860596 514.1687424 96.49383634 515.71736864 95.37109375 517.30859375 C94.91863281 517.86675781 94.46617187 518.42492187 94 519 C93.34 519 92.68 519 92 519 C91.75846191 519.56678467 91.51692383 520.13356934 91.26806641 520.7175293 C89.74816896 523.45328617 87.9300479 525.3121634 85.7109375 527.51953125 C84.85113281 528.37740234 83.99132812 529.23527344 83.10546875 530.11914062 C82.20441406 531.00794922 81.30335938 531.89675781 80.375 532.8125 C79.49714844 533.68970703 78.61929688 534.56691406 77.71484375 535.47070312 C72.63588281 540.51570371 67.4521694 545.36207607 62 550 C61.08476563 550.79664063 60.16953125 551.59328125 59.2265625 552.4140625 C29.70629806 577.5018548 -4.62654699 596.82157068 -41 610 C-42.04961914 610.3825293 -43.09923828 610.76505859 -44.18066406 611.15917969 C-45.75219238 611.7107373 -45.75219238 611.7107373 -47.35546875 612.2734375 C-48.76735474 612.77109619 -48.76735474 612.77109619 -50.20776367 613.27880859 C-56.30167193 614.85277073 -61.81229786 614.03418647 -67.4375 611.375 C-72.02486711 607.1232939 -74.18580962 603.21975967 -74.49206543 597.0206604 C-74.50909542 595.07846149 -74.50449777 593.13599577 -74.48242188 591.19384766 C-74.48633438 590.12773254 -74.49024689 589.06161743 -74.49427795 587.9631958 C-74.50024154 585.65465509 -74.49710363 583.3460767 -74.4858551 581.03755569 C-74.46853788 577.36912783 -74.47613481 573.70148445 -74.4901123 570.03305054 C-74.51971298 560.91473214 -74.506638 551.79656437 -74.49493408 542.67822266 C-74.48668217 534.9802608 -74.49488117 527.28264187 -74.52406311 519.58472824 C-74.53108733 515.99714745 -74.5145612 512.41019365 -74.49694824 508.82266235 C-74.49973678 493.52651315 -75.2184303 478.35238773 -82.75 464.625 C-83.08854004 463.97635986 -83.42708008 463.32771973 -83.77587891 462.65942383 C-86.97750721 456.69194851 -90.84119003 451.3400682 -95 446 C-95.66 445.01 -96.32 444.02 -97 443 C-90.83394967 441.02303189 -84.64620873 440.12222576 -78.25 439.1875 C-39.66660494 433.24597194 0.96394051 418.21831706 25.0390625 385.77978516 C27.09936502 382.90025958 29.06105238 379.96211133 31 377 C31.62519531 376.07058594 32.25039063 375.14117187 32.89453125 374.18359375 C54.08338597 340.55884235 60.70582113 287.59649646 52.03515625 248.91015625 C51.70152691 247.60380027 51.35605659 246.30042231 51 245 C50.80132324 244.27151855 50.60264648 243.54303711 50.39794922 242.79248047 C45.4894754 225.50068096 37.55105094 208.33928448 25.4375 194.9375 C22.05410846 190.77684283 22.05410846 190.77684283 21.8359375 187.64453125 C22.36163769 185.00310327 23.13517572 182.55049872 24 180 C30.88856312 154.33672563 28.45862437 128.59242335 19 104 C19 103.01 19 102.02 19 101 C-9.1626199 99.32513053 -35.58303911 112.38674204 -59.0703125 126.54296875 C-59.71250732 126.92638428 -60.35470215 127.3097998 -61.01635742 127.70483398 C-63.0692979 128.9935982 -63.0692979 128.9935982 -65.0715332 130.70336914 C-68.28014933 133.23906566 -70.58733585 134.97144244 -74.765625 135.0559082 C-77.89201632 134.57012704 -80.87894811 133.8714452 -83.9375 133.0625 C-86.16878499 132.54477662 -88.40056018 132.02916155 -90.6328125 131.515625 C-91.71981445 131.25330078 -92.80681641 130.99097656 -93.92675781 130.72070312 C-114.1343703 125.98183499 -134.93104344 124.60271603 -155.625 124.6875 C-156.53487671 124.68899048 -157.44475342 124.69048096 -158.38220215 124.6920166 C-173.43762293 124.7361095 -188.12093499 125.54351453 -203 128 C-203.9782373 128.16048828 -204.95647461 128.32097656 -205.96435547 128.48632812 C-208.87519658 128.97457972 -211.78177809 129.48220784 -214.6875 130 C-216.05285889 130.23928223 -216.05285889 130.23928223 -217.44580078 130.48339844 C-221.40662159 131.20832127 -225.19703809 131.9977878 -228.99609375 133.34375 C-235.01239541 135.26067712 -239.02207774 135.77529805 -244.6953125 132.86328125 C-249.08309126 130.32413879 -253.27569822 127.50686424 -257.47119141 124.66455078 C-279.78836405 109.97460262 -304.43167041 101.93278639 -331 101 C-331.11472656 101.66773438 -331.22945312 102.33546875 -331.34765625 103.0234375 C-332.14031897 106.64025782 -333.28714021 110.11089293 -334.4375 113.625 C-341.58307728 136.03775043 -341.69934448 159.19319864 -335.23339844 181.7722168 C-333.5392673 187.88633293 -333.5392673 187.88633293 -335 191 C-336.4246253 192.91676858 -337.91422064 194.78565799 -339.4375 196.625 C-364.94941567 228.76344733 -369.11317636 268.52575897 -365.23022461 308.16870117 C-360.66792523 346.94040689 -346.19418659 383.27301789 -315 408 C-288.18964975 428.40143791 -255.13875345 436.22551103 -222.36230469 440.61450195 C-220 441 -220 441 -217 442 C-218.47116979 445.31013203 -220.37919251 447.71290922 -222.75 450.4375 C-230.04818206 459.44433086 -236.13134202 471.98813691 -235.9375 483.8125 C-237.28863287 487.8658986 -238.54380426 488.26332365 -242.25 490.25 C-260.23364602 498.14422959 -280.47398121 498.38279241 -299 492 C-314.51779901 485.82491255 -326.16807277 474.83410801 -335.1015625 460.921875 C-346.32634402 443.64587381 -360.128192 433.2687707 -380.2421875 428.1796875 C-386.44986002 426.93183476 -392.02585827 426.58891141 -398 429 C-398.66 429.66 -399.32 430.32 -400 431 C-399.82269529 434.01418008 -399.33829938 435.59601142 -397.390625 437.921875 C-392.96930607 441.69774591 -388.46441073 445.08430119 -383.625 448.3125 C-366.26304012 459.97083035 -355.87166959 476.71854123 -349.0625 496.1875 C-346.83252928 502.55392877 -343.89752382 507.56365133 -339.63671875 512.86328125 C-338 515 -338 515 -337 518 C-336.34 518 -335.68 518 -335 518 C-333.85610478 519.14389522 -332.71505342 520.29073277 -331.5859375 521.44921875 C-315.22849622 537.44405665 -293.91477273 542.14445346 -271.75 542.25 C-270.71359375 542.270625 -269.6771875 542.29125 -268.609375 542.3125 C-258.23660818 542.36236907 -248.20219973 540.69737978 -238 539 C-237.9070114 546.94557015 -237.83609001 554.89091009 -237.79275131 562.83689117 C-237.7719429 566.52719955 -237.74375081 570.21713358 -237.69824219 573.90722656 C-237.65454057 577.47342061 -237.63081224 581.03925631 -237.62049103 584.60569763 C-237.60958506 586.61750112 -237.57839809 588.62916196 -237.54681396 590.64074707 C-237.54504353 597.91108151 -237.95099922 602.87530668 -242 609 C-247.20736472 613.49824627 -251.92520632 613.96575495 -258.5703125 613.62890625 C-267.52333314 612.66172157 -275.83923892 608.57884245 -284 605 C-284.97743164 604.5771875 -285.95486328 604.154375 -286.96191406 603.71875 C-314.93506062 591.5399651 -341.34330382 576.37904701 -365 557 C-366.02351563 556.16726563 -367.04703125 555.33453125 -368.1015625 554.4765625 C-382.32388284 542.74809029 -396.01138867 530.01419203 -408 516 C-408.79019531 515.09894531 -409.58039063 514.19789063 -410.39453125 513.26953125 C-461.95024186 454.03736242 -490.19410516 375.88727611 -490.25 297.5625 C-490.25067474 296.70684448 -490.25134949 295.85118896 -490.25204468 294.96960449 C-490.1612534 221.93269028 -466.04130916 149.63493231 -421 92 C-419.90365234 90.58267578 -419.90365234 90.58267578 -418.78515625 89.13671875 C-414.76677298 84.02024263 -410.51963406 79.15476035 -406.1328125 74.3515625 C-404.31631319 72.34875556 -402.55945881 70.31299156 -400.8125 68.25 C-392.78875322 59.07202514 -384.05293844 50.54194998 -374.484375 42.9921875 C-372.20125694 41.16138528 -370.07496458 39.24662389 -367.9375 37.25 C-318.66100956 -6.99287045 -249.92472956 -30.70320436 -185 -37 C-184.29230469 -37.07057617 -183.58460938 -37.14115234 -182.85546875 -37.21386719 C-120.0047614 -43.16516162 -55.80241835 -28.69054227 0 0 Z " fill="#FFFFFF" transform="translate(555,104)"/>
</svg>
