<?xml version="1.0" encoding="UTF-8"?>
<svg version="1.1" xmlns="http://www.w3.org/2000/svg" width="800" height="800">
<path d="M0 0 C7.76499273 6.01160727 10.4384863 14.1327366 11.81640625 23.53125 C12.08495635 27.72000936 12.08536166 31.89411674 12.06808853 36.09041691 C12.07099541 37.32670665 12.07390229 38.5629964 12.07689726 39.83674946 C12.08292344 43.25754623 12.08004101 46.67812199 12.07334136 50.09890327 C12.06825547 53.82454301 12.07479273 57.55016572 12.07982802 61.27580303 C12.08704491 67.80191421 12.08683625 74.3279923 12.0817337 80.854105 C12.07416668 90.55863443 12.07803728 100.26313595 12.08415032 109.9676652 C12.09468181 127.29996314 12.09376904 144.63224634 12.08799249 161.96454568 C12.08296235 177.1316636 12.08164753 192.29877612 12.08403778 207.4658947 C12.08419055 208.47177529 12.08434332 209.47765588 12.08450072 210.5140177 C12.08512339 214.59715408 12.08576019 218.68029046 12.08642025 222.76342684 C12.09253875 261.06902657 12.08699044 299.37461692 12.07622645 337.68021521 C12.06673447 371.71804889 12.06758505 405.75586762 12.07714844 439.79370117 C12.08785567 478.03053595 12.09210556 516.26736242 12.08592391 554.50419849 C12.08528247 558.57960601 12.08465679 562.65501354 12.08403778 566.73042107 C12.08387963 567.73389965 12.08372147 568.73737824 12.08355852 569.77126527 C12.08128281 584.93014452 12.08394555 600.08901778 12.08899689 615.24789619 C12.09471111 632.48203979 12.09329487 649.71616633 12.0824354 666.95030779 C12.07655711 676.59769132 12.07618773 686.24503791 12.08372775 695.89242049 C12.08820755 702.33423117 12.08543036 708.77601221 12.07671821 715.21781849 C12.07195483 718.88954805 12.07034608 722.56120416 12.07753018 726.23293144 C12.08518975 730.18796826 12.07739893 734.14288901 12.06808853 738.09792423 C12.07277086 739.23778177 12.0774532 740.37763931 12.08227742 741.55203798 C12.025836 753.49807042 9.93708457 762.03702066 1.87890625 771.03125 C-12.7188179 784.89908794 -31.76419424 788.04349686 -51.0625 787.80859375 C-67.83729559 787.29153595 -81.57571358 780.51628151 -93.18359375 768.53125 C-100.02497817 760.62993278 -100.47629945 753.34178542 -100.44086266 743.29527664 C-100.44436873 742.04532976 -100.4478748 740.79538288 -100.45148712 739.50755882 C-100.46094961 736.02984991 -100.45794304 732.55224567 -100.45293158 729.07453159 C-100.44966756 725.29408382 -100.45794532 721.51365856 -100.46474993 717.73321795 C-100.47506418 711.10465318 -100.47789126 704.47611763 -100.47583771 697.84754562 C-100.47279142 687.99054361 -100.48110344 678.133574 -100.49158696 668.27657828 C-100.51094502 649.64856593 -100.51655585 631.02056457 -100.51770107 612.39254335 C-100.5186196 598.00871056 -100.52273333 583.6248821 -100.52910233 569.24105072 C-100.53089737 565.10306764 -100.532677 560.96508456 -100.53445208 556.82710147 C-100.53489418 555.79843232 -100.53533627 554.76976318 -100.53579177 553.70992224 C-100.54810297 524.76889169 -100.55599261 495.82786265 -100.55510521 466.88682938 C-100.55507405 465.79532679 -100.55504289 464.70382419 -100.55501079 463.57924577 C-100.55484457 458.04685698 -100.55464649 452.5144682 -100.55444138 446.98207942 C-100.55438154 445.33390422 -100.55438154 445.33390422 -100.5543205 443.65243256 C-100.55423962 441.43042386 -100.55415603 439.20841515 -100.55406971 436.98640644 C-100.55284408 402.41214477 -100.56785847 367.83792232 -100.59521484 333.26367188 C-100.62592554 294.43392158 -100.64314795 255.60419706 -100.6412884 216.77443385 C-100.64113913 212.63519335 -100.64104172 208.49595285 -100.64097977 204.35671234 C-100.64095646 203.33750052 -100.64093315 202.3182887 -100.64090913 201.26819167 C-100.64084755 184.85520756 -100.65362786 168.44225745 -100.6708443 152.02928346 C-100.68778513 135.53813321 -100.68978677 119.0470328 -100.67662565 102.55587867 C-100.66922615 92.75537963 -100.67292427 82.95503182 -100.69251033 73.15454875 C-100.70448712 66.60925917 -100.70194495 60.06407942 -100.68756934 53.51879493 C-100.67978682 49.78864874 -100.67831032 46.05879575 -100.69448404 42.32866994 C-100.71176031 38.3090786 -100.69806313 34.2901815 -100.68137169 30.27058792 C-100.69130805 29.11456621 -100.70124441 27.95854449 -100.71148187 26.76749182 C-100.62341012 16.76798145 -98.19563748 8.70247061 -91.22265625 1.34375 C-67.16905593 -20.03722807 -25.17506187 -16.93349421 0 0 Z " fill="#FFFFFF" transform="translate(285.18359375,12.46875)"/>
<path d="M0 0 C18.52044884 -0.46713298 34.73578516 3.89023169 50.3203125 13.93359375 C57.0557645 20.66904575 60.69453921 28.20136244 60.77946499 37.83744356 C60.7756402 38.53494275 60.77181541 39.23244193 60.76787472 39.95107746 C60.77168039 40.71254982 60.77548606 41.47402217 60.77940705 42.25856945 C60.78970303 44.8069147 60.78582037 47.35503639 60.78196716 49.90339661 C60.78642063 51.75022384 60.79173503 53.59704916 60.79783589 55.44387168 C60.81201293 60.5166699 60.81367923 65.58940683 60.81323898 70.66222203 C60.81488741 76.13406524 60.82795431 81.60588323 60.83943176 87.07771301 C60.86227739 99.04039799 60.87020167 111.00306522 60.87525821 122.96576905 C60.87851525 130.43497815 60.88503771 137.9041821 60.8922596 145.37338829 C60.9118237 166.05350103 60.92822944 186.73360898 60.93113613 207.41373158 C60.93123019 208.07493868 60.93132425 208.73614578 60.93142116 209.41738945 C60.93179964 212.09690608 60.93216364 214.7764227 60.93252414 217.45593932 C60.93279586 219.47266072 60.93307254 221.48938212 60.93334961 223.50610352 C60.93348164 224.50570611 60.93348164 224.50570611 60.93361634 225.5255027 C60.93652195 246.46536688 60.9586211 267.40513877 60.99487305 288.3449707 C61.03561009 311.87602871 61.05927519 335.40703965 61.05959564 358.93813723 C61.0601805 371.39546681 61.06869078 383.85267756 61.09759331 396.30997658 C61.1220867 406.91561118 61.12940369 417.5210836 61.11434578 428.12673882 C61.10716903 433.53763201 61.10806773 438.94820478 61.13075638 444.35906219 C61.15133558 449.31431297 61.14875564 454.26899678 61.12788153 459.22424134 C61.12438469 461.01491574 61.12930489 462.80563096 61.14358597 464.59625182 C61.21406994 474.04420682 61.10714384 482.0634714 55.5078125 490.12109375 C55.06250874 490.76944288 54.61720497 491.417792 54.15840715 492.08578807 C46.02331429 503.21990762 31.09690604 508.95722228 18.05786133 511.72851562 C13.11973101 512.48873712 8.18147388 512.44871249 3.1953125 512.43359375 C2.14408203 512.44970703 1.09285156 512.46582031 0.00976562 512.48242188 C-16.73324327 512.4927126 -31.04812415 506.7742787 -42.9140625 495 C-49.50011163 487.64557847 -51.61899377 480.0565583 -51.61523533 470.30716133 C-51.61722638 469.16311148 -51.61921743 468.01906163 -51.62126881 466.84034359 C-51.61835597 465.59326245 -51.61544313 464.3461813 -51.61244202 463.06130981 C-51.61287829 461.71557116 -51.61375424 460.36983258 -51.61503118 459.02409446 C-51.61726502 455.33212817 -51.61327004 451.64019095 -51.60825312 447.94822836 C-51.60393287 443.96465653 -51.60539617 439.98108633 -51.6061554 435.99751282 C-51.60667963 429.09768409 -51.6035433 422.19786483 -51.59791756 415.29803848 C-51.58978898 405.32205972 -51.58718594 395.34608553 -51.58592957 385.37010382 C-51.58374118 369.18455881 -51.57708688 352.99901884 -51.56762695 336.81347656 C-51.55844731 321.09114609 -51.55136918 305.36881699 -51.54711914 289.64648438 C-51.54685642 288.67728715 -51.54659369 287.70808993 -51.54632301 286.7095231 C-51.54501797 281.84732375 -51.54375426 276.9851244 -51.54251111 272.12292504 C-51.53214515 231.78897777 -51.51453263 191.45503605 -51.4921875 151.12109375 C-54.96073834 153.25267775 -58.42891163 155.3848747 -61.89677429 157.51757812 C-63.07015941 158.2390903 -64.2436378 158.96045081 -65.41722107 159.68164062 C-73.73506667 164.79331292 -82.02918902 169.94104636 -90.3046875 175.12109375 C-92.27730549 176.35422788 -94.24995625 177.58730958 -96.22265625 178.8203125 C-99.37671879 180.79335572 -102.52580527 182.77369697 -105.66796875 184.765625 C-106.81764768 185.48837774 -107.96738085 186.21104421 -109.1171875 186.93359375 C-110.03757812 187.51753906 -110.95796875 188.10148438 -111.90625 188.703125 C-121.09368018 193.74094548 -131.68752951 193.40149264 -141.59716797 190.73608398 C-161.58973384 184.64939394 -177.52627223 170.43392472 -187.3046875 152.12109375 C-192.81574404 140.20529583 -195.07759437 125.80958901 -191.3671875 112.93359375 C-187.26343445 103.82017391 -179.85961131 99.48444915 -171.4921875 94.55859375 C-169.73240099 93.50306199 -167.97542157 92.44295687 -166.21847534 91.38270569 C-165.02997166 90.66591531 -163.84061691 89.95053423 -162.65042114 89.23655701 C-157.1601181 85.93989981 -151.75638129 82.51721197 -146.3671875 79.05859375 C-135.80748418 72.30460367 -125.18327585 65.65697858 -114.54638672 59.02539062 C-109.42255899 55.83067789 -104.30075636 52.63272669 -99.1796875 49.43359375 C-98.17695801 48.80718994 -97.17422852 48.18078613 -96.14111328 47.53540039 C-90.0810449 43.74698909 -84.03165634 39.94224526 -77.9921875 36.12109375 C-67.77744742 29.66327256 -57.55509701 23.21868308 -47.28076172 16.85595703 C-44.74896653 15.28084439 -42.23116844 13.68558195 -39.71484375 12.0859375 C-27.03144959 4.15333393 -15.00640219 0.7291512 0 0 Z " fill="#FFFFFF" transform="translate(554.4921875,287.87890625)"/>
</svg>
