<?xml version="1.0" encoding="UTF-8"?>
<svg version="1.1" xmlns="http://www.w3.org/2000/svg" width="800" height="800">
<path d="M0 0 C1.13719482 0.00182281 2.27438965 0.00364563 3.44604492 0.00552368 C21.30783579 0.05358807 38.81135502 0.6468721 56.5 3.3125 C57.63018555 3.47878906 58.76037109 3.64507812 59.92480469 3.81640625 C88.12526138 8.09761137 115.85249457 15.12928502 142.5 25.3125 C143.96663086 25.87227539 143.96663086 25.87227539 145.46289062 26.44335938 C188.52179953 43.13263628 228.16521159 67.09907973 262.97216797 97.43017578 C265.41515618 99.55641398 267.80057091 101.51288061 270.5 103.3125 C270.5 103.9725 270.5 104.6325 270.5 105.3125 C271.07129639 105.5585498 271.64259277 105.80459961 272.23120117 106.05810547 C274.87992243 107.52255504 276.66685594 109.2368843 278.80078125 111.3828125 C280.01991211 112.60484375 280.01991211 112.60484375 281.26367188 113.8515625 C282.10478516 114.70492187 282.94589844 115.55828125 283.8125 116.4375 C284.64201172 117.26765625 285.47152344 118.0978125 286.32617188 118.953125 C290.71383414 123.37195455 294.9535992 127.86650957 299.01391602 132.58789062 C300.89641474 134.77254169 302.85485042 136.88269745 304.8125 139 C310.06550967 144.83766167 314.82114321 151.01416451 319.5 157.3125 C320.00047852 157.98313477 320.50095703 158.65376953 321.01660156 159.34472656 C360.59332802 212.57700867 386.44837362 274.14462852 396.75 339.6875 C396.90114258 340.6472876 397.05228516 341.6070752 397.20800781 342.59594727 C400.02573183 361.66328851 400.87389572 380.55375743 400.8125 399.8125 C400.80976578 401.59548492 400.80976578 401.59548492 400.80697632 403.41448975 C400.76100183 421.23671869 400.27598996 438.67887013 397.5 456.3125 C397.32839355 457.4454248 397.15678711 458.57834961 396.97998047 459.74560547 C386.63969508 526.58321422 360.22073399 590.88328294 318.5 644.3125 C317.63095245 645.44879223 316.76249305 646.58553445 315.89453125 647.72265625 C310.55425323 654.67118866 304.96463388 661.26237797 298.97265625 667.65625 C296.98316736 669.79345766 295.07155725 671.95874054 293.1875 674.1875 C285.93720609 682.5410995 277.9026378 690.49687942 269.453125 697.6328125 C267.08921528 699.66577486 264.8375012 701.8055378 262.5625 703.9375 C255.27129794 710.57500808 247.42931991 716.46300171 239.5 722.3125 C238.81131836 722.82071289 238.12263672 723.32892578 237.41308594 723.85253906 C209.68052787 744.17209832 179.52891096 760.84470401 147.5 773.3125 C146.47874023 773.71162598 145.45748047 774.11075195 144.40527344 774.52197266 C55.88422523 808.69960295 -44.77641107 810.00705667 -168.04296875 764.19580078 C-196.52625182 751.50494158 -223.00532223 734.54379858 -247.5 715.3125 C-248.96566406 714.16587891 -248.96566406 714.16587891 -250.4609375 712.99609375 C-256.69149479 708.00629213 -262.55192395 702.66276497 -268.37890625 697.21484375 C-271.04660888 694.72233837 -273.76358861 692.29208948 -276.5 689.875 C-285.37449416 681.91256641 -293.82951485 673.44323068 -301.5 664.3125 C-302.70849609 662.9203125 -302.70849609 662.9203125 -303.94140625 661.5 C-316.76073864 646.67931763 -327.88267624 630.76683587 -338.5 614.3125 C-338.91846191 613.66522949 -339.33692383 613.01795898 -339.76806641 612.35107422 C-379.94496798 549.53439282 -399.71288091 475.47895933 -399.75 401.3125 C-399.75067474 400.10386292 -399.75134949 398.89522583 -399.75204468 397.64996338 C-399.73609179 379.6679267 -399.3010004 362.10500109 -396.5 344.3125 C-396.24259033 342.61311279 -396.24259033 342.61311279 -395.97998047 340.87939453 C-381.89909162 249.86324702 -336.94762699 163.04019551 -263.5 98.3125 C-262.57058594 97.50554687 -261.64117187 96.69859375 -260.68359375 95.8671875 C-234.82190926 73.50164217 -205.92193718 55.722153 -175.5 40.3125 C-174.64164551 39.87260742 -173.78329102 39.43271484 -172.89892578 38.97949219 C-137.7982118 21.08825128 -98.98962403 10.17300168 -60.1875 4.0625 C-59.23633301 3.91143799 -58.28516602 3.76037598 -57.30517578 3.60473633 C-38.24264063 0.77740867 -19.24994611 -0.06437578 0 0 Z " fill="#9FEE00" transform="translate(399.5,-0.3125)"/>
<path d="M0 0 C2.1516829 1.01563497 4.20330229 2.13217043 6.26708984 3.31591797 C7.00910645 3.72495361 7.75112305 4.13398926 8.515625 4.55541992 C13.61951021 7.40009025 18.56621434 10.45894591 23.45458984 13.65966797 C26.7287051 15.74691645 30.11768636 17.56034709 33.54052734 19.39013672 C39.10351518 22.42622962 44.58647941 25.60272036 50.07910156 28.76391602 C54.50597772 31.30564117 58.94912286 33.80487107 63.43896484 36.23388672 C68.93755036 39.21908278 74.32797818 42.36733298 79.70458984 45.56591797 C81.13847046 46.41512817 81.13847046 46.41512817 82.60131836 47.28149414 C86.80683984 49.77510852 91.00636006 52.2775798 95.18505859 54.81591797 C101.93647709 58.91542794 108.74334071 62.78268321 115.74438477 66.44165039 C119.90788897 68.63729355 123.79509683 71.04594059 127.65087891 73.73657227 C130.04432203 75.31250085 132.48271799 76.67526568 135.00927734 78.02685547 C140.83706894 81.17856088 146.60019688 84.42641875 152.32958984 87.75341797 C153.28736328 88.29611328 154.24513672 88.83880859 155.23193359 89.39794922 C161.15668889 92.85062303 165.81161217 95.96746262 168.95458984 102.25341797 C169.0631328 104.77936304 169.1112098 107.27840285 169.11521912 109.80508423 C169.12285085 110.98749445 169.12285085 110.98749445 169.13063675 112.19379175 C169.14640243 114.84989582 169.15489718 117.5059726 169.16333008 120.16210938 C169.17286534 122.06073176 169.18275635 123.95935238 169.19297791 125.85797119 C169.22440488 132.1069532 169.24463631 138.35594869 169.26318359 144.60498047 C169.26648092 145.6676638 169.26977824 146.73034713 169.27317548 147.82523298 C169.30396128 157.84566327 169.33067263 167.8660965 169.34759426 177.88656044 C169.36949962 190.70871653 169.41146072 203.53045376 169.48103184 216.35244238 C169.52827305 225.36484507 169.55252813 234.37713476 169.55979115 243.38965738 C169.56474781 248.77354005 169.57983004 254.15695101 169.61953545 259.54069901 C169.65641632 264.60843098 169.66480656 269.67542215 169.65152931 274.74326324 C169.65158324 276.6008259 169.6618708 278.45842148 169.68328094 280.31586075 C169.86829913 297.27741346 169.86829913 297.27741346 164.5397501 302.93372154 C162.04689407 305.00910362 159.58334935 306.7621299 156.76708984 308.37841797 C156.20030518 308.70986816 155.63352051 309.04131836 155.04956055 309.3828125 C150.75047584 311.87641408 146.36202315 314.2104477 141.97802734 316.55029297 C137.47777123 319.08532096 133.13124599 321.85829093 128.78735352 324.65136719 C124.87176594 327.14601916 120.9123765 329.34977917 116.73803711 331.38232422 C113.85075514 332.7925668 111.06936665 334.37972199 108.27099609 335.95654297 C106.66225752 336.85721954 105.04428991 337.74152949 103.41943359 338.61279297 C102.19933594 339.27021484 102.19933594 339.27021484 100.95458984 339.94091797 C99.84083984 340.53453125 99.84083984 340.53453125 98.70458984 341.14013672 C96.79474124 342.1442655 96.79474124 342.1442655 95.95458984 344.25341797 C94.40169083 345.10323278 92.809081 345.88056192 91.20458984 346.62841797 C81.52018855 351.3499944 72.27599971 356.86077013 62.95458984 362.25341797 C61.21253709 363.25755801 59.47035294 364.26147016 57.72802734 365.26513672 C48.04999709 370.84535951 48.04999709 370.84535951 38.45458984 376.56591797 C34.39485314 379.02129137 30.25426547 381.29691692 26.07958984 383.55029297 C23.01737452 385.21920032 19.97383182 386.91746386 16.93554688 388.62939453 C15.53676609 389.41748572 14.13670678 390.20331214 12.73535156 390.98681641 C9.86315966 392.59524387 7.01647149 394.21533696 4.21240234 395.94091797 C-0.871584 399.03704806 -4.06716079 400.10745359 -10.04541016 399.25341797 C-12.8613713 398.14659595 -15.42731215 396.76047438 -18.04541016 395.25341797 C-19.3750036 394.57932339 -20.70737406 393.91059499 -22.04541016 393.25341797 C-22.04541016 392.59341797 -22.04541016 391.93341797 -22.04541016 391.25341797 C-22.87298828 391.01107422 -23.70056641 390.76873047 -24.55322266 390.51904297 C-28.61130238 389.04832951 -32.17523866 387.12910148 -35.92041016 385.00341797 C-36.68345459 384.57520752 -37.44649902 384.14699707 -38.23266602 383.70581055 C-46.08227728 379.27836463 -53.8617489 374.72809063 -61.6328125 370.16455078 C-66.65615143 367.21597782 -71.69579421 364.31106072 -76.79614258 361.49780273 C-87.57522663 355.53438241 -98.32455761 349.50553364 -108.63916016 342.76513672 C-112.1396571 340.56596088 -115.78586191 338.66259363 -119.43212891 336.71826172 C-121.88671787 335.34237105 -124.17222431 333.85632617 -126.48291016 332.25341797 C-129.73547179 330.0207566 -133.02565731 328.21160295 -136.57666016 326.49560547 C-142.90544033 323.36763759 -149.01486855 319.94026082 -155.10791016 316.37841797 C-156.10628906 315.80478516 -157.10466797 315.23115234 -158.13330078 314.64013672 C-177.67718668 303.25116233 -177.67718668 303.25116233 -181.04541016 296.25341797 C-181.33057074 293.5350598 -181.45527553 291.04928212 -181.43309021 288.33425903 C-181.43847575 287.54271671 -181.44386129 286.75117439 -181.44941002 285.93564594 C-181.46370433 283.2863657 -181.4565823 280.63758408 -181.44946289 277.98828125 C-181.45516574 276.08759153 -181.46212966 274.18690524 -181.47026062 272.28622437 C-181.48821776 267.12500871 -181.48701868 261.96396284 -181.48131824 256.80272532 C-181.47822971 252.49356258 -181.48431518 248.18443261 -181.49035698 243.87527454 C-181.50440934 233.70848869 -181.50283533 223.54178684 -181.49145508 213.375 C-181.47997619 202.88840311 -181.49404414 192.40206203 -181.52085155 181.91549885 C-181.54300879 172.91067393 -181.54964578 163.90592931 -181.54377514 154.90107906 C-181.54040406 149.52356078 -181.5428306 144.14620644 -181.56002617 138.76871109 C-181.57549324 133.71087109 -181.57154224 128.65340989 -181.55272102 123.59558487 C-181.54903434 121.74085564 -181.55214593 119.88609836 -181.56260681 118.03139496 C-181.57581335 115.49600863 -181.56427283 112.96187693 -181.5466156 110.42654419 C-181.55622061 109.69550071 -181.56582561 108.96445723 -181.57572168 108.21126091 C-181.49724539 102.72086119 -180.07180169 99.6768105 -177.04541016 95.25341797 C-174.37353516 93.13623047 -174.37353516 93.13623047 -171.29541016 91.37841797 C-170.72814209 91.04801514 -170.16087402 90.7176123 -169.57641602 90.37719727 C-167.74309052 89.31647864 -165.89641336 88.28293292 -164.04541016 87.25341797 C-162.83290188 86.57030092 -161.62066352 85.88670456 -160.40869141 85.20263672 C-158.48596872 84.11999441 -156.56181117 83.04027195 -154.63354492 81.9675293 C-147.6852901 78.09205123 -140.85132059 74.02702337 -134.0222168 69.94604492 C-128.5995928 66.71742507 -123.12498226 63.62183915 -117.56420898 60.63696289 C-115.01668886 59.23764171 -112.52833979 57.7639534 -110.04541016 56.25341797 C-106.69516951 54.21802844 -103.31262773 52.29329977 -99.85791016 50.44091797 C-94.63883006 47.63121434 -89.57101252 44.60416595 -84.52319336 41.50024414 C-81.4339601 39.61723907 -78.33823629 37.87282598 -75.08447266 36.28857422 C-70.90524011 34.2391283 -67.02276653 31.82637153 -63.10791016 29.31591797 C-58.20604687 26.21247841 -53.30998388 23.16309668 -48.19775391 20.41357422 C-40.38689596 16.20336585 -32.71532654 11.76110902 -25.06298828 7.27099609 C-22.73366465 5.91364777 -20.39217493 4.58033412 -18.04541016 3.25341797 C-17.0111792 2.64457764 -17.0111792 2.64457764 -15.95605469 2.0234375 C-10.59879221 -0.94875132 -5.91681019 -2.1596569 0 0 Z " fill="#FDFEFA" transform="translate(406.04541015625,200.74658203125)"/>
<path d="M0 0 C2.56943207 1.2935457 4.9522229 2.75519417 7.37109375 4.3125 C9.80601778 5.87548244 12.25977242 7.2657029 14.8125 8.625 C20.43054439 11.65441623 25.96394246 14.82422451 31.5 18 C38.62282764 22.08470824 45.75639142 26.13221837 53 30 C53 30.66 53 31.32 53 32 C53.54366211 32.1043335 54.08732422 32.20866699 54.64746094 32.31616211 C57.56541166 33.1643543 59.97513516 34.48105809 62.640625 35.94140625 C64.24550781 36.81635742 64.24550781 36.81635742 65.8828125 37.70898438 C66.99398437 38.32064453 68.10515625 38.93230469 69.25 39.5625 C70.37664062 40.17802734 71.50328125 40.79355469 72.6640625 41.42773438 C75.44494687 42.94779405 78.22346327 44.47201773 81 46 C81 46.66 81 47.32 81 48 C81.57234375 48.12246094 82.1446875 48.24492187 82.734375 48.37109375 C85.09953191 49.02762868 87.07206797 49.93723512 89.25 51.0625 C89.95640625 51.42472656 90.6628125 51.78695312 91.390625 52.16015625 C91.92171875 52.43730469 92.4528125 52.71445312 93 53 C93 53.66 93 54.32 93 55 C93.5465625 55.10570312 94.093125 55.21140625 94.65625 55.3203125 C97.52256133 56.15154279 99.8881948 57.43276691 102.5 58.875 C103.4384375 59.38804687 104.376875 59.90109375 105.34375 60.4296875 C110.04934615 63.21152523 110.04934615 63.21152523 112 65 C112.7815534 70.47087379 112.7815534 70.47087379 112 73 C103.86119547 80.60704961 92.75989041 85.78479138 83 91 C81.43514989 91.84985356 79.87252423 92.70382 78.3125 93.5625 C77.66925781 93.91441406 77.02601563 94.26632812 76.36328125 94.62890625 C74.34638426 95.79903988 72.38281433 97.01742283 70.4140625 98.265625 C65.39651699 101.41766536 60.23245889 104.2947952 55.0625 107.1875 C48.04955878 111.13137283 41.05336479 115.09660654 34.125 119.1875 C33.45275391 119.58437012 32.78050781 119.98124023 32.08789062 120.39013672 C29.31882959 122.0281634 26.55257064 123.67082456 23.78857422 125.31738281 C18.87671087 128.24265146 13.95021816 131.14010782 9 134 C7.49373047 134.87785156 7.49373047 134.87785156 5.95703125 135.7734375 C2.30188283 137.77519806 -0.24539135 138.95883953 -4.4375 139.1875 C-9.65755407 137.44748198 -14.2752994 134.7938103 -19 132 C-19 131.34 -19 130.68 -19 130 C-19.55816406 129.88785156 -20.11632812 129.77570313 -20.69140625 129.66015625 C-28.96430711 127.29447056 -36.59327813 121.42738874 -43.83203125 116.9296875 C-47.43305278 114.73621693 -51.0966644 112.70937622 -54.8125 110.71875 C-59.12583254 108.39293343 -63.40567286 106.00819846 -67.6875 103.625 C-68.50307373 103.17141113 -69.31864746 102.71782227 -70.15893555 102.25048828 C-72.10617109 101.16737613 -74.05319306 100.08388227 -76 99 C-76 98.34 -76 97.68 -76 97 C-76.55429687 96.89042969 -77.10859375 96.78085937 -77.6796875 96.66796875 C-85.1477151 94.51808202 -92.10042267 89.39910596 -98.703125 85.3828125 C-100.78209121 84.13118999 -102.88100896 82.93208178 -105 81.75 C-108 80 -108 80 -110 78 C-110.78375 77.71125 -111.5675 77.4225 -112.375 77.125 C-115.47043004 75.79838713 -117.05584445 74.7666829 -119 72 C-119.3125 68.625 -119.3125 68.625 -118 65 C-111.37653236 59.3032974 -102.90278086 55.41591352 -95.3125 51.125 C-94.12287093 50.44952852 -92.93341706 49.77374841 -91.74414062 49.09765625 C-89.36621781 47.74626886 -86.98738396 46.39650595 -84.60791016 45.04785156 C-78.7297316 41.71412664 -72.86586351 38.35532869 -67 35 C-66.40627594 34.66179733 -65.81255188 34.32359467 -65.20083618 33.97514343 C-61.88691764 32.08644978 -58.58762533 30.17780033 -55.3125 28.22265625 C-44.5381587 21.81221844 -33.71097856 15.51729488 -22.765625 9.40258789 C-17.97879906 6.72071379 -13.28312983 3.97846946 -8.70605469 0.94995117 C-5.54462646 -0.81036898 -3.51445428 -0.66653443 0 0 Z " fill="#9FEE02" transform="translate(403,238)"/>
<path d="M0 0 C2.12017727 1.18979073 2.12017727 1.18979073 4 3 C4.50615788 5.41666985 4.50615788 5.41666985 4.5146637 8.33834839 C4.52738815 9.44591492 4.54011261 10.55348145 4.55322266 11.6946106 C4.54669678 12.91026703 4.5401709 14.12592346 4.53344727 15.37841797 C4.54637062 17.29823486 4.54637062 17.29823486 4.55955505 19.25683594 C4.58208579 22.76941368 4.57910056 26.28154162 4.57023358 29.79416418 C4.56512751 32.72656194 4.57241334 35.65887487 4.57970566 38.59126389 C4.59671726 45.51029931 4.59312738 52.42911428 4.57641602 59.34814453 C4.55950226 66.48458568 4.57531548 73.62041483 4.6076389 80.75678909 C4.63434073 86.88431158 4.641609 93.01164363 4.63312382 99.13921845 C4.62819509 102.79867828 4.63040622 106.45777007 4.65091133 110.11718369 C4.67268964 114.19944142 4.65386349 118.28054071 4.63110352 122.36279297 C4.64864182 124.18020493 4.64864182 124.18020493 4.66653442 126.03433228 C4.57330926 134.23562437 4.57330926 134.23562437 1.61729431 138.17678833 C0.75358719 138.77844818 -0.11011993 139.38010803 -1 140 C-1.82757812 140.59683594 -2.65515625 141.19367188 -3.5078125 141.80859375 C-8.87380763 145.14832505 -14.29065441 148.29626662 -19.86328125 151.27734375 C-23.72691247 153.39921345 -27.51910854 155.63061189 -31.3125 157.875 C-40.57898836 163.35379346 -49.91879735 168.6959014 -59.29296875 173.98828125 C-61.17449781 175.0546546 -63.05600824 176.12106083 -64.9375 177.1875 C-65.82598633 177.68685059 -66.71447266 178.18620117 -67.62988281 178.70068359 C-72.07159485 181.22190473 -76.26886596 183.85410731 -80.37963867 186.88110352 C-82.99942883 188.69012842 -85.818123 190.00863 -88.6875 191.375 C-94.45443873 194.14762632 -99.88281988 197.26500428 -105.28125 200.71484375 C-108.50130357 202.23696678 -110.47724408 202.45928404 -114 202 C-116.14905357 200.80996513 -116.14905357 200.80996513 -118 199 C-118.50895119 196.58333015 -118.50895119 196.58333015 -118.52139282 193.66165161 C-118.53556244 192.55408508 -118.54973206 191.44651855 -118.56433105 190.3053894 C-118.55937622 189.08973297 -118.55442139 187.87407654 -118.54931641 186.62158203 C-118.55953827 185.3417041 -118.56976013 184.06182617 -118.58029175 182.74316406 C-118.60709863 179.23060543 -118.60822621 175.71847682 -118.60316515 172.20583582 C-118.60102704 169.27343394 -118.61078923 166.34111932 -118.62037599 163.40873611 C-118.64257652 156.48970966 -118.64343618 149.57090032 -118.63134766 142.65185547 C-118.61927074 135.51533278 -118.64387925 128.37959898 -118.68648779 121.24321091 C-118.72172679 115.11568332 -118.73372141 108.98840674 -118.72721231 102.86078155 C-118.72358651 99.20124173 -118.72885728 95.54226436 -118.75664139 91.88281631 C-118.78647572 87.80042646 -118.7678544 83.71963968 -118.74462891 79.63720703 C-118.75991638 78.42559906 -118.77520386 77.21399109 -118.79095459 75.96566772 C-118.69030884 67.97917785 -118.69030884 67.97917785 -116.71712875 65.18029404 C-115.13583374 63.83078003 -115.13583374 63.83078003 -112 62 C-111.03707031 61.36320312 -110.07414062 60.72640625 -109.08203125 60.0703125 C-100.09969877 54.72598565 -90.98787483 49.63122194 -81.84005737 44.57614136 C-72.81113608 39.58667375 -63.86549614 34.4830669 -55.0078125 29.19580078 C-51.30555153 26.99083067 -47.58941709 24.80940606 -43.875 22.625 C-43.18776855 22.21983154 -42.50053711 21.81466309 -41.79248047 21.3972168 C-38.17078782 19.26432362 -34.53672006 17.15619303 -30.88427734 15.07617188 C-27.03841637 12.879676 -23.20795105 10.65641932 -19.375 8.4375 C-18.54226563 7.95603516 -17.70953125 7.47457031 -16.8515625 6.97851562 C-16.04203125 6.50994141 -15.2325 6.04136719 -14.3984375 5.55859375 C-13.24637817 4.8924707 -13.24637817 4.8924707 -12.07104492 4.21289062 C-10.39027778 3.22856301 -8.72903546 2.21094992 -7.07421875 1.18359375 C-4.46542305 -0.30504108 -2.9593824 -0.4552896 0 0 Z " fill="#9FEE01" transform="translate(537,345)"/>
<path d="M0 0 C1.69772218 0.94631769 3.36121137 1.95494039 5 3 C5.97195313 3.60457031 6.94390625 4.20914062 7.9453125 4.83203125 C9.51925781 5.81236328 9.51925781 5.81236328 11.125 6.8125 C15.93725237 9.78922762 20.81892572 12.57542225 25.8046875 15.25 C36.01529461 20.84211734 46.03840098 26.79004911 56 32.8125 C61.91232587 36.3822648 67.90159687 39.75894773 74 43 C75.33737124 43.7145974 76.67460091 44.4294598 78.01171875 45.14453125 C81.67218694 47.10067931 85.33545102 49.05150837 89 51 C89 51.66 89 52.32 89 53 C89.71285156 53.27199219 90.42570312 53.54398437 91.16015625 53.82421875 C94.02253553 55.00933039 96.70929526 56.34584809 99.4375 57.8125 C100.34371094 58.29332031 101.24992187 58.77414062 102.18359375 59.26953125 C103.11300781 59.84058594 104.04242188 60.41164063 105 61 C106.03273041 61.60004852 107.06546082 62.20009705 108.12948608 62.81832886 C110.30834538 64.68205097 110.93960013 65.72140629 111.55386734 68.55470657 C111.76999073 71.92869655 111.7872862 75.25640572 111.74462891 78.63720703 C111.75193024 79.9205896 111.75923157 81.20397217 111.76675415 82.52624512 C111.78553454 86.03883704 111.76675835 89.55031077 111.74008989 93.06281519 C111.71743036 96.73962187 111.72567798 100.41637474 111.72958374 104.0932312 C111.73134832 110.26530196 111.70921357 116.43693279 111.67236328 122.60888672 C111.62999171 129.74650022 111.62301663 136.88347026 111.6354872 144.02118409 C111.64687081 150.88822121 111.63559023 157.75503156 111.61314011 164.62203598 C111.60384683 167.54465805 111.60210083 170.46714148 111.6063118 173.38977432 C111.61077396 177.46738748 111.58188162 181.54409668 111.54931641 185.62158203 C111.55427124 186.83723846 111.55922607 188.0528949 111.56433105 189.3053894 C111.54307663 190.9667392 111.54307663 190.9667392 111.52139282 192.66165161 C111.51728708 193.62580553 111.51318134 194.58995945 111.50895119 195.58333015 C111 198 111 198 109.14124107 199.80630302 C106.13697879 201.48111622 104.41203208 201.46377135 101 201 C98.35726848 199.7590652 95.98243593 198.50124076 93.5 197 C92.79931396 196.59064209 92.09862793 196.18128418 91.37670898 195.75952148 C89.93561003 194.9173208 88.4973605 194.07022537 87.06201172 193.21826172 C84.08458437 191.45916126 81.07300696 189.76439353 78.0625 188.0625 C72.69217832 184.98581743 67.34035342 181.8784068 62 178.75 C60.94051147 178.13137085 60.94051147 178.13137085 59.85961914 177.50024414 C56.77129784 175.68481949 53.75368111 173.83538979 50.7734375 171.84375 C48.43009697 170.28592362 46.15329179 168.97055466 43.625 167.75 C42.93664062 167.41484375 42.24828125 167.0796875 41.5390625 166.734375 C40.77722656 166.37085938 40.77722656 166.37085938 40 166 C40 165.34 40 164.68 40 164 C38.69482422 163.87044922 38.69482422 163.87044922 37.36328125 163.73828125 C33.51632395 162.89382721 31.36858895 161.48282389 28.1875 159.1875 C23.30399626 155.79160539 18.54706404 153.1291761 13 151 C13 150.34 13 149.68 13 149 C12.30777344 148.73960937 11.61554688 148.47921875 10.90234375 148.2109375 C7.67083255 146.8626623 4.64409341 145.28739079 1.5625 143.625 C0.47066406 143.03976562 -0.62117188 142.45453125 -1.74609375 141.8515625 C-2.81988281 141.24054688 -3.89367187 140.62953125 -5 140 C-6.04240845 139.55978516 -7.08481689 139.11957031 -8.15881348 138.66601562 C-11.45985444 135.56849749 -11.46265729 134.87688555 -11.73498535 130.53466797 C-11.75853203 128.18728102 -11.74853446 125.83942192 -11.71289062 123.4921875 C-11.71697937 122.21055725 -11.72106812 120.928927 -11.72528076 119.60845947 C-11.73554454 116.09568928 -11.70849038 112.58409197 -11.67422676 109.07151031 C-11.64413894 105.3951963 -11.64650243 101.718897 -11.64489746 98.04248047 C-11.63751355 91.86861162 -11.60758844 85.69518766 -11.5625 79.52148438 C-11.50475504 71.59868782 -11.48405297 63.67624952 -11.4751358 55.75326538 C-11.46717209 48.94019443 -11.44216902 42.12720124 -11.41444206 35.3141861 C-11.40624987 33.1249662 -11.40039566 30.93574904 -11.39485168 28.746521 C-11.38323335 24.6668108 -11.35387357 20.58741671 -11.32226562 16.5078125 C-11.32002991 15.2941803 -11.31779419 14.0805481 -11.31549072 12.83013916 C-11.30407043 11.71975281 -11.29265015 10.60936646 -11.28088379 9.46533203 C-11.2719598 8.01853561 -11.2719598 8.01853561 -11.26285553 6.54251099 C-10.98714281 3.87563683 -10.44506187 2.24555775 -9 0 C-5.84760408 -1.57619796 -3.38428252 -0.68832865 0 0 Z " fill="#9FEE01" transform="translate(270,346)"/>
<path d="M0 0 C0.99 0.33 1.98 0.66 3 1 C3.04667308 18.43687945 3.08196577 35.87373947 3.10362434 53.31066704 C3.11394706 61.40651408 3.12802632 69.50232236 3.15087891 77.59814453 C3.17078241 84.65256562 3.18370919 91.70695864 3.18817699 98.76140702 C3.19078954 102.49840208 3.19695067 106.23531684 3.21146011 109.97228622 C3.22750743 114.13895007 3.22798165 118.30547335 3.22705078 122.47216797 C3.23424133 123.71797638 3.24143188 124.96378479 3.24884033 126.24734497 C3.246091 127.37759094 3.24334167 128.50783691 3.24050903 129.67233276 C3.24235262 130.65865126 3.24419621 131.64496975 3.24609566 132.66117668 C3 135 3 135 1 137 C0.01 136.67 -0.98 136.34 -2 136 C-1.34 135.01 -0.68 134.02 0 133 C0.29631055 130.47204155 0.29631055 130.47204155 0.24050903 127.59004211 C0.24325836 126.46683563 0.24600769 125.34362915 0.24884033 124.18638611 C0.24164978 122.95352371 0.23445923 121.72066132 0.22705078 120.45043945 C0.22734283 119.15277649 0.22763489 117.85511353 0.22793579 116.51812744 C0.22851028 112.95844603 0.21674046 109.39889904 0.20278788 105.8392489 C0.19029654 102.1196614 0.18911128 98.40007093 0.18673706 94.6804657 C0.18051759 87.63629995 0.16410047 80.59219618 0.14403808 73.54805773 C0.1216936 65.52880242 0.11068931 57.50954417 0.10064721 49.49026549 C0.07973463 32.99347403 0.0445496 16.49674492 0 0 Z " fill="#E7FCAB" transform="translate(540,347)"/>
<path d="M0 0 C0.99 0 1.98 0 3 0 C2.67 43.56 2.34 87.12 2 132 C1.34 132 0.68 132 0 132 C0 88.44 0 44.88 0 0 Z " fill="#E4FEA7" transform="translate(257,348)"/>
<path d="M0 0 C0.33 0 0.66 0 1 0 C1.04668525 25.35575065 1.08197179 50.71149487 1.10362434 76.06727982 C1.11394445 87.83995245 1.1280188 99.6125984 1.15087891 111.38525391 C1.17079031 121.6442427 1.18371109 131.90321218 1.18817699 142.16221976 C1.19078818 147.5961291 1.19694087 153.02998316 1.21146011 158.46387482 C1.22500848 163.57569979 1.2292282 168.68744658 1.22621536 173.7992878 C1.22676676 175.67785377 1.2307605 177.55642229 1.23841095 179.43497276 C1.24832923 181.99542127 1.2459803 184.55557276 1.24050903 187.11602783 C1.24633472 187.86311138 1.2521604 188.61019494 1.25816262 189.37991738 C1.23692911 193.0443754 1.19618025 195.96981714 -1 199 C-3.625 200.25 -3.625 200.25 -6 201 C-5.18860062 200.06414062 -4.37720123 199.12828125 -3.54121399 198.1640625 C0.7996799 191.13621004 -0.29984872 182.35182816 -0.34057617 174.375 C-0.33211768 172.47235567 -0.32147115 170.56971999 -0.30880737 168.667099 C-0.280702 163.51678937 -0.28312547 158.36689682 -0.29110122 153.21653366 C-0.29422946 147.82861967 -0.26918257 142.44083776 -0.24714661 137.05297852 C-0.2097152 126.85696414 -0.19755914 116.66108314 -0.1945222 106.46500683 C-0.18983041 94.85433712 -0.15690315 83.24380094 -0.12162435 71.63319016 C-0.04970352 47.75547627 -0.01317523 23.87781346 0 0 Z " fill="#A8DC38" transform="translate(575,304)"/>
<path d="M0 0 C0.33 0.66 0.66 1.32 1 2 C-1.64 1.67 -4.28 1.34 -7 1 C-7 1.66 -7 2.32 -7 3 C-7.66 3 -8.32 3 -9 3 C-9.02333692 20.04573514 -9.04098308 37.09146531 -9.05181217 54.13721275 C-9.05697344 62.05144153 -9.06401293 69.9656604 -9.07543945 77.87988281 C-9.08539145 84.77609057 -9.09185466 91.67229115 -9.09408849 98.56850588 C-9.09539472 102.22163762 -9.09847505 105.87474882 -9.10573006 109.52787399 C-9.11375414 113.60111155 -9.1139908 117.67431316 -9.11352539 121.74755859 C-9.11712067 122.96531479 -9.12071594 124.18307098 -9.12442017 125.43772888 C-9.1230455 126.54273239 -9.12167084 127.6477359 -9.12025452 128.78622437 C-9.12117631 129.75041983 -9.1220981 130.71461529 -9.12304783 131.70802879 C-9.15110047 134.02998316 -9.15110047 134.02998316 -8 136 C-6.35857037 137.0409066 -4.69287785 138.04504326 -3 139 C-6.67384348 139 -8.12127576 138.24583253 -11 136 C-11.62082577 133.58053684 -11.62082577 133.58053684 -11.61473083 130.65492249 C-11.62449448 129.5459108 -11.63425812 128.43689911 -11.64431763 127.29428101 C-11.62206619 125.46843979 -11.62206619 125.46843979 -11.59936523 123.60571289 C-11.60330795 122.32422867 -11.60725067 121.04274445 -11.61131287 119.72242737 C-11.62130197 116.20561282 -11.60009386 112.68960207 -11.57283282 109.17290425 C-11.54902388 105.49390143 -11.55194792 101.81491514 -11.55152893 98.135849 C-11.54689823 91.95606866 -11.52324112 85.77659604 -11.48706055 79.59692383 C-11.44534389 72.4526824 -11.42774689 65.30871826 -11.4244408 58.16436201 C-11.42083996 50.5599634 -11.4019603 42.95566458 -11.37732053 35.35130763 C-11.37109302 33.15990009 -11.36745595 30.96850016 -11.36428642 28.77708626 C-11.35728512 24.69249658 -11.33289003 20.60819132 -11.30639648 16.52368164 C-11.30573181 15.30847839 -11.30506714 14.09327515 -11.30438232 12.84124756 C-11.2944072 11.72941605 -11.28443207 10.61758453 -11.27415466 9.47206116 C-11.26950416 8.50623139 -11.26485365 7.54040163 -11.26006222 6.5453043 C-10.98726117 3.87532141 -10.44715054 2.24740038 -9 0 C-5.88173308 -1.55913346 -3.32926126 -0.66585225 0 0 Z " fill="#ACEB25" transform="translate(270,346)"/>
<path d="M0 0 C6.85932094 3.20101644 6.85932094 3.20101644 9 6 C9.36914349 8.43063641 9.36914349 8.43063641 9.36076355 11.37199402 C9.36488754 12.48678635 9.36901154 13.60157867 9.3732605 14.75015259 C9.36247467 15.97366425 9.35168884 17.1971759 9.34057617 18.45776367 C9.34101425 19.74567307 9.34145233 21.03358246 9.34190369 22.36051941 C9.34276541 25.89341217 9.32511124 29.42600016 9.30418181 32.95882201 C9.28544444 36.65037353 9.2836669 40.34193182 9.28010559 44.03352356 C9.27077645 51.02460307 9.246151 58.01554207 9.21605712 65.00655967 C9.18254007 72.96534552 9.1660339 80.92413804 9.15097082 88.88297689 C9.11960214 105.25540022 9.06682486 121.62768219 9 138 C8.67 138 8.34 138 8 138 C7.99761165 137.3397775 7.99522329 136.679555 7.99276257 135.99932575 C7.93362064 119.93294539 7.85807587 103.8667385 7.76428509 87.80052662 C7.71932384 80.03101266 7.67990998 72.26154458 7.65356445 64.49194336 C7.63058698 57.7197734 7.59719187 50.94774856 7.55129844 44.17569369 C7.52736267 40.59008201 7.50863629 37.00461408 7.50238609 33.41892433 C7.49521261 29.41554918 7.46478103 25.41267424 7.43237305 21.40942383 C7.43380814 20.22115494 7.43524323 19.03288605 7.4367218 17.80860901 C7.42418365 16.71630981 7.41164551 15.62401062 7.39872742 14.49861145 C7.39181397 13.07858936 7.39181397 13.07858936 7.38476086 11.62987995 C6.9223355 8.46915518 5.85698199 6.57886434 4 4 C1.93299345 2.67206394 1.93299345 2.67206394 0 2 C0 1.34 0 0.68 0 0 Z " fill="#B1E83C" transform="translate(372,406)"/>
<path d="M0 0 C0.66 0.33 1.32 0.66 2 1 C2.1168077 18.12424826 2.2049754 35.24837217 2.25906086 52.37292767 C2.28484134 60.32419338 2.31998855 68.27521154 2.37719727 76.22631836 C2.42703743 83.1566164 2.45929216 90.08673516 2.47044247 97.01720744 C2.47696035 100.68686002 2.49227483 104.35599973 2.52865028 108.0254879 C2.56893213 112.12228508 2.56994907 116.21819099 2.56762695 120.31518555 C2.59459152 122.13966721 2.59459152 122.13966721 2.62210083 124.00100708 C2.56582548 133.15088393 2.56582548 133.15088393 -0.53547668 136.2928009 C-1.34876938 136.85617661 -2.16206207 137.41955231 -3 138 C-3.99 137.34 -4.98 136.68 -6 136 C-4.68 136 -3.36 136 -2 136 C0.69327256 129.95787484 0.26606424 123.86361869 0.22705078 117.38525391 C0.22734283 116.11641357 0.22763489 114.84757324 0.22793579 113.5402832 C0.22850801 110.07374973 0.21677494 106.60735555 0.20278788 103.14085436 C0.19025871 99.51337426 0.1891083 95.88589073 0.18673706 92.25839233 C0.18052871 85.394947 0.16412664 78.53156561 0.14403808 71.6681484 C0.12165899 63.85196384 0.1106806 56.03577618 0.10064721 48.21956754 C0.07975982 32.14634096 0.04459642 16.07317865 0 0 Z " fill="#A9E626" transform="translate(539,347)"/>
<path d="M0 0 C1.670625 0.37125 1.670625 0.37125 3.375 0.75 C3.705 1.41 4.035 2.07 4.375 2.75 C1.735 2.42 -0.905 2.09 -3.625 1.75 C-3.625 2.41 -3.625 3.07 -3.625 3.75 C-4.285 3.75 -4.945 3.75 -5.625 3.75 C-5.625 15.3 -5.625 26.85 -5.625 38.75 C-5.955 38.75 -6.285 38.75 -6.625 38.75 C-6.69903712 33.51728431 -6.75354783 28.28487199 -6.78979492 23.05175781 C-6.80490173 21.27077933 -6.82538835 19.48983816 -6.85131836 17.70898438 C-6.88761943 15.15225022 -6.90470688 12.5960069 -6.91796875 10.0390625 C-6.93345261 9.24005524 -6.94893646 8.44104797 -6.96488953 7.61782837 C-6.96557617 5.37353516 -6.96557617 5.37353516 -6.625 1.75 C-3.625 -0.25 -3.625 -0.25 0 0 Z " fill="#9BE804" transform="translate(266.625,345.25)"/>
<path d="M0 0 C-1.51495215 4.24186602 -4.12759895 5.88113905 -8 8 C-11.875 8.75 -11.875 8.75 -15 9 C-11.6214602 5.03388806 -5.46055995 0 0 0 Z " fill="#B2EC31" transform="translate(427,587)"/>
<path d="M0 0 C0.33 0.99 0.66 1.98 1 3 C-2.79692186 5.82561627 -5.18569279 7.56638908 -10 7 C-10 7.66 -10 8.32 -10 9 C-11.32 8.67 -12.64 8.34 -14 8 C-9.38 5.36 -4.76 2.72 0 0 Z " fill="#ADEA2A" transform="translate(310,288)"/>
<path d="M0 0 C0.66 0.33 1.32 0.66 2 1 C1 4 1 4 -1.29296875 5.3515625 C-10.92326456 9.5883728 -10.92326456 9.5883728 -16 10 C-13.70150751 7.70150751 -11.43160643 6.52409372 -8.5625 5 C-5.60249397 3.42343221 -2.79270331 1.86180221 0 0 Z " fill="#EBFDC3" transform="translate(418,367)"/>
<path d="M0 0 C3.35433109 0.94933899 6.69246505 1.89748835 10 3 C10 3.66 10 4.32 10 5 C10.99 5 11.98 5 13 5 C13 5.66 13 6.32 13 7 C14.32 7 15.64 7 17 7 C17.66 8.32 18.32 9.64 19 11 C14.60616294 9.40376856 10.71004193 7.21975667 6.6875 4.875 C6.04232422 4.50246094 5.39714844 4.12992187 4.73242188 3.74609375 C3.15324055 2.83367787 1.57638136 1.91724491 0 1 C0 0.67 0 0.34 0 0 Z " fill="#EAFEBE" transform="translate(311,370)"/>
<path d="M0 0 C7.21456983 2.86801418 13.54699275 6.7060363 20 11 C18.08203125 11.57421875 18.08203125 11.57421875 16 12 C14.6875 10.8125 14.6875 10.8125 13 9 C9.71397182 6.99187167 6.73133105 5.27027452 3.125 3.9375 C2.42375 3.628125 1.7225 3.31875 1 3 C0.67 2.01 0.34 1.02 0 0 Z " fill="#F0FEC6" transform="translate(412,205)"/>
<path d="M0 0 C0.33 0.66 0.66 1.32 1 2 C0.0625 4.125 0.0625 4.125 -1 6 C-2.32 6 -3.64 6 -5 6 C-5 6.66 -5 7.32 -5 8 C-7.97 8.66 -10.94 9.32 -14 10 C-11.31179092 7.31179092 -9.11908302 5.75713563 -5.875 3.875 C-2.7548618 2.1820261 -2.7548618 2.1820261 0 0 Z " fill="#EAFDBE" transform="translate(514,311)"/>
<path d="M0 0 C2.23310552 1.07575855 4.46124501 2.16022483 6.6875 3.25 C7.31333984 3.55035156 7.93917969 3.85070312 8.58398438 4.16015625 C12.45438826 6.06496235 15.7119061 8.15828214 19 11 C16.23723823 10.47731534 13.6739124 9.89130413 11 9 C11 8.34 11 7.68 11 7 C10.484375 6.9175 9.96875 6.835 9.4375 6.75 C5.95544268 5.67859775 3.12799115 3.86476395 0 2 C0 1.34 0 0.68 0 0 Z " fill="#EFFECA" transform="translate(445,224)"/>
<path d="M0 0 C3.37705625 0.53725895 6.696686 1.11064623 10 2 C10 2.66 10 3.32 10 4 C10.66 4 11.32 4 12 4 C12 4.66 12 5.32 12 6 C12.66 6 13.32 6 14 6 C14 6.66 14 7.32 14 8 C8.76481294 6.56032356 4.36973991 4.18303389 0 1 C0 0.67 0 0.34 0 0 Z " fill="#EFFECD" transform="translate(241,510)"/>
<path d="M0 0 C0.66 0.33 1.32 0.66 2 1 C-0.8071708 4.11907866 -3.10671674 5.52686579 -7 7 C-7.33 7.66 -7.66 8.32 -8 9 C-10.32156597 9.40729228 -12.6568787 9.74438677 -15 10 C-12.38221206 7.0447272 -9.32416665 5.24167273 -5.9375 3.25 C-4.87402344 2.61578125 -3.81054688 1.9815625 -2.71484375 1.328125 C-1.81894531 0.88984375 -0.92304688 0.4515625 0 0 Z " fill="#EFFDCB" transform="translate(441,354)"/>
<path d="M0 0 C1.32 0 2.64 0 4 0 C4.33 0.66 4.66 1.32 5 2 C6.8871875 2.37125 6.8871875 2.37125 8.8125 2.75 C12.15672916 3.48248825 13.62228199 4.23724595 15.5 7.125 C16.2425 8.548125 16.2425 8.548125 17 10 C13.02374613 8.82519772 10.2364067 7.54989619 7 5 C4.69366891 3.61420019 2.35045131 2.31082861 0 1 C0 0.67 0 0.34 0 0 Z " fill="#ECFDBC" transform="translate(268,345)"/>
<path d="M0 0 C0.66 0.33 1.32 0.66 2 1 C0.875 2.9375 0.875 2.9375 -1 5 C-4.1875 5.75 -4.1875 5.75 -7 6 C-7.12375 6.598125 -7.2475 7.19625 -7.375 7.8125 C-8 10 -8 10 -10 13 C-10.05692925 10.1535375 -10.07969732 8.57584932 -9 6 C-6.22677341 3.58781612 -3.21237759 1.77167491 0 0 Z " fill="#B0E932" transform="translate(294,297)"/>
<path d="M0 0 C4.51451314 1.3489311 8.32277281 3.16618294 12.375 5.5625 C13.43460938 6.18253906 14.49421875 6.80257813 15.5859375 7.44140625 C16.38257813 7.95574219 17.17921875 8.47007812 18 9 C18 9.33 18 9.66 18 10 C16.35 10 14.7 10 13 10 C13 9.34 13 8.68 13 8 C11.865625 7.731875 10.73125 7.46375 9.5625 7.1875 C8.386875 6.795625 7.21125 6.40375 6 6 C5.67 5.01 5.34 4.02 5 3 C3.35 2.67 1.7 2.34 0 2 C0 1.34 0 0.68 0 0 Z " fill="#F2FECA" transform="translate(550,285)"/>
<path d="M0 0 C0.66 0.33 1.32 0.66 2 1 C-4.75961538 7.94230769 -4.75961538 7.94230769 -8.6875 8.125 C-9.8321875 8.063125 -9.8321875 8.063125 -11 8 C-8.83385197 5.69125289 -6.60793392 3.94709819 -3.9375 2.25 C-2.89916016 1.57710938 -2.89916016 1.57710938 -1.83984375 0.890625 C-1.23269531 0.59671875 -0.62554687 0.3028125 0 0 Z " fill="#B1EA2F" transform="translate(438,399)"/>
<path d="M0 0 C4.68520915 1.21815438 8.70543612 2.69559987 13 5 C13 5.66 13 6.32 13 7 C13.99 7 14.98 7 16 7 C16 7.66 16 8.32 16 9 C10.0942118 7.44584521 5.02261107 4.40465533 0 1 C0 0.67 0 0.34 0 0 Z " fill="#B2E938" transform="translate(547,282)"/>
<path d="M0 0 C1.32 0.33 2.64 0.66 4 1 C1.71125827 2.33858524 -0.58069656 3.67101014 -2.875 5 C-3.52597656 5.3815625 -4.17695313 5.763125 -4.84765625 6.15625 C-9.7734375 9 -9.7734375 9 -12 9 C-11.67 8.01 -11.34 7.02 -11 6 C-9.68 6 -8.36 6 -7 6 C-7 5.34 -7 4.68 -7 4 C-4.35261084 2.5393715 -3.10551666 2 0 2 C0 1.34 0 0.68 0 0 Z " fill="#F3FED3" transform="translate(448,391)"/>
<path d="M0 0 C0.99 0.495 1.98 0.99 3 1.5 C7.13477234 3.30103581 10.53198453 3.23515871 15 3 C13.875 4.5 13.875 4.5 12 6 C7.16584428 6.6445541 4.17438766 5.38536438 0 3 C0 2.01 0 1.02 0 0 Z " fill="#EEFECC" transform="translate(364,543)"/>
<path d="M0 0 C4.92101242 2.0085765 9.42543762 4.29260594 14 7 C10.21326759 8.26224414 8.6717132 7.32806648 5 6 C4.34 6 3.68 6 3 6 C3 5.01 3 4.02 3 3 C2.01 2.67 1.02 2.34 0 2 C0 1.34 0 0.68 0 0 Z " fill="#ABE62B" transform="translate(405,240)"/>
<path d="M0 0 C-1.91297061 1.15199331 -3.83052529 2.29637688 -5.75 3.4375 C-6.81734375 4.07558594 -7.8846875 4.71367187 -8.984375 5.37109375 C-11.43484971 6.69473099 -13.28991337 7.53297051 -16 8 C-16 7.34 -16 6.68 -16 6 C-14.02 5.34 -12.04 4.68 -10 4 C-10 3.34 -10 2.68 -10 2 C-8.68 2 -7.36 2 -6 2 C-6 1.34 -6 0.68 -6 0 C-3 -1 -3 -1 0 0 Z " fill="#F1FECB" transform="translate(520,353)"/>
<path d="M0 0 C0.66 0.33 1.32 0.66 2 1 C-0.74559948 3.94897721 -3.34117274 6.26205705 -7 8 C-9.15625 7.57421875 -9.15625 7.57421875 -11 7 C-2.99658509 1.10984633 -2.99658509 1.10984633 0 0 Z " fill="#EDFEBE" transform="translate(247,285)"/>
<path d="M0 0 C0.33 0.66 0.66 1.32 1 2 C-1 5 -1 5 -3.3828125 5.73046875 C-4.74019531 5.95669922 -4.74019531 5.95669922 -6.125 6.1875 C-7.49011719 6.42533203 -7.49011719 6.42533203 -8.8828125 6.66796875 C-9.58148438 6.77753906 -10.28015625 6.88710938 -11 7 C-8.81482901 4.59424393 -6.74080329 3.20464419 -3.8125 1.8125 C-2.73935547 1.29623047 -2.73935547 1.29623047 -1.64453125 0.76953125 C-1.10183594 0.51558594 -0.55914062 0.26164062 0 0 Z " fill="#F0FDCA" transform="translate(283,265)"/>
<path d="M0 0 C0.515625 0.268125 1.03125 0.53625 1.5625 0.8125 C4.66401415 2.32349407 7.82262806 3.65572726 11 5 C11 5.99 11 6.98 11 8 C6.69235185 6.43358249 2.93828536 4.31663844 -1 2 C-0.67 1.34 -0.34 0.68 0 0 Z " fill="#B4EC36" transform="translate(437,217)"/>
<path d="M0 0 C7.92 3.96 7.92 3.96 16 8 C13 9 13 9 10.37109375 7.8203125 C8.91896484 6.98113281 8.91896484 6.98113281 7.4375 6.125 C5.98150391 5.29355469 5.98150391 5.29355469 4.49609375 4.4453125 C3.67238281 3.96835937 2.84867187 3.49140625 2 3 C1.34 2.67 0.68 2.34 0 2 C0 1.34 0 0.68 0 0 Z " fill="#F0FEC5" transform="translate(343,531)"/>
<path d="M0 0 C-3.96 1.98 -7.92 3.96 -12 6 C-11.34 4.35 -10.68 2.7 -10 1 C-9.01 1.33 -8.02 1.66 -7 2 C-7 1.34 -7 0.68 -7 0 C-3.98968256 -0.93423645 -3.13349732 -1.04449911 0 0 Z " fill="#F3FED2" transform="translate(559,511)"/>
<path d="M0 0 C0 0.66 0 1.32 0 2 C-0.99 2 -1.98 2 -3 2 C-3.185625 2.639375 -3.37125 3.27875 -3.5625 3.9375 C-5 6 -5 6 -8.625 6.75 C-9.73875 6.8325 -10.8525 6.915 -12 7 C-10.67368911 4.34737821 -9.14656892 3.78900251 -6.5625 2.375 C-5.75941406 1.92898438 -4.95632813 1.48296875 -4.12890625 1.0234375 C-2 0 -2 0 0 0 Z " fill="#AEE82B" transform="translate(496,367)"/>
<path d="M0 0 C2.00240549 0.31856451 4.00211562 0.65421232 6 1 C6.7425 1.0825 7.485 1.165 8.25 1.25 C10 2 10 2 11.25 4.5625 C11.4975 5.366875 11.745 6.17125 12 7 C7.69235185 5.43358249 3.93828536 3.31663844 0 1 C0 0.67 0 0.34 0 0 Z " fill="#ECFDBC" transform="translate(403,238)"/>
<path d="M0 0 C0 0.66 0 1.32 0 2 C-0.99 2.33 -1.98 2.66 -3 3 C-3.99 4.485 -3.99 4.485 -5 6 C-7.3828125 6.94921875 -7.3828125 6.94921875 -10.125 7.6875 C-11.49011719 8.06455078 -11.49011719 8.06455078 -12.8828125 8.44921875 C-13.58148438 8.63097656 -14.28015625 8.81273437 -15 9 C-13.67994824 6.35989647 -12.21405858 5.87412818 -9.625 4.5 C-1.20121951 0 -1.20121951 0 0 0 Z " fill="#E8FDB8" transform="translate(365,218)"/>
<path d="M0 0 C0.66 0.99 1.32 1.98 2 3 C0.02 5.31 -1.96 7.62 -4 10 C-4.33 9.34 -4.66 8.68 -5 8 C-4.00390625 6.0546875 -4.00390625 6.0546875 -2.5625 3.875 C-2.08941406 3.15054688 -1.61632812 2.42609375 -1.12890625 1.6796875 C-0.75636719 1.12539062 -0.38382812 0.57109375 0 0 Z M-7 11 C-6.67 11.99 -6.34 12.98 -6 14 C-6.99 14 -7.98 14 -9 14 C-8.34 13.01 -7.68 12.02 -7 11 Z " fill="#A3E811" transform="translate(66,178)"/>
<path d="M0 0 C4.85963179 0.60745397 8.7405518 2.72758967 13 5 C13 5.66 13 6.32 13 7 C8.1725201 5.58707905 4.2837641 3.57025846 0 1 C0 0.67 0 0.34 0 0 Z " fill="#EEFECC" transform="translate(369,584)"/>
<path d="M0 0 C0.66 0.33 1.32 0.66 2 1 C-0.88406243 4.40843742 -2.3708265 5.86591384 -6.8125 6.8125 C-8.3903125 6.9053125 -8.3903125 6.9053125 -10 7 C-8.67408323 4.34816647 -7.13437549 3.74863527 -4.5625 2.3125 C-3.75941406 1.85488281 -2.95632813 1.39726562 -2.12890625 0.92578125 C-1.42636719 0.62027344 -0.72382813 0.31476563 0 0 Z " fill="#F0FDC6" transform="translate(498,321)"/>
<path d="M0 0 C1.65 0 3.3 0 5 0 C5 0.66 5 1.32 5 2 C6.32 2.33 7.64 2.66 9 3 C9 3.66 9 4.32 9 5 C9.99 5 10.98 5 12 5 C12 5.66 12 6.32 12 7 C7.69235185 5.43358249 3.93828536 3.31663844 0 1 C0 0.67 0 0.34 0 0 Z " fill="#AFE831" transform="translate(492,250)"/>
<path d="M0 0 C1.32 0 2.64 0 4 0 C4 0.66 4 1.32 4 2 C4.78375 2.0825 5.5675 2.165 6.375 2.25 C9 3 9 3 10.3125 5.0625 C10.6528125 6.0215625 10.6528125 6.0215625 11 7 C7.9168649 5.80100302 4.93720508 4.52299523 2 3 C2 2.34 2 1.68 2 1 C1.34 0.67 0.68 0.34 0 0 Z " fill="#E7FCC3" transform="translate(482,283)"/>
<path d="M0 0 C1.65 0 3.3 0 5 0 C1.18765077 3.3502463 -2.33285711 5.16974789 -7 7 C-7 6.01 -7 5.02 -7 4 C-5.02 3.67 -3.04 3.34 -1 3 C-0.67 2.01 -0.34 1.02 0 0 Z " fill="#A6E71F" transform="translate(249,281)"/>
<path d="M0 0 C1.79398267 0.95399078 3.58511655 1.91334026 5.375 2.875 C6.37273437 3.40867188 7.37046875 3.94234375 8.3984375 4.4921875 C11 6 11 6 13 8 C8.00786149 7.53198701 3.87036007 5.08284263 0 2 C0 1.34 0 0.68 0 0 Z " fill="#F0FEC2" transform="translate(489,249)"/>
<path d="M0 0 C1.45880109 0.14107747 2.91703551 0.28802415 4.375 0.4375 C5.59316406 0.55931641 5.59316406 0.55931641 6.8359375 0.68359375 C9 1 9 1 11 2 C9 4 9 4 5.5 4.1875 C2 4 2 4 0 3 C0 2.01 0 1.02 0 0 Z " fill="#EDFEBB" transform="translate(420,545)"/>
<path d="M0 0 C0.66 0.33 1.32 0.66 2 1 C1.0625 2.875 1.0625 2.875 -1 5 C-3.95485056 5.95351561 -6.9369519 6.51196718 -10 7 C-6.98387254 3.79017628 -3.91966781 1.99546725 0 0 Z " fill="#EDFDBE" transform="translate(450,534)"/>
<path d="M0 0 C0.33 0.66 0.66 1.32 1 2 C-1.64 1.67 -4.28 1.34 -7 1 C-7 1.66 -7 2.32 -7 3 C-7.99 3.33 -8.98 3.66 -10 4 C-9.625 2.0625 -9.625 2.0625 -9 0 C-5.88173308 -1.55913346 -3.32926126 -0.66585225 0 0 Z " fill="#B3E640" transform="translate(270,346)"/>
<path d="M0 0 C0.66 0.33 1.32 0.66 2 1 C0.25 3 0.25 3 -2 5 C-3.32 5 -4.64 5 -6 5 C-6 5.66 -6 6.32 -6 7 C-7.32 6.67 -8.64 6.34 -10 6 C-8.3811004 4.96951963 -6.75467511 3.95085322 -5.125 2.9375 C-4.22007812 2.36902344 -3.31515625 1.80054688 -2.3828125 1.21484375 C-1.20332031 0.61349609 -1.20332031 0.61349609 0 0 Z " fill="#ADE529" transform="translate(334,274)"/>
<path d="M0 0 C0.33 1.32 0.66 2.64 1 4 C-0.134375 4.12375 -1.26875 4.2475 -2.4375 4.375 C-4.2009375 4.684375 -4.2009375 4.684375 -6 5 C-6.33 5.66 -6.66 6.32 -7 7 C-7.66 6.34 -8.32 5.68 -9 5 C-6.03 3.35 -3.06 1.7 0 0 Z " fill="#EFFECC" transform="translate(381,208)"/>
<path d="M0 0 C0.33 0.66 0.66 1.32 1 2 C-3.30769231 5.93846154 -3.30769231 5.93846154 -6.8125 6.25 C-7.534375 6.1675 -8.25625 6.085 -9 6 C-6.22719294 2.91910327 -3.93673644 1.31224548 0 0 Z " fill="#B6ED3E" transform="translate(511,538)"/>
<path d="M0 0 C1.1446875 0.0928125 1.1446875 0.0928125 2.3125 0.1875 C-1.1962188 3.28342835 -4.17947399 4.92944623 -8.6875 6.1875 C-8.6875 5.5275 -8.6875 4.8675 -8.6875 4.1875 C-7.6975 3.8575 -6.7075 3.5275 -5.6875 3.1875 C-5.23375 2.671875 -4.78 2.15625 -4.3125 1.625 C-2.6875 0.1875 -2.6875 0.1875 0 0 Z " fill="#EDFECC" transform="translate(520.6875,530.8125)"/>
<path d="M0 0 C0.33 0.66 0.66 1.32 1 2 C-0.0725 2.12375 -1.145 2.2475 -2.25 2.375 C-5.37863615 2.89643936 -7.33480424 3.40088254 -10 5 C-9.67 3.68 -9.34 2.36 -9 1 C-5.92677456 0.08941469 -3.19902639 -0.08886184 0 0 Z " fill="#EEFEC6" transform="translate(402,236)"/>
<path d="M0 0 C8.35010941 2.3107221 8.35010941 2.3107221 11.0625 5.1875 C11.371875 5.785625 11.68125 6.38375 12 7 C7.39104317 5.68315519 3.85859765 3.84801255 0 1 C0 0.67 0 0.34 0 0 Z " fill="#B4E93C" transform="translate(340,528)"/>
<path d="M0 0 C3.02419525 0.58803797 6.01758453 1.22678118 9 2 C9.33 3.32 9.66 4.64 10 6 C6.40992874 4.66654496 3.20429093 3.1056769 0 1 C0 0.67 0 0.34 0 0 Z " fill="#ACEA24" transform="translate(288,498)"/>
<path d="M0 0 C3.94120709 0.56302958 6.7508723 1.6791945 10 4 C10 4.66 10 5.32 10 6 C5.56909529 4.79157144 3.01887244 3.48331435 0 0 Z " fill="#F0FEC3" transform="translate(296,361)"/>
<path d="M0 0 C7.63076923 1.47692308 7.63076923 1.47692308 9.5 4.125 C9.665 4.74375 9.83 5.3625 10 6 C5.56909529 4.79157144 3.01887244 3.48331435 0 0 Z " fill="#EDFDC6" transform="translate(276,530)"/>
<path d="M0 0 C1 3 1 3 0.375 5.0625 C-1 7 -1 7 -6 9 C-4.02 6.03 -2.04 3.06 0 0 Z " fill="#AFEB37" transform="translate(575,496)"/>
<path d="M0 0 C0 0.99 0 1.98 0 3 C-1.65 3.33 -3.3 3.66 -5 4 C-5 4.66 -5 5.32 -5 6 C-6.32 5.67 -7.64 5.34 -9 5 C-6.03 3.35 -3.06 1.7 0 0 Z " fill="#B1EA31" transform="translate(529,347)"/>
<path d="M0 0 C3.94120709 0.56302958 6.7508723 1.6791945 10 4 C10 4.66 10 5.32 10 6 C8.02 5.34 6.04 4.68 4 4 C4 3.34 4 2.68 4 2 C2.68 1.67 1.36 1.34 0 1 C0 0.67 0 0.34 0 0 Z " fill="#AFE737" transform="translate(323,333)"/>
<path d="M0 0 C-0.309375 0.598125 -0.61875 1.19625 -0.9375 1.8125 C-2.10209704 4.08956772 -2.10209704 4.08956772 -3 7 C-3.66 7 -4.32 7 -5 7 C-5.33 5.68 -5.66 4.36 -6 3 C-2.25 0 -2.25 0 0 0 Z " fill="#A7E71D" transform="translate(427,407)"/>
<path d="M0 0 C2.125 0.375 2.125 0.375 4 1 C4 1.66 4 2.32 4 3 C4.639375 3.12375 5.27875 3.2475 5.9375 3.375 C6.618125 3.58125 7.29875 3.7875 8 4 C8.33 4.66 8.66 5.32 9 6 C6.83125748 5.49396008 5.00032373 5.00016187 3 4 C3 3.34 3 2.68 3 2 C1.35 2 -0.3 2 -2 2 C-1.34 1.34 -0.68 0.68 0 0 Z " fill="#AFEA36" transform="translate(480,283)"/>
<path d="M0 0 C4.21912747 0.4794463 6.79663178 1.16625119 10 4 C9.67 4.66 9.34 5.32 9 6 C8.01 5.67 7.02 5.34 6 5 C6 4.34 6 3.68 6 3 C5.38125 2.87625 4.7625 2.7525 4.125 2.625 C2 2 2 2 0 0 Z " fill="#ECFDC7" transform="translate(450,265)"/>
<path d="M0 0 C-0.33 1.32 -0.66 2.64 -1 4 C-3.31 4.33 -5.62 4.66 -8 5 C-3.16129032 0 -3.16129032 0 0 0 Z " fill="#E8FCB3" transform="translate(332,237)"/>
<path d="M0 0 C0 0.99 0 1.98 0 3 C-2.35438733 4.42944945 -3.48032433 5.08661261 -6.25 4.625 C-6.8275 4.41875 -7.405 4.2125 -8 4 C-2.25 0 -2.25 0 0 0 Z " fill="#F4FDC6" transform="translate(476,520)"/>
<path d="M0 0 C0.66 0.33 1.32 0.66 2 1 C1.67 1.66 1.34 2.32 1 3 C0.34 3 -0.32 3 -1 3 C-1 3.66 -1 4.32 -1 5 C-2.65 5 -4.3 5 -6 5 C-4.06745228 2.9754262 -2.36841312 1.57894208 0 0 Z " fill="#EFFDBD" transform="translate(505,502)"/>
<path d="M0 0 C-1.28524261 0.86380259 -2.57842419 1.71580369 -3.875 2.5625 C-4.59429687 3.03816406 -5.31359375 3.51382812 -6.0546875 4.00390625 C-6.69664062 4.33261719 -7.33859375 4.66132813 -8 5 C-8.66 4.67 -9.32 4.34 -10 4 C-4.4 -2.2 -4.4 -2.2 0 0 Z " fill="#E9FCB5" transform="translate(489,371)"/>
</svg>
