<?xml version="1.0" encoding="UTF-8"?>
<svg version="1.1" xmlns="http://www.w3.org/2000/svg" width="1583" height="1582">
<path d="M0 0 C2.36904628 -0.004181 4.73809 -0.01011224 7.10712808 -0.01761746 C12.91334924 -0.03150155 18.71934763 -0.02700909 24.52556715 -0.0145572 C31.5385889 -0.00059784 38.55153276 -0.01023791 45.56455405 -0.02041385 C58.66778601 -0.03875315 71.7709557 -0.03824356 84.87419319 -0.02729034 C98.143619 -0.01626595 111.41300388 -0.01397948 124.68243217 -0.02223969 C125.94194115 -0.02301472 125.94194115 -0.02301472 127.22689476 -0.02380541 C130.6470317 -0.02593862 134.06716859 -0.02813347 137.48730544 -0.03040652 C169.30722115 -0.05153932 201.12710943 -0.05300952 232.94702911 -0.04181671 C234.35998333 -0.04131994 234.35998333 -0.04131994 235.80148208 -0.04081313 C237.21670874 -0.04031555 237.21670874 -0.04031555 238.66052584 -0.03980792 C267.41912635 -0.0297101 296.17771553 -0.02711199 324.93631744 -0.0318985 C326.86307999 -0.03220842 328.78984254 -0.03251704 330.71660509 -0.03282438 C338.45971433 -0.03406628 346.20282356 -0.03534095 353.94593279 -0.03666343 C375.59032838 -0.04033123 397.23472401 -0.04261381 418.87911987 -0.04380798 C419.86470556 -0.04386257 420.85029124 -0.04391715 421.86574316 -0.04397339 C453.2647503 -0.04561018 484.6637535 -0.04110455 516.0627594 -0.03240967 C517.08096576 -0.03212867 518.09917212 -0.03184768 519.14823323 -0.03155816 C535.68262417 -0.02697852 552.21701502 -0.0221006 568.75140587 -0.01719747 C634.32629354 0.00222746 699.90114854 0.00132586 765.47603607 -0.01811981 C782.00214128 -0.02300468 798.5282465 -0.02784893 815.05435181 -0.03240967 C816.58076774 -0.03283236 816.58076774 -0.03283236 818.13802036 -0.03326359 C849.50467787 -0.04188996 880.87133267 -0.04554511 912.23799133 -0.04380798 C913.22285075 -0.04375365 914.20771017 -0.04369931 915.22241381 -0.04364333 C936.84287408 -0.04239334 958.46333406 -0.03985865 980.08379404 -0.03616597 C987.81992769 -0.03484944 995.55606134 -0.03359711 1003.292195 -0.03236313 C1005.2166948 -0.03205357 1007.14119459 -0.03173865 1009.06569438 -0.03141834 C1037.81567742 -0.02664643 1066.56564768 -0.03070496 1095.31562913 -0.04081313 C1096.25759861 -0.04114431 1097.19956808 -0.04147549 1098.17008209 -0.04181671 C1099.58042294 -0.04231281 1099.58042294 -0.04231281 1101.01925552 -0.04281892 C1132.74849423 -0.05385778 1164.47770007 -0.04978125 1196.20693409 -0.02869374 C1199.61618237 -0.02648438 1203.02543068 -0.02433756 1206.43467903 -0.02223969 C1207.68968666 -0.02145844 1207.68968666 -0.02145844 1208.97004798 -0.02066142 C1222.20199511 -0.01278114 1235.43390126 -0.01825491 1248.66584468 -0.02931571 C1261.68610989 -0.03991375 1274.70630618 -0.03615184 1287.72656268 -0.01725936 C1294.68734505 -0.00754363 1301.6479867 -0.00395536 1308.60876399 -0.01888329 C1314.94806367 -0.03185412 1321.28707193 -0.02624377 1327.62635059 -0.00616065 C1329.89864351 -0.0021504 1332.17096086 -0.00474766 1334.44323426 -0.0149844 C1368.7832571 -0.15864212 1397.76147116 9.85659208 1422.7460556 33.75336456 C1449.6382054 61.62270004 1455.22210864 95.94523778 1455.18998337 133.23454571 C1455.19163438 135.56959119 1455.19372128 137.9046364 1455.19620347 140.23968115 C1455.20117868 145.99254136 1455.201522 151.74538884 1455.19991446 157.49825067 C1455.19823862 164.44051941 1455.20238959 171.38278173 1455.2066899 178.3250489 C1455.21455273 191.29840009 1455.21765141 204.27174854 1455.21813583 217.24510193 C1455.2186385 230.39048204 1455.22128825 243.53585907 1455.22654343 256.68123817 C1455.22687356 257.51183362 1455.22720369 258.34242906 1455.22754383 259.19819407 C1455.22889385 262.58114716 1455.23025652 265.96410025 1455.23163594 269.34705333 C1455.24793072 309.38041595 1455.25432335 349.41377798 1455.25908381 389.44714335 C1455.26146757 409.38115266 1455.26517112 429.31516162 1455.2691209 449.24917067 C1455.28178404 513.19441693 1455.29256857 577.13966317 1455.29596136 641.08491066 C1455.2961236 644.14051182 1455.29628916 647.19611299 1455.29645575 650.25171415 C1455.29678954 656.37972658 1455.29712002 662.507739 1455.2974503 668.63575143 C1455.2978372 675.81010063 1455.29822681 682.98444984 1455.29862137 690.15879905 C1455.29873379 692.21215198 1455.29884521 694.26550491 1455.29895562 696.31885785 C1455.30250571 762.27755213 1455.31758758 828.23623553 1455.34089337 894.19492567 C1455.35763521 941.59590173 1455.37311001 988.99687575 1455.37762833 1036.3978548 C1455.37776856 1037.86008176 1455.37776856 1037.86008176 1455.37791162 1039.35184866 C1455.37993066 1060.7514874 1455.38108671 1082.15112611 1455.3814402 1103.55076494 C1455.38157637 1111.20793414 1455.38178537 1118.86510333 1455.38203345 1126.52227252 C1455.38209502 1128.42717535 1455.38215334 1130.33207817 1455.3822084 1132.236981 C1455.38312811 1162.5871801 1455.39309495 1192.93736782 1455.40766589 1223.28756318 C1455.42228285 1253.85586646 1455.42732305 1284.42415579 1455.41924635 1314.99246195 C1455.418131 1319.21780316 1455.41712033 1323.44314439 1455.41617203 1327.66848564 C1455.41598206 1328.49675419 1455.41579209 1329.32502273 1455.41559637 1330.17839032 C1455.41286429 1343.28541658 1455.42019963 1356.39241702 1455.4317454 1369.49943767 C1455.44289259 1382.39229724 1455.44331103 1395.28512035 1455.43237521 1408.17798049 C1455.42681907 1415.0727216 1455.4259099 1421.96738112 1455.43888393 1428.86211463 C1455.45022968 1435.13804577 1455.44769074 1441.41381433 1455.43421686 1447.68973986 C1455.43178717 1449.94249595 1455.43435158 1452.19526459 1455.44261333 1454.44800684 C1455.55733759 1487.93966249 1446.65265198 1515.3998427 1423.0585556 1539.81586456 C1409.50435396 1552.71289279 1394.10346546 1562.87789959 1377.0585556 1570.50336456 C1376.43964447 1570.78164093 1375.82073334 1571.0599173 1375.18306732 1571.34662628 C1355.22071868 1580.09037772 1334.1770709 1582.2545493 1312.61209583 1582.13257027 C1310.23698275 1582.13780024 1307.86187368 1582.14521703 1305.48677334 1582.1545921 C1299.68102413 1582.17190296 1293.87562389 1582.16636239 1288.06987745 1582.15076677 C1281.05421102 1582.13327779 1274.03866538 1582.14538258 1267.0229996 1582.15808759 C1253.9160298 1582.18098386 1240.80915735 1582.18038848 1227.70217896 1582.1666832 C1214.43281269 1582.15289293 1201.1635104 1582.15005239 1187.89414024 1582.16036987 C1187.05384336 1582.16101574 1186.21354648 1582.1616616 1185.34778606 1582.16232703 C1181.9249996 1582.1649936 1178.50221321 1582.16773716 1175.0794269 1582.17057841 C1143.25044945 1582.19698084 1111.42151485 1582.19883827 1079.5925312 1582.18484116 C1078.65070231 1582.18442718 1077.70887342 1582.1840132 1076.73850426 1582.18358668 C1075.79515811 1582.18317203 1074.85181196 1582.18275738 1073.87987956 1582.18233017 C1045.11592831 1582.16970374 1016.35199475 1582.16646218 987.58804131 1582.17244339 C985.66030273 1582.17283079 983.73256416 1582.17321657 981.80482559 1582.17360074 C974.05766591 1582.17515313 966.31050623 1582.17674647 958.56334657 1582.17839956 C936.90844056 1582.18298408 915.25353449 1582.18583746 893.59862804 1582.18733025 C892.61260614 1582.18739847 891.62658423 1582.1874667 890.61068287 1582.187537 C859.20261489 1582.18958269 827.79455306 1582.1839525 796.38648701 1582.17308235 C795.36813265 1582.17273111 794.34977829 1582.17237986 793.30056471 1582.17201797 C776.76413685 1582.16629353 760.22770912 1582.16019608 743.6912814 1582.1540671 C678.10218189 1582.12978343 612.51313341 1582.13091583 546.92403412 1582.15522003 C530.39228731 1582.16132617 513.86054048 1582.16738149 497.32879353 1582.17308235 C496.31082249 1582.17343459 495.29285145 1582.17378683 494.2440328 1582.17414975 C462.86538897 1582.184933 431.48674938 1582.18950162 400.10810375 1582.18733025 C399.12285041 1582.18726232 398.13759708 1582.1871944 397.12248758 1582.18712442 C375.49330443 1582.18556194 353.86412173 1582.18239356 332.23493903 1582.17777773 C324.49573762 1582.17613208 316.75653619 1582.17456667 309.01733476 1582.17302418 C307.09209381 1582.17263723 305.16685286 1582.17224358 303.24161191 1582.17184319 C274.48455835 1582.16587912 245.72752474 1582.17094985 216.97047367 1582.18358668 C215.55735776 1582.18420765 215.55735776 1582.18420765 214.11569405 1582.18484116 C212.70519483 1582.18546127 212.70519483 1582.18546127 211.26620067 1582.18609392 C179.53059952 1582.19989373 147.79504973 1582.19479421 116.05945591 1582.16843744 C112.64922659 1582.16567576 109.23899721 1582.16299223 105.82876778 1582.16036987 C104.9918597 1582.15971884 104.15495163 1582.1590678 103.2926827 1582.15839704 C90.05984452 1582.14854873 76.82707037 1582.1553867 63.59423798 1582.1692149 C50.57153961 1582.18246609 37.54894889 1582.17775352 24.52626413 1582.15414446 C17.56492354 1582.14200428 10.60380272 1582.13750467 3.6424701 1582.15617438 C-2.69849094 1582.17239901 -9.03899704 1582.1653596 -15.37992531 1582.14027108 C-17.65166684 1582.1352621 -19.92344658 1582.13849464 -22.19515753 1582.15130077 C-51.52457856 1582.30481947 -75.53749392 1575.25031755 -97.1289444 1554.75336456 C-109.04393017 1542.36177935 -117.14968996 1527.13815396 -122.2539444 1510.81586456 C-122.48428375 1510.10035431 -122.71462311 1509.38484406 -122.95194244 1508.64765167 C-127.99642489 1491.35201885 -128.37951814 1473.34251221 -128.31896782 1455.47734451 C-128.32210415 1453.11134271 -128.326553 1450.74534236 -128.33218092 1448.37934518 C-128.34258697 1442.58462686 -128.33922939 1436.79003418 -128.32988572 1430.9953168 C-128.31941006 1423.99536049 -128.32664858 1416.99544799 -128.33427821 1409.99549194 C-128.34802825 1396.91707496 -128.34765266 1383.83869307 -128.33943558 1370.76027298 C-128.33116579 1357.51707626 -128.32945363 1344.27390261 -128.33564758 1331.0307045 C-128.3360351 1330.19253153 -128.33642262 1329.35435857 -128.33682188 1328.49078643 C-128.33842179 1325.07673742 -128.34006793 1321.66268845 -128.34177271 1318.2486395 C-128.35761988 1286.49010625 -128.3587261 1254.73158846 -128.35033035 1222.97305298 C-128.35008197 1222.03302916 -128.34983358 1221.09300534 -128.34957767 1220.12449594 C-128.34932888 1219.18296126 -128.34908009 1218.24142658 -128.34882376 1217.27136054 C-128.34125009 1188.57105714 -128.33930196 1159.87076012 -128.34289169 1131.17045593 C-128.34312413 1129.2475241 -128.3433556 1127.32459226 -128.3435861 1125.40166043 C-128.34451752 1117.67396964 -128.34547353 1109.94627885 -128.34646539 1102.21858806 C-128.34921619 1080.61774972 -128.35092816 1059.01691135 -128.35182381 1037.41607285 C-128.35186474 1036.43248895 -128.35190568 1035.44890506 -128.35194786 1034.4355156 C-128.35317539 1003.10202514 -128.34979653 971.76853691 -128.34327507 940.43504715 C-128.34306432 939.41900974 -128.34285358 938.40297233 -128.34263644 937.35614591 C-128.33920171 920.85697935 -128.33554327 904.35781283 -128.33186592 887.85864632 C-128.31729497 822.41338999 -128.31797551 756.96815207 -128.33255768 691.52289581 C-128.3362213 675.02723314 -128.33985448 658.53157047 -128.34327507 642.03590775 C-128.34348641 641.02018408 -128.34369776 640.00446042 -128.34391551 638.95795725 C-128.35038455 607.65313245 -128.3531268 576.34830918 -128.35182381 545.04348373 C-128.35178305 544.06067863 -128.3517423 543.07787353 -128.35170031 542.06528646 C-128.35076286 520.49079056 -128.34886191 498.91629482 -128.3460923 477.34179909 C-128.34510489 469.62233374 -128.34416565 461.9028684 -128.34324016 454.18340305 C-128.343008 452.26304105 -128.34277181 450.34267906 -128.34253158 448.42231707 C-128.33895182 419.72756051 -128.34199811 391.03281115 -128.34957767 362.33805549 C-128.34982605 361.39770049 -128.35007444 360.45734548 -128.35033035 359.48849487 C-128.3505784 358.54987825 -128.35082645 357.61126163 -128.35108201 356.64420209 C-128.35935821 324.98062037 -128.35630963 293.31705718 -128.34048812 261.65347812 C-128.33883108 258.25245889 -128.33722097 254.85143965 -128.33564758 251.45042038 C-128.33525696 250.61576183 -128.33486634 249.78110328 -128.33446388 248.92115205 C-128.32855009 235.71278581 -128.33266282 222.50444264 -128.3409546 209.29607848 C-128.34889653 196.30403657 -128.34609367 183.31203352 -128.33191234 170.31999653 C-128.32461757 163.3722914 -128.32195153 156.42466567 -128.33313029 149.47696337 C-128.34283879 143.15308011 -128.33867853 136.82936145 -128.3235883 130.50549012 C-128.32057379 128.23539881 -128.32254676 125.9652938 -128.33020612 123.69521341 C-128.43943386 88.84131953 -118.73724361 59.33684838 -94.0039444 34.19086456 C-68.07712472 8.69170377 -35.40762746 -0.15951365 0 0 Z " fill="#0A66C1" transform="translate(127.94144439697266,-0.5033645629882813)"/>
<path d="M0 0 C1.04515778 -0.00701431 2.09031555 -0.01402863 3.16714478 -0.02125549 C6.53595333 -0.0386931 9.90458542 -0.04511161 13.2734375 -0.046875 C14.43049194 -0.04754974 15.58754639 -0.04822449 16.77966309 -0.04891968 C36.23754436 -0.03094977 55.3458953 0.71014116 74.6484375 3.203125 C75.32483276 3.29033813 76.00122803 3.37755127 76.69812012 3.46740723 C117.93791288 8.84168416 159.85570941 19.44452795 194.6484375 43.203125 C195.19967285 43.57083008 195.7509082 43.93853516 196.31884766 44.31738281 C204.41675388 49.73701073 211.67560247 55.70379048 218.7109375 62.44140625 C220.68384398 64.32963722 222.70660915 66.10687065 224.8203125 67.8359375 C228.55950567 70.96570416 231.51441863 74.48458674 234.6484375 78.203125 C235.40125 79.05648437 236.1540625 79.90984375 236.9296875 80.7890625 C281.72073087 132.52555246 295.36617321 205.20022721 300.4609375 271.390625 C300.54689178 272.50716965 300.54689178 272.50716965 300.63458252 273.64627075 C300.96400353 278.03328221 301.24529145 282.42172507 301.50516808 286.81334567 C301.59455309 288.30431596 301.6869647 289.79511163 301.78396785 291.28560567 C303.07426828 311.45723743 302.78455397 331.6835981 302.76450312 351.88545704 C302.76014376 357.40386764 302.7616489 362.92227724 302.7624054 368.44068909 C302.76292718 377.97797809 302.75981662 387.51526019 302.75416756 397.05254745 C302.74600553 410.84149542 302.74343254 424.63044009 302.74217957 438.41939022 C302.7399964 460.79652233 302.733365 483.17365124 302.72387695 505.55078125 C302.71467642 527.27506492 302.70761765 548.99934759 302.70336914 570.72363281 C302.7030985 572.09231758 302.70282779 573.46100235 302.70255703 574.82968712 C302.70047114 585.42825029 302.69852051 596.02681349 302.69660246 606.6253767 C302.68718599 658.4846295 302.66706362 710.34387311 302.6484375 762.203125 C228.0684375 762.203125 153.4884375 762.203125 76.6484375 762.203125 C76.59945312 733.823125 76.55046875 705.443125 76.5 676.203125 C76.46461316 658.22004915 76.42874486 640.2369762 76.390625 622.25390625 C76.37061918 612.80419953 76.35073509 603.35449256 76.33105469 593.90478516 C76.32858325 592.72053794 76.32611181 591.53629072 76.32356548 590.31615722 C76.28392548 571.23679414 76.25114831 552.1574252 76.22093768 533.07804513 C76.18974307 513.4744566 76.15109989 493.87089278 76.10564744 474.26733208 C76.07786819 462.18629988 76.05578977 450.1052856 76.04117499 438.02423018 C76.03057313 429.72205003 76.01268855 421.41990474 75.98927046 413.11775094 C75.9760005 408.33918925 75.96575545 403.56067605 75.96422386 398.78209496 C75.9382198 338.89257947 69.31870913 273.94509851 24.6484375 229.203125 C4.93681607 211.01631254 -20.88053932 199.15282179 -47.984375 199 C-49.22266808 198.98941055 -49.22266808 198.98941055 -50.48597717 198.97860718 C-75.10101398 198.56924308 -75.10101398 198.56924308 -99.3515625 202.203125 C-100.2065332 202.41243652 -101.06150391 202.62174805 -101.94238281 202.83740234 C-125.32038024 208.74672441 -147.26108325 217.87416073 -165.3515625 234.203125 C-166.77275391 235.39421875 -166.77275391 235.39421875 -168.22265625 236.609375 C-187.54979228 253.29756528 -199.2964994 275.69387106 -208.3515625 299.203125 C-208.81175781 300.38519531 -209.27195312 301.56726563 -209.74609375 302.78515625 C-219.8512678 330.85508417 -223.49172899 361.65282919 -223.50978088 391.3381958 C-223.51435574 392.94485144 -223.5193571 394.5515059 -223.52474445 396.15815902 C-223.53822981 400.54345333 -223.54571581 404.92873996 -223.55217111 409.31404948 C-223.56021763 414.05417824 -223.57390059 418.79429123 -223.58688354 423.53440857 C-223.60858631 431.73716993 -223.62675329 439.93993293 -223.64248848 448.14270782 C-223.66524381 460.00240444 -223.69337864 471.86208354 -223.72280776 483.72176525 C-223.77041443 502.96538132 -223.81369728 522.20900458 -223.85424805 541.45263672 C-223.89363828 560.14111896 -223.93508402 578.82959481 -223.97924805 597.51806641 C-223.98199755 598.68262411 -223.98474706 599.84718181 -223.98757988 601.04702914 C-224.00910024 610.15523551 -224.03073945 619.2634416 -224.05241621 628.3716476 C-224.15855493 672.98212713 -224.2543313 717.59262345 -224.3515625 762.203125 C-298.9315625 762.203125 -373.5115625 762.203125 -450.3515625 762.203125 C-450.3515625 513.713125 -450.3515625 265.223125 -450.3515625 9.203125 C-380.0615625 9.203125 -309.7715625 9.203125 -237.3515625 9.203125 C-237.3515625 45.173125 -237.3515625 81.143125 -237.3515625 118.203125 C-236.3615625 118.203125 -235.3715625 118.203125 -234.3515625 118.203125 C-234.11308594 117.34976563 -233.87460937 116.49640625 -233.62890625 115.6171875 C-232.21481717 111.83763442 -230.27697296 108.80657042 -227.9140625 105.578125 C-227.47231689 104.96912354 -227.03057129 104.36012207 -226.57543945 103.73266602 C-221.94300194 97.46726372 -216.76902498 91.79302661 -211.3515625 86.203125 C-210.84753906 85.67332031 -210.34351563 85.14351562 -209.82421875 84.59765625 C-201.91351784 76.29240667 -193.55712308 69.0343072 -184.3515625 62.203125 C-183.53099365 61.5834082 -183.53099365 61.5834082 -182.69384766 60.95117188 C-168.26965989 50.08027014 -152.63596557 40.890709 -136.33007812 33.14746094 C-134.27126242 32.16479816 -132.22541728 31.15803074 -130.1796875 30.1484375 C-120.45876727 25.39799814 -110.63917305 21.53675587 -100.3515625 18.203125 C-99.53042969 17.93145508 -98.70929688 17.65978516 -97.86328125 17.37988281 C-66.31659881 7.01015249 -33.2970425 0.15127615 0 0 Z " fill="#FEFEFE" transform="translate(1053.3515625,592.796875)"/>
<path d="M0 0 C74.91 0 149.82 0 227 0 C227.02013078 87.66583789 227.02013078 87.66583789 227.02565002 114.78111267 C227.02584736 115.74816728 227.02604469 116.71522189 227.02624801 117.71158118 C227.0328696 150.24896921 227.03812175 182.7863573 227.04234314 215.32374573 C227.04255023 216.9158372 227.04255023 216.9158372 227.04276149 218.54009213 C227.04575403 241.60412279 227.04852427 264.66815348 227.05106533 287.7321842 C227.05231272 299.04191512 227.05360927 310.35164604 227.05493164 321.66137695 C227.0550624 322.78686274 227.05519316 323.91234853 227.05532788 325.07193995 C227.05959324 361.5868135 227.06710753 398.10168551 227.07629722 434.61655813 C227.08571958 472.12382818 227.09188306 509.63109739 227.09391499 547.1383686 C227.09420317 552.42960294 227.0945288 557.72083728 227.09487724 563.01207161 C227.09497838 564.57423894 227.09497838 564.57423894 227.09508156 566.16796521 C227.0962657 582.96799397 227.10091027 599.76802009 227.10683203 616.56804777 C227.11270455 633.43614953 227.11497169 650.30424867 227.11350138 667.17235141 C227.11273775 677.2079476 227.11479558 687.24353423 227.12079754 697.27912871 C227.12452755 703.96985098 227.12467778 710.66056695 227.12183181 717.35128965 C227.12031169 721.171911 227.12042875 724.99251419 227.12488318 728.81313365 C227.12962893 732.91446024 227.12676673 737.01574449 227.12304783 741.11707211 C227.12698835 742.92523976 227.12698835 742.92523976 227.13100848 744.76993605 C227.12876118 745.8515465 227.12651389 746.93315695 227.1241985 748.04754347 C227.12435448 748.98701477 227.12451046 749.92648607 227.12467116 750.89442619 C227 753 227 753 226 754 C151.42 754 76.84 754 0 754 C0 505.18 0 256.36 0 0 Z " fill="#FEFEFE" transform="translate(226,602)"/>
<path d="M0 0 C1.21558594 0.26683594 2.43117188 0.53367188 3.68359375 0.80859375 C25.26935168 5.94805992 44.38601254 16.39826568 61 31 C61.85078125 31.72960937 62.7015625 32.45921875 63.578125 33.2109375 C91.35164206 57.49146622 107.39864534 92.41101153 110 129 C112.40204978 165.68585117 99.71282017 202.44685824 75.61328125 230.00390625 C74.1213741 231.71435884 72.64718045 233.44160858 71.23046875 235.21484375 C65.81192129 241.92286833 58.86412749 246.87098256 52 252 C51.14148438 252.65226563 50.28296875 253.30453125 49.3984375 253.9765625 C19.89395434 275.58686956 -18.45323144 283.23950521 -54.31591797 277.87280273 C-71.14671627 274.95510185 -86.02538959 269.08306928 -101 261 C-102.0828125 260.4225 -103.165625 259.845 -104.28125 259.25 C-111.52127644 255.21946982 -117.7689958 250.44430639 -124 245 C-125.39412109 243.80697266 -125.39412109 243.80697266 -126.81640625 242.58984375 C-155.34758667 217.55065759 -170.18642187 181.73176397 -173.20703125 144.44433594 C-175.462101 106.0598273 -160.41743222 70.2270654 -135.5 41.75 C-101.60264081 5.07222915 -48.88248234 -12.07684858 0 0 Z " fill="#FEFEFE" transform="translate(371,201)"/>
<path d="M0 0 C74.91 0 149.82 0 227 0 C227.02013078 87.66583789 227.02013078 87.66583789 227.02565002 114.78111267 C227.02584736 115.74816728 227.02604469 116.71522189 227.02624801 117.71158118 C227.0328696 150.24896921 227.03812175 182.7863573 227.04234314 215.32374573 C227.04255023 216.9158372 227.04255023 216.9158372 227.04276149 218.54009213 C227.04575403 241.60412279 227.04852427 264.66815348 227.05106533 287.7321842 C227.05231272 299.04191512 227.05360927 310.35164604 227.05493164 321.66137695 C227.0550624 322.78686274 227.05519316 323.91234853 227.05532788 325.07193995 C227.05959324 361.5868135 227.06710753 398.10168551 227.07629722 434.61655813 C227.08571958 472.12382818 227.09188306 509.63109739 227.09391499 547.1383686 C227.09420317 552.42960294 227.0945288 557.72083728 227.09487724 563.01207161 C227.09497838 564.57423894 227.09497838 564.57423894 227.09508156 566.16796521 C227.0962657 582.96799397 227.10091027 599.76802009 227.10683203 616.56804777 C227.11270455 633.43614953 227.11497169 650.30424867 227.11350138 667.17235141 C227.11273775 677.2079476 227.11479558 687.24353423 227.12079754 697.27912871 C227.12452755 703.96985098 227.12467778 710.66056695 227.12183181 717.35128965 C227.12031169 721.171911 227.12042875 724.99251419 227.12488318 728.81313365 C227.12962893 732.91446024 227.12676673 737.01574449 227.12304783 741.11707211 C227.12698835 742.92523976 227.12698835 742.92523976 227.13100848 744.76993605 C227.12876118 745.8515465 227.12651389 746.93315695 227.1241985 748.04754347 C227.12435448 748.98701477 227.12451046 749.92648607 227.12467116 750.89442619 C227 753 227 753 226 754 C151.42 754 76.84 754 0 754 C0 505.18 0 256.36 0 0 Z M213.20489502 1.03796387 C212.30717935 1.04204742 211.40946369 1.04613097 210.48454452 1.05033827 C207.47049021 1.06407094 204.45643652 1.07793435 201.44238281 1.09179688 C199.28418481 1.10165681 197.12598677 1.11150871 194.9677887 1.12135315 C189.10250976 1.14812999 183.23723134 1.17501964 177.37195301 1.20192909 C171.24469342 1.23002146 165.11743335 1.2580107 158.99017334 1.28601074 C147.38449373 1.33906153 135.77881455 1.39220545 124.17313552 1.4453826 C110.96168615 1.50591285 97.7502363 1.56633964 84.53878641 1.62675762 C57.35919041 1.75105639 30.17959501 1.87548549 3 2 C2.06866284 5.16151601 1.87324628 7.99617361 1.86938947 11.28657985 C1.86570876 12.36633167 1.86202805 13.44608349 1.85823581 14.55855507 C1.85925847 15.74649306 1.86028114 16.93443105 1.8613348 18.15836716 C1.85849258 19.42419768 1.85565036 20.6900282 1.85272202 21.99421722 C1.84493359 25.5256998 1.84337933 29.05716238 1.8427946 32.5886525 C1.84106902 36.42379433 1.83358561 40.2589255 1.82681805 44.09406114 C1.81574659 50.82145785 1.80838364 57.54885078 1.80341911 64.27625465 C1.79602035 74.27972175 1.78293889 84.28317572 1.76867336 94.28663509 C1.74484059 111.11251129 1.72564577 127.93838981 1.70907402 144.7642746 C1.69264558 161.42934234 1.67416812 178.09440573 1.65294075 194.75946808 C1.65162314 195.79479416 1.65030554 196.83012025 1.648948 197.89681985 C1.64224612 203.15449761 1.6355075 208.41217531 1.62875474 213.669853 C1.58096351 250.93142772 1.53778659 288.19300651 1.49731445 325.45458984 C1.45798037 361.65869441 1.41656169 397.86279562 1.37231445 434.06689453 C1.37095192 435.18242819 1.36958939 436.29796185 1.36818558 437.44729957 C1.35450046 448.64972088 1.3407729 459.85214214 1.32701423 471.05456336 C1.29898602 493.87615799 1.27124117 516.69775296 1.2436676 539.51934814 C1.2423994 540.56869921 1.2411312 541.61805028 1.23982458 542.69919986 C1.20095968 574.869676 1.16329607 607.04015339 1.1268158 639.21063232 C1.1257794 640.12417197 1.12474301 641.03771162 1.12367522 641.97893429 C1.08170974 678.98595537 1.04101458 715.99297786 1 753 C75.25 753 149.5 753 226 753 C226 504.84 226 256.68 226 1 C221.73487279 1 217.4699624 1.01821869 213.20489502 1.03796387 Z " fill="#A8CCEA" transform="translate(226,602)"/>
<path d="M0 0 C70.29 0 140.58 0 213 0 C213 0.33 213 0.66 213 1 C143.37 1 73.74 1 2 1 C2.33 248.5 2.66 496 3 751 C112.395 750.505 112.395 750.505 224 750 C223.98839844 723.15527344 223.97679687 696.31054688 223.96484375 668.65234375 C223.9597366 651.68554681 223.95487541 634.71875034 223.95117188 617.75195312 C223.94921396 608.84187824 223.94719346 599.93180337 223.94506836 591.02172852 C223.94480461 589.90497201 223.94454086 588.7882155 223.94426912 587.63761789 C223.93991799 569.6006277 223.93203316 551.56364069 223.9228472 533.52665239 C223.91350076 515.0204057 223.90794228 496.51416069 223.90591151 478.00791174 C223.90453834 466.58554252 223.90019889 455.16318228 223.89208353 443.74081583 C223.88680387 435.91160205 223.8851985 428.08239294 223.88649862 420.25317752 C223.88714008 415.7339345 223.88614606 411.21470722 223.88079453 406.695467 C223.87593099 402.55816352 223.87568083 398.42088637 223.87910111 394.28358168 C223.87952388 392.78683125 223.87825309 391.29007918 223.87511682 389.79333197 C223.87109951 387.7577632 223.87386598 385.72218443 223.87695217 383.68661404 C223.87657245 382.55618661 223.87619273 381.42575919 223.8758015 380.26107639 C224.00822341 376.78407828 224.45148471 373.43396095 225 370 C225.33 370 225.66 370 226 370 C226 496.39 226 622.78 226 753 C151.42 753 76.84 753 0 753 C0 504.51 0 256.02 0 0 Z " fill="#E0FAFE" transform="translate(603,602)"/>
<path d="M0 0 C0.66 0 1.32 0 2 0 C2 248.49 2 496.98 2 753 C76.58 753 151.16 753 228 753 C228 753.66 228 754.32 228 755 C199.09856538 755.02279016 170.19713181 755.04049807 141.29568997 755.05106533 C137.88714942 755.0523161 134.47860889 755.05361042 131.07006836 755.05493164 C130.39146112 755.05519395 129.71285387 755.05545626 129.01368278 755.05572652 C118.01156081 755.06008325 107.00944405 755.06797081 96.00732518 755.0771528 C84.72640704 755.08648925 73.44549151 755.09198069 62.16456932 755.09408849 C55.82477586 755.09539603 49.48499422 755.09848456 43.14520454 755.10573006 C37.18554372 755.11248633 31.22589964 755.11461777 25.26623535 755.11310768 C23.07196398 755.11338419 20.87769207 755.11539163 18.683424 755.11920547 C15.70161244 755.12413659 12.71986522 755.12300045 9.73805237 755.12025452 C8.85771995 755.12316736 7.97738752 755.1260802 7.07037836 755.12908131 C1.11412121 755.11412121 1.11412121 755.11412121 0 754 C-0.10002878 752.35201338 -0.12944861 750.69971209 -0.13176119 749.04869413 C-0.13569813 747.96733991 -0.13963506 746.88598569 -0.1436913 745.77186316 C-0.14295448 744.56670391 -0.14221766 743.36154465 -0.14145851 742.11986542 C-0.14460033 740.84766578 -0.14774214 739.57546615 -0.15097916 738.26471502 C-0.15963395 734.70137771 -0.1619936 731.13805873 -0.16340676 727.57471219 C-0.16602395 723.71023755 -0.17439153 719.84577486 -0.18204916 715.98130751 C-0.194682 709.19772939 -0.20356425 702.41415422 -0.21003914 695.63056755 C-0.21967738 685.54345617 -0.2349893 675.45635907 -0.25145121 665.36925681 C-0.28065124 647.35802911 -0.30410829 629.3467973 -0.32515697 611.33555843 C-0.34358868 595.5740395 -0.3638649 579.81252431 -0.38599777 564.05101013 C-0.3874605 563.00730487 -0.38892324 561.96359961 -0.39043029 560.88826692 C-0.3963686 556.65199814 -0.40231394 552.41572937 -0.4082709 548.17946061 C-0.4641652 508.40413847 -0.51422173 468.62881082 -0.56168602 428.85347783 C-0.60393243 393.48124963 -0.65135036 358.10903191 -0.703125 322.73681641 C-0.76121708 283.03629334 -0.81608596 243.335768 -0.86572587 203.6352334 C-0.87102208 199.40648555 -0.87632623 195.17773771 -0.88163376 190.94898987 C-0.88293783 189.90769148 -0.8842419 188.86639309 -0.8855855 187.79354021 C-0.90537372 172.0382551 -0.92764224 156.28297473 -0.9510994 140.5276947 C-0.97774509 122.62117864 -1.00084073 104.71466197 -1.01918437 86.80813539 C-1.02956374 76.77475237 -1.04272849 66.74138196 -1.05982267 56.70800809 C-1.0709435 50.01880256 -1.07846719 43.32959943 -1.08297553 36.64038619 C-1.08565243 32.82064385 -1.08996241 29.00092146 -1.09860714 25.18118757 C-1.10784819 21.08082862 -1.10946657 16.98050384 -1.11022377 12.88013458 C-1.11416928 11.67497533 -1.11811479 10.46981607 -1.12217987 9.22813684 C-1.12110976 8.14678262 -1.12003966 7.0654284 -1.11893713 5.95130587 C-1.12011722 5.01205831 -1.12129731 4.07281075 -1.12251315 3.10510114 C-1 1 -1 1 0 0 Z " fill="#1B68AC" transform="translate(601,602)"/>
<path d="M0 0 C5.88988947 -0.02475223 11.77974854 -0.04288482 17.66967773 -0.05493164 C19.67261279 -0.05995478 21.67554419 -0.06677445 23.6784668 -0.07543945 C26.56039331 -0.08759345 29.44227125 -0.09324857 32.32421875 -0.09765625 C33.66355721 -0.10539818 33.66355721 -0.10539818 35.029953 -0.11329651 C39.18485972 -0.11366989 42.93265587 0.0798957 47 1 C48.94836482 1.13113019 50.89968162 1.22224476 52.8515625 1.28125 C53.94984375 1.31863281 55.048125 1.35601563 56.1796875 1.39453125 C58.4843677 1.46508268 60.78905527 1.53539357 63.09375 1.60546875 C64.73730469 1.66154297 64.73730469 1.66154297 66.4140625 1.71875 C67.4138916 1.74904297 68.4137207 1.77933594 69.44384766 1.81054688 C72 2 72 2 75 3 C78.35279172 3.3075172 81.70619297 3.5089708 85.06640625 3.71875 C88 4 88 4 90 5 C92.23502647 5.23299504 94.46842524 5.38093672 96.7109375 5.5234375 C99.43447484 6.09045381 100.90462956 7.21080241 103 9 C101.37580128 8.79697516 99.75160858 8.59390204 98.12744141 8.390625 C96.68190273 8.21014002 95.23626062 8.03048198 93.79052734 7.8515625 C90.28703935 7.41692776 86.7869005 6.97083902 83.2890625 6.4921875 C55.29997184 2.7324589 27.19286107 2.44440881 -1 2 C-0.67 1.34 -0.34 0.68 0 0 Z " fill="#1D68B0" transform="translate(1049,591)"/>
<path d="M0 0 C0.33 0 0.66 0 1 0 C1.33 33 1.66 66 2 100 C2.33 99.01 2.66 98.02 3 97 C5.97 96.505 5.97 96.505 9 96 C7.02 99.63 5.04 103.26 3 107 C2.01 107 1.02 107 0 107 C0 71.69 0 36.38 0 0 Z " fill="#2E71B5" transform="translate(816,604)"/>
<path d="M0 0 C0.33 0 0.66 0 1 0 C1.66509667 13.34261759 2.16139646 26.63995943 2 40 C1.67 40 1.34 40 1 40 C-0.41113416 32.16316563 -1.19412797 24.57690196 -1.1875 16.625 C-1.18814453 15.88910645 -1.18878906 15.15321289 -1.18945312 14.39501953 C-1.14121237 9.52599263 -0.68020407 4.82128647 0 0 Z " fill="#CDE9F6" transform="translate(199,322)"/>
<path d="M0 0 C12.57169901 1.59163284 24.78572233 3.59658741 37 7 C37 7.33 37 7.66 37 8 C31.55929799 7.65092841 26.45373239 6.93752016 21.1875 5.5 C15.65886225 4.02282831 10.3227189 3.49826642 4.6171875 3.2109375 C2 3 2 3 0 2 C0 1.34 0 0.68 0 0 Z " fill="#D1EFFB" transform="translate(1139,598)"/>
<path d="M0 0 C0.33 0 0.66 0 1 0 C1.33893581 3.83285925 1.67012787 7.66635091 2 11.5 C2.14308594 13.11648438 2.14308594 13.11648438 2.2890625 14.765625 C2.78162326 20.53562244 3.11244203 26.20923553 3 32 C0.813061 27.62612199 -0.12180602 25.09204044 -0.09765625 20.1171875 C-0.09443359 18.95058594 -0.09121094 17.78398438 -0.08789062 16.58203125 C-0.07951172 15.35871094 -0.07113281 14.13539063 -0.0625 12.875 C-0.05798828 11.64394531 -0.05347656 10.41289063 -0.04882812 9.14453125 C-0.0370133 6.09630608 -0.02054028 3.04817686 0 0 Z " fill="#CEEAF7" transform="translate(1351,844)"/>
<path d="M0 0 C11.40006475 -0.43291385 22.67204206 0.86297059 34 2 C34 2.33 34 2.66 34 3 C26.08 3 18.16 3 10 3 C10 2.34 10 1.68 10 1 C6.7 1 3.4 1 0 1 C0 0.67 0 0.34 0 0 Z " fill="#CDE9F6" transform="translate(1094,594)"/>
<path d="M0 0 C1.32 0.33 2.64 0.66 4 1 C3.95875 2.0725 3.9175 3.145 3.875 4.25 C3.98857072 7.65712165 4.10464685 9.26226767 6 12 C6.66 12.33 7.32 12.66 8 13 C8.16702456 17.34263862 8.12999997 20.20960634 6 24 C4.99589032 20.37612543 3.99741092 16.75072349 3 13.125 C2.71382812 12.09246094 2.42765625 11.05992187 2.1328125 9.99609375 C1.86210938 9.00996094 1.59140625 8.02382813 1.3125 7.0078125 C1.06113281 6.09660645 0.80976562 5.18540039 0.55078125 4.24658203 C0 2 0 2 0 0 Z " fill="#1668B3" transform="translate(1336,764)"/>
<path d="M0 0 C3.3 0 6.6 0 10 0 C6.80917777 1.59541111 4.25397206 2.58906038 0.8671875 3.5078125 C-0.10347656 3.77207031 -1.07414063 4.03632812 -2.07421875 4.30859375 C-3.58435547 4.71271484 -3.58435547 4.71271484 -5.125 5.125 C-6.13949219 5.40214844 -7.15398438 5.67929687 -8.19921875 5.96484375 C-15.72829433 8 -15.72829433 8 -18 8 C-18 7.34 -18 6.68 -18 6 C-16.68 6 -15.36 6 -14 6 C-14 5.34 -14 4.68 -14 4 C-4.58997722 1.70387244 -4.58997722 1.70387244 0 2 C0 1.34 0 0.68 0 0 Z " fill="#226AB7" transform="translate(978,601)"/>
<path d="M0 0 C-9.53780827 3.95329679 -9.53780827 3.95329679 -13.875 5.125 C-16.92413487 5.85381102 -16.92413487 5.85381102 -19.1875 7.1875 C-21.51578031 8.23121186 -22.60958754 7.69782227 -25 7 C-19.38001309 4.59415112 -13.75550556 2.19083255 -8 0.125 C-7.319375 -0.11992188 -6.63875 -0.36484375 -5.9375 -0.6171875 C-3.65981809 -1.06721336 -2.18720817 -0.71279552 0 0 Z " fill="#2A71B5" transform="translate(946,798)"/>
<path d="M0 0 C2 2 2 2 2 6 C1.34 6 0.68 6 0 6 C0.309375 7.423125 0.309375 7.423125 0.625 8.875 C0.74875 9.90625 0.8725 10.9375 1 12 C0.34 12.66 -0.32 13.32 -1 14 C-1.16687448 16.58354218 -1.16687448 16.58354218 -1 19 C-1.99 19.33 -2.98 19.66 -4 20 C-4 20.66 -4 21.32 -4 22 C-4.66 21.67 -5.32 21.34 -6 21 C-4.02 14.07 -2.04 7.14 0 0 Z " fill="#2972B8" transform="translate(477,368)"/>
<path d="M0 0 C0.33 0 0.66 0 1 0 C1.15639125 5.06316683 0.62766071 9.50398438 -0.5 14.4375 C-0.7784375 15.67371094 -1.056875 16.90992188 -1.34375 18.18359375 C-1.5603125 19.11300781 -1.776875 20.04242188 -2 21 C-2.66 21 -3.32 21 -4 21 C-3.54034292 13.69303751 -2.11670277 7.00242552 0 0 Z " fill="#3981C9" transform="translate(5,79)"/>
<path d="M0 0 C2.140625 0.3984375 2.140625 0.3984375 4 1 C3.24266726 2.3410477 2.46867264 3.67269781 1.6875 5 C1.25824219 5.7425 0.82898438 6.485 0.38671875 7.25 C-0.07089844 7.8275 -0.52851562 8.405 -1 9 C-1.99 9 -2.98 9 -4 9 C-4.37010337 5.6690697 -4.27461204 4.37268777 -2.25 1.625 C-1.5075 1.08875 -0.765 0.5525 0 0 Z " fill="#1A6BB6" transform="translate(821,700)"/>
<path d="M0 0 C0.33 1.32 0.66 2.64 1 4 C-0.4375 5.625 -0.4375 5.625 -2 7 C-2 7.66 -2 8.32 -2 9 C-4.375 10.6875 -4.375 10.6875 -7 12 C-7.66 11.67 -8.32 11.34 -9 11 C-6.03 7.37 -3.06 3.74 0 0 Z " fill="#256DB8" transform="translate(454,421)"/>
<path d="M0 0 C2.31 0 4.62 0 7 0 C7 1.32 7 2.64 7 4 C7.66 4 8.32 4 9 4 C9 4.66 9 5.32 9 6 C9.639375 6.28875 10.27875 6.5775 10.9375 6.875 C13 8 13 8 14 10 C10.67312232 8.45315734 7.75296022 6.54045021 4.75 4.4375 C3.85796875 3.81746094 2.9659375 3.19742188 2.046875 2.55859375 C1.37140625 2.04425781 0.6959375 1.52992188 0 1 C0 0.67 0 0.34 0 0 Z " fill="#236FB3" transform="translate(415,219)"/>
<path d="M0 0 C0.625 1.8125 0.625 1.8125 1 4 C0.01 5.485 0.01 5.485 -1 7 C-1.66 7 -2.32 7 -3 7 C-3 7.99 -3 8.98 -3 10 C-4.98 10.99 -4.98 10.99 -7 12 C-5.44298069 7.32894208 -2.91552627 3.91294315 0 0 Z " fill="#2671B6" transform="translate(866,850)"/>
<path d="M0 0 C0 4.57518283 -2.66845413 7.32109434 -5.4375 10.8125 C-7.52134157 12.39621959 -9.43815472 12.65380469 -12 13 C-11.319375 12.34 -10.63875 11.68 -9.9375 11 C-6.43274653 7.50531766 -3.22778212 3.74869221 0 0 Z " fill="#256EB4" transform="translate(444,433)"/>
<path d="M0 0 C0.33 0 0.66 0 1 0 C1.34548714 6.33393082 0.29342747 11.10261508 -2 17 C-2.33 17 -2.66 17 -3 17 C-2.54775239 11.08507728 -1.8417395 5.64800112 0 0 Z " fill="#D0EDF9" transform="translate(204,297)"/>
<path d="M0 0 C2 3 2 3 2 7 C0.02 7.66 -1.96 8.32 -4 9 C-2.94124926 5.59687262 -1.99097846 2.98646769 0 0 Z " fill="#2D7BD0" transform="translate(14,60)"/>
<path d="M0 0 C12.66970387 -0.3690205 12.66970387 -0.3690205 18 2 C18 2.33 18 2.66 18 3 C15.36 3 12.72 3 10 3 C10 2.34 10 1.68 10 1 C6.7 1 3.4 1 0 1 C0 0.67 0 0.34 0 0 Z " fill="#E0F5FB" transform="translate(1094,594)"/>
<path d="M0 0 C3.85103301 0.53675903 5.31797587 2.11600923 7.75 5.0625 C8.36359375 5.79597656 8.9771875 6.52945312 9.609375 7.28515625 C10.06828125 7.85105469 10.5271875 8.41695313 11 9 C10.67 9.66 10.34 10.32 10 11 C9.34 11 8.68 11 8 11 C7 9.33333333 6 7.66666667 5 6 C3.35259924 4.3142876 1.68933922 2.6436814 0 1 C0 0.67 0 0.34 0 0 Z " fill="#2970B8" transform="translate(225,425)"/>
<path d="M0 0 C5.23175837 -0.38281159 8.37802694 0.78145293 13 3 C13 3.33 13 3.66 13 4 C11.58297487 3.85769192 10.1663904 3.71099254 8.75 3.5625 C7.56664063 3.44068359 7.56664063 3.44068359 6.359375 3.31640625 C4.17635361 3.02365007 2.1226818 2.57935581 0 2 C0 1.34 0 0.68 0 0 Z " fill="#357FCA" transform="translate(71,1576)"/>
<path d="M0 0 C0.99 0.33 1.98 0.66 3 1 C4.4158649 3.91038896 5.29922267 6.846502 6 10 C5.01 10.495 5.01 10.495 4 11 C3.32880451 9.5437455 2.66318193 8.08492133 2 6.625 C1.62875 5.81289062 1.2575 5.00078125 0.875 4.1640625 C0 2 0 2 0 0 Z " fill="#327DC4" transform="translate(8,1515)"/>
<path d="M0 0 C4.62 0.66 9.24 1.32 14 2 C14 2.33 14 2.66 14 3 C12.04174127 3.02694851 10.08337774 3.04637218 8.125 3.0625 C7.03445313 3.07410156 5.94390625 3.08570313 4.8203125 3.09765625 C2 3 2 3 0 2 C0 1.34 0 0.68 0 0 Z " fill="#DDF4FD" transform="translate(1139,598)"/>
<path d="M0 0 C-0.61875 0.28875 -1.2375 0.5775 -1.875 0.875 C-4.13325765 1.93720042 -4.13325765 1.93720042 -6 4 C-9.625 3.625 -9.625 3.625 -13 3 C-8.8341563 0.22277086 -4.9360889 -1.89849573 0 0 Z " fill="#D5EFFA" transform="translate(303,204)"/>
<path d="M0 0 C1.32 0.99 2.64 1.98 4 3 C0.04 4.98 0.04 4.98 -4 7 C-4 5.68 -4 4.36 -4 3 C-3.01 3 -2.02 3 -1 3 C-0.67 2.01 -0.34 1.02 0 0 Z " fill="#2E75D0" transform="translate(1520,1557)"/>
<path d="M0 0 C-0.66 1.65 -1.32 3.3 -2 5 C-4.31 5.33 -6.62 5.66 -9 6 C-3.2 0 -3.2 0 0 0 Z " fill="#E1F8FD" transform="translate(266,219)"/>
<path d="M0 0 C0 0.33 0 0.66 0 1 C-3.3 1 -6.6 1 -10 1 C-10 1.66 -10 2.32 -10 3 C-12.64 2.67 -15.28 2.34 -18 2 C-18 1.67 -18 1.34 -18 1 C-12.03325384 -0.32594359 -6.07416385 -0.0884587 0 0 Z " fill="#398EDB" transform="translate(116,0)"/>
<path d="M0 0 C0.75 1.75 0.75 1.75 1 4 C-0.875 6.0625 -0.875 6.0625 -3 8 C-3.33 8.99 -3.66 9.98 -4 11 C-4.66 11 -5.32 11 -6 11 C-4.54955729 6.89041233 -2.48889248 3.56741255 0 0 Z " fill="#D5F4FD" transform="translate(826,698)"/>
<path d="M0 0 C0.6875 1.8125 0.6875 1.8125 1 4 C-0.86245982 6.54862922 -3.15616877 7.7251791 -6 9 C-4.47291037 5.56404834 -2.40072955 2.88087546 0 0 Z " fill="#3C7FD0" transform="translate(28,40)"/>
<path d="M0 0 C0.33 0.66 0.66 1.32 1 2 C-0.21480305 5.42353587 -2.01771223 7.01180815 -5 9 C-5.66 8.67 -6.32 8.34 -7 8 C-4.69 5.36 -2.38 2.72 0 0 Z " fill="#3074B9" transform="translate(878,835)"/>
<path d="M0 0 C2.31 0 4.62 0 7 0 C4.6870518 2.3129482 3.52095125 2.49580975 0.375 3.125 C-0.44226563 3.29257812 -1.25953125 3.46015625 -2.1015625 3.6328125 C-3.04128906 3.81457031 -3.04128906 3.81457031 -4 4 C-4 3.34 -4 2.68 -4 2 C-2.68 2 -1.36 2 0 2 C0 1.34 0 0.68 0 0 Z " fill="#2A71B4" transform="translate(964,605)"/>
<path d="M0 0 C3.9492568 0.55105909 7.34920174 1.38935371 11 3 C11 3.66 11 4.32 11 5 C6.87248551 4.39301257 3.6678852 2.96189209 0 1 C0 0.67 0 0.34 0 0 Z " fill="#D7EFFA" transform="translate(273,463)"/>
<path d="M0 0 C0.33 0.66 0.66 1.32 1 2 C0.22265625 4.1640625 0.22265625 4.1640625 -0.9375 6.625 C-1.31777344 7.44226563 -1.69804687 8.25953125 -2.08984375 9.1015625 C-2.39019531 9.72804688 -2.69054687 10.35453125 -3 11 C-3.66 11 -4.32 11 -5 11 C-3.77472971 6.94718288 -2.30119506 3.55639236 0 0 Z " fill="#296FB3" transform="translate(466,401)"/>
<path d="M0 0 C1.32 0.33 2.64 0.66 4 1 C4 2.32 4 3.64 4 5 C3.34 5 2.68 5 2 5 C1.67 5.99 1.34 6.98 1 8 C0.67 5.36 0.34 2.72 0 0 Z " fill="#2C78CF" transform="translate(4,1500)"/>
<path d="M0 0 C1.32 0.33 2.64 0.66 4 1 C3.67 3.97 3.34 6.94 3 10 C1.19669467 6.39338934 0.53400897 3.91606575 0 0 Z " fill="#2F7BBB" transform="translate(1336,764)"/>
<path d="M0 0 C0.33 0.66 0.66 1.32 1 2 C-0.65 3.65 -2.3 5.3 -4 7 C-4.99 6.67 -5.98 6.34 -7 6 C-4.69 4.02 -2.38 2.04 0 0 Z " fill="#DAF4FD" transform="translate(866,657)"/>
<path d="M0 0 C0.99 0.66 1.98 1.32 3 2 C0.69 3.32 -1.62 4.64 -4 6 C-4 4.68 -4 3.36 -4 2 C-2.68 1.34 -1.36 0.68 0 0 Z " fill="#1A69B0" transform="translate(889,638)"/>
<path d="M0 0 C-0.99 1.485 -0.99 1.485 -2 3 C-4.1640625 3.29296875 -4.1640625 3.29296875 -6.625 3.1875 C-7.44226563 3.16042969 -8.25953125 3.13335938 -9.1015625 3.10546875 C-10.04128906 3.05326172 -10.04128906 3.05326172 -11 3 C-8.15930939 0.15930939 -3.81147953 -1.90573977 0 0 Z " fill="#D7F1FC" transform="translate(964,609)"/>
<path d="M0 0 C7.75 -0.125 7.75 -0.125 10 1 C10 1.66 10 2.32 10 3 C6.7 2.34 3.4 1.68 0 1 C0 0.67 0 0.34 0 0 Z " fill="#3176B8" transform="translate(364,199)"/>
<path d="M0 0 C2.29633824 3.44450737 2.54016485 5.93812283 3 10 C2.34 10 1.68 10 1 10 C1 9.34 1 8.68 1 8 C0.34 7.67 -0.32 7.34 -1 7 C-0.67 4.69 -0.34 2.38 0 0 Z " fill="#3982CF" transform="translate(1577,80)"/>
<path d="M0 0 C0.66 0.33 1.32 0.66 2 1 C1.375 3.4375 1.375 3.4375 0 6 C-3.125 6.8125 -3.125 6.8125 -6 7 C-4.02 4.69 -2.04 2.38 0 0 Z " fill="#3884CF" transform="translate(40,28)"/>
<path d="M0 0 C1.1875 1.5 1.1875 1.5 2 4 C1.27101296 6.78824238 0.1843275 9.37665092 -1 12 C-2.45606519 7.47907032 -1.27032841 4.48351204 0 0 Z " fill="#2C72B2" transform="translate(837,916)"/>
<path d="M0 0 C4.42857143 5.14285714 4.42857143 5.14285714 5 9 C4.34 8.67 3.68 8.34 3 8 C3 7.34 3 6.68 3 6 C2.01 6 1.02 6 0 6 C0 4.02 0 2.04 0 0 Z " fill="#2169B3" transform="translate(1098,847)"/>
<path d="M0 0 C0.66 0.33 1.32 0.66 2 1 C1.01 1.33 0.02 1.66 -1 2 C-1 2.66 -1 3.32 -1 4 C-2.875 4.625 -2.875 4.625 -5 5 C-5.66 4.34 -6.32 3.68 -7 3 C-4.69631264 1.93347808 -2.35981813 0.93578995 0 0 Z " fill="#D9F3FA" transform="translate(932,619)"/>
<path d="M0 0 C2.9375 0.75 2.9375 0.75 6 2 C6.875 4.125 6.875 4.125 7 6 C1.125 2.25 1.125 2.25 0 0 Z " fill="#3781D1" transform="translate(35,1557)"/>
<path d="M0 0 C1.0625 1.875 1.0625 1.875 2 4 C1.67 4.66 1.34 5.32 1 6 C0.34 6 -0.32 6 -1 6 C-1 5.34 -1 4.68 -1 4 C-1.99 3.67 -2.98 3.34 -4 3 C-2.68 2.01 -1.36 1.02 0 0 Z " fill="#1D69B3" transform="translate(901,816)"/>
<path d="M0 0 C0.99 0 1.98 0 3 0 C1.63016497 3.16115776 1.0109362 3.9927092 -2 6 C-2.33 5.34 -2.66 4.68 -3 4 C-2.67 3.34 -2.34 2.68 -2 2 C-1.34 2 -0.68 2 0 2 C0 1.34 0 0.68 0 0 Z " fill="#CFEAF8" transform="translate(438,436)"/>
<path d="M0 0 C-0.33 1.65 -0.66 3.3 -1 5 C-1.66 5 -2.32 5 -3 5 C-3 4.34 -3 3.68 -3 3 C-4.32 3.33 -5.64 3.66 -7 4 C-3.17391304 0 -3.17391304 0 0 0 Z " fill="#DDF4FD" transform="translate(273,215)"/>
<path d="M0 0 C3.93673644 1.31224548 6.22719294 2.91910327 9 6 C2.35384615 4.52307692 2.35384615 4.52307692 0.5625 1.875 C0.376875 1.25625 0.19125 0.6375 0 0 Z " fill="#3D86CA" transform="translate(1530,18)"/>
</svg>
