<?xml version="1.0" encoding="UTF-8"?>
<svg version="1.1" xmlns="http://www.w3.org/2000/svg" width="512" height="512">
<path d="M0 0 C168.96 0 337.92 0 512 0 C512 168.96 512 337.92 512 512 C343.04 512 174.08 512 0 512 C0 343.04 0 174.08 0 0 Z " fill="#000000" transform="translate(0,0)"/>
<path d="M0 0 C1.21816406 0.88751953 1.21816406 0.88751953 2.4609375 1.79296875 C25.79043162 19.63966378 41.92430446 45.23751365 46.49609375 74.43359375 C50.22277623 103.66208933 43.24985954 132.9420326 25.91796875 156.875 C17.69723619 167.30274005 8.35672581 177.02396173 -3 184 C-4.08152344 184.66773438 -5.16304687 185.33546875 -6.27734375 186.0234375 C-30.22950634 200.44163439 -57.7437157 204.76245964 -85.3125 199.875 C-115.26453328 192.41314305 -141.08067998 174.30088774 -157.23657227 147.9140625 C-161.87737408 140.00759408 -165.2645715 131.7369175 -168 123 C-168.21172852 122.33613281 -168.42345703 121.67226563 -168.64160156 120.98828125 C-174.1657944 102.88363657 -174.57195669 81.11488949 -169 63 C-168.73316406 61.95972656 -168.46632813 60.91945313 -168.19140625 59.84765625 C-160.6615293 32.23810743 -141.62903418 9.05950269 -117.125 -5.25 C-80.91726282 -25.61115833 -33.95705766 -24.94239903 0 0 Z " fill="#FEFEFE" transform="translate(234,165)"/>
<path d="M0 0 C8.58394173 0.14943032 15.89291827 4.86070746 22.1875 10.3125 C22.78304687 10.82554687 23.37859375 11.33859375 23.9921875 11.8671875 C43.86922877 30.33075028 52.31570539 64.15699223 53.39599609 90.37475586 C53.5136276 94.56258768 53.52105547 98.74834859 53.5 102.9375 C53.49850952 103.67618317 53.49701904 104.41486633 53.4954834 105.17593384 C53.38204722 136.58717434 47.05201712 173.59904905 23.921875 196.78125 C20.25581868 200.17497071 16.60201045 202.97395822 12.1875 205.3125 C11.55585938 205.64894531 10.92421875 205.98539063 10.2734375 206.33203125 C3.8622621 209.2210177 -3.65074028 209.55149717 -10.37109375 207.55078125 C-28.49863806 199.81676994 -38.45436446 184.3355106 -45.73046875 166.79296875 C-52.1809949 150.49797338 -55.89039088 133.44254524 -56.05078125 115.8984375 C-56.06062042 115.01448303 -56.07045959 114.13052856 -56.08059692 113.2197876 C-56.4069795 76.32763646 -56.4069795 76.32763646 -51.8125 60.3125 C-51.57112305 59.44125488 -51.32974609 58.57000977 -51.08105469 57.67236328 C-45.18213428 36.9222615 -36.03273563 15.5784097 -16.78125 4.1015625 C-11.25198643 1.10300033 -6.24121224 0.51157477 0 0 Z " fill="#FDFDFD" transform="translate(347.8125,151.6875)"/>
<path d="M0 0 C3.62844618 1.38226521 5.5171144 3.8542259 7.625 7 C8.66979575 9.56776523 9.51260045 11.91744493 10.25 14.5625 C10.55901245 15.61739624 10.55901245 15.61739624 10.87426758 16.69360352 C11.47853437 18.79062518 12.05663002 20.89299681 12.625 23 C12.92535156 24.10085937 13.22570312 25.20171875 13.53515625 26.3359375 C18.91054078 47.78345164 18.83607848 70.46426175 18.8125 92.4375 C18.81222809 93.39611938 18.81195618 94.35473877 18.81167603 95.34240723 C18.78438228 116.34854984 18.49561316 137.46262193 13.625 158 C13.47272949 158.64888184 13.32045898 159.29776367 13.16357422 159.96630859 C7.9672519 181.77183207 7.9672519 181.77183207 1.625 186 C-0.8125 186.125 -0.8125 186.125 -3.375 185 C-7.36662332 180.83971654 -9.43786246 177.07439315 -11 171.5 C-11.3101001 170.43918213 -11.3101001 170.43918213 -11.62646484 169.35693359 C-12.23175588 167.2433919 -12.80879119 165.12430876 -13.375 163 C-13.808125 161.39511719 -13.808125 161.39511719 -14.25 159.7578125 C-19.1426765 139.32069502 -19.85219271 118.16051737 -19.71118164 97.24707031 C-19.68733818 93.474395 -19.69068698 89.70242058 -19.69726562 85.9296875 C-19.68153327 72.79993913 -19.14805879 60.00613923 -17.375 47 C-17.08813778 44.35564245 -16.82713753 41.70922165 -16.5625 39.0625 C-15.00108209 26.85172403 -12.6095386 12.24504014 -5.375 2 C-2.375 0 -2.375 0 0 0 Z " fill="#FCFCFC" transform="translate(431.375,163)"/>
</svg>
